<?xml version="1.0" encoding="UTF-8" standalone="no"?>
<svg
   xmlns:dc="http://purl.org/dc/elements/1.1/"
   xmlns:cc="http://creativecommons.org/ns#"
   xmlns:rdf="http://www.w3.org/1999/02/22-rdf-syntax-ns#"
   xmlns:svg="http://www.w3.org/2000/svg"
   xmlns="http://www.w3.org/2000/svg"
   xmlns:sodipodi="http://sodipodi.sourceforge.net/DTD/sodipodi-0.dtd"
   xmlns:inkscape="http://www.inkscape.org/namespaces/inkscape"
   version="1.1"
   id="Capa_1"
   x="0px"
   y="0px"
   viewBox="0 0 489.2 489.2"
   style="enable-background:new 0 0 489.2 489.2;"
   xml:space="preserve"
   sodipodi:docname="line-chart-svgrepo-com.svg"
   inkscape:version="1.0.2 (e86c870879, 2021-01-15)"><metadata
   id="metadata47"><rdf:RDF><cc:Work
       rdf:about=""><dc:format>image/svg+xml</dc:format><dc:type
         rdf:resource="http://purl.org/dc/dcmitype/StillImage" /></cc:Work></rdf:RDF></metadata><defs
   id="defs45" /><sodipodi:namedview
   pagecolor="#ffffff"
   bordercolor="#666666"
   borderopacity="1"
   objecttolerance="10"
   gridtolerance="10"
   guidetolerance="10"
   inkscape:pageopacity="0"
   inkscape:pageshadow="2"
   inkscape:window-width="1360"
   inkscape:window-height="697"
   id="namedview43"
   showgrid="false"
   inkscape:zoom="0.55048947"
   inkscape:cx="244.60001"
   inkscape:cy="406.61699"
   inkscape:window-x="0"
   inkscape:window-y="0"
   inkscape:window-maximized="1"
   inkscape:current-layer="g6" />
<g
   id="g10"
   transform="matrix(0.95204398,0,0,0.88527792,21.707385,0)">
	<g
   id="g8">
		<g
   id="g6"
   transform="matrix(1.0418975,0,0,1.1253376,-20.496248,0)"
   style="fill:#ff5733;fill-opacity:1">
			<polygon
   points="0,489.2 489.2,489.2 489.2,427.9 61.3,427.9 61.3,0 0,0 "
   id="polygon2"
   style="fill:#ff5733;fill-opacity:1" />
			<path
   d="m 477.6,68.3 c -2.7,-4.7 -8.2,-6.2 -12.8,-3.5 l -46.6,26 c -6.6,-9.3 -17.5,-15.1 -29.9,-15.1 -20.6,0 -36.9,16.7 -36.9,36.9 0,1.2 0,2.7 0.4,3.9 l -59,19.4 c -6.6,-9.3 -17.5,-15.1 -29.9,-15.1 -20.6,0 -36.9,16.7 -36.9,36.9 0,12 5.8,22.9 14.8,29.5 l -22.2,70.2 c -20.2,0.4 -36.1,16.7 -36.1,36.9 0,5.4 1.2,10.5 3.5,15.1 l -94.9,71.7 c -4,3.1 -4.9,8.8 -2,12.9 v 0 c 3,4.2 9,5.2 13.2,2 L 198,324.1 c 6.2,4.7 13.6,7 21.7,7 20.6,0 36.9,-16.7 36.9,-36.9 0,-14 -7.8,-26.4 -19.4,-32.6 L 258.6,194 c 1.6,0.4 3.1,0.4 4.7,0.4 20.6,0 36.9,-16.7 36.9,-36.9 0,-1.6 0,-3.1 -0.4,-4.7 l 58.6,-19 c 6.6,9.3 17.9,15.5 30.3,15.5 20.6,0 36.9,-16.7 36.9,-36.9 0,-1.6 0,-2.7 -0.4,-3.9 l 48.9,-27.6 c 4.6,-2.5 6.2,-7.9 3.5,-12.6 z"
   id="path4"
   style="fill:#ff5733;fill-opacity:1" />
		</g>
	</g>
</g>
<g
   id="g12">
</g>
<g
   id="g14">
</g>
<g
   id="g16">
</g>
<g
   id="g18">
</g>
<g
   id="g20">
</g>
<g
   id="g22">
</g>
<g
   id="g24">
</g>
<g
   id="g26">
</g>
<g
   id="g28">
</g>
<g
   id="g30">
</g>
<g
   id="g32">
</g>
<g
   id="g34">
</g>
<g
   id="g36">
</g>
<g
   id="g38">
</g>
<g
   id="g40">
</g>
</svg>
