<?xml version="1.0" encoding="UTF-8" standalone="no"?>
<svg
   xmlns:dc="http://purl.org/dc/elements/1.1/"
   xmlns:cc="http://creativecommons.org/ns#"
   xmlns:rdf="http://www.w3.org/1999/02/22-rdf-syntax-ns#"
   xmlns:svg="http://www.w3.org/2000/svg"
   xmlns="http://www.w3.org/2000/svg"
   xmlns:sodipodi="http://sodipodi.sourceforge.net/DTD/sodipodi-0.dtd"
   xmlns:inkscape="http://www.inkscape.org/namespaces/inkscape"
   fill="#000000"
   viewBox="0 0 24 24"
   width="24px"
   height="24px"
   version="1.1"
   id="svg4"
   sodipodi:docname="icons8-google-scholar.svg"
   inkscape:version="1.0.2 (e86c870879, 2021-01-15)">
  <metadata
     id="metadata10">
    <rdf:RDF>
      <cc:Work
         rdf:about="">
        <dc:format>image/svg+xml</dc:format>
        <dc:type
           rdf:resource="http://purl.org/dc/dcmitype/StillImage" />
      </cc:Work>
    </rdf:RDF>
  </metadata>
  <defs
     id="defs8" />
  <sodipodi:namedview
     pagecolor="#ffffff"
     bordercolor="#666666"
     borderopacity="1"
     objecttolerance="10"
     gridtolerance="10"
     guidetolerance="10"
     inkscape:pageopacity="0"
     inkscape:pageshadow="2"
     inkscape:window-width="1360"
     inkscape:window-height="697"
     id="namedview6"
     showgrid="false"
     inkscape:zoom="15.88044"
     inkscape:cx="8.8553583"
     inkscape:cy="15.310635"
     inkscape:window-x="0"
     inkscape:window-y="0"
     inkscape:window-maximized="1"
     inkscape:current-layer="svg4" />
  <path
     d="M 11.279316,0.22537031 0.15670526,7.0126351 H 7.7926384 c -0.028638,0.102486 -0.074821,0.1956322 -0.097757,0.3022453 -0.063955,0.328504 -0.1140504,0.6897985 -0.1140502,1.0658127 0,4.8474639 5.0752338,4.3003689 5.0752338,4.3003689 v 1.235495 c 0,0.500899 0.672939,0.327464 0.752189,1.344196 -0.336459,0 -7.030381,-0.188178 -7.030381,4.220831 0,4.425296 5.908886,4.207573 5.908886,4.207573 0,0 6.824004,0.29796 6.824004,-5.17529 0.0027,-3.270104 -3.907576,-4.334559 -3.907576,-5.647216 0,-1.328946 2.946296,-1.719342 2.946296,-4.8306237 0,-1.3601679 -0.09535,-2.3289226 -0.719602,-3.0171512 -0.04866,-0.047511 -0.08036,-0.080132 -0.127628,-0.1113533 -0.01069,-0.00977 -0.02441,-0.016888 -0.0353,-0.026512 h 0.171075 l 2.878409,-2.1077639 v 2.8819362 a 0.69523271,0.67879435 0 0 0 0.01629,0.1564253 1.3904655,1.3575886 0 0 0 -0.711457,1.2010277 v 1.3574527 a 1.3904655,1.3575886 0 1 0 2.780653,0 V 7.0126351 A 1.3904655,1.3575886 0 0 0 21.690471,5.8116074 0.69523271,0.67879435 0 0 0 21.706764,5.6551821 V 1.7525048 l 2.08549,-1.52713449 z m 0.96128,4.14394339 c 0.400154,-0.017689 0.802936,0.077226 1.186667,0.2889889 0.287797,0.1411751 0.557825,0.3427569 0.798351,0.5938858 0.496346,0.4846106 0.913943,1.1882166 1.137786,2.0176204 0.528324,1.9696636 -0.158041,3.8637562 -1.583126,4.2234812 -1.409791,0.389589 -2.981077,-0.895388 -3.524693,-2.8501204 -0.240527,-0.9529318 -0.207333,-1.874473 0.06517,-2.6088551 0.0026,-0.00947 0.0082,-0.017105 0.01091,-0.026512 0.0047,-0.00224 0.01176,-0.00846 0.01629,-0.010606 0.07812,-0.2903504 0.205798,-0.5508358 0.361159,-0.7662185 0.285773,-0.4076207 0.662675,-0.6837013 1.132356,-0.8059876 0.132081,-0.031222 0.265791,-0.04978 0.399174,-0.055677 z M 12.783693,16.08795 c 2.353823,-0.172396 4.357675,1.093111 4.502267,2.813003 0.09733,1.704962 -1.713577,3.221618 -4.084084,3.377725 -2.353821,0.156107 -4.3869346,-1.092134 -4.499551,-2.797094 -0.1126176,-1.719893 1.710861,-3.221237 4.081368,-3.393634 z"
     id="path2"
     style="stroke-width:1.37379;fill-opacity:1;fill:#ff5733" />
</svg>
