<?xml version="1.0" encoding="UTF-8" standalone="no"?>
<svg
   xmlns:dc="http://purl.org/dc/elements/1.1/"
   xmlns:cc="http://creativecommons.org/ns#"
   xmlns:rdf="http://www.w3.org/1999/02/22-rdf-syntax-ns#"
   xmlns:svg="http://www.w3.org/2000/svg"
   xmlns="http://www.w3.org/2000/svg"
   xmlns:sodipodi="http://sodipodi.sourceforge.net/DTD/sodipodi-0.dtd"
   xmlns:inkscape="http://www.inkscape.org/namespaces/inkscape"
   version="1.1"
   id="Layer_1"
   x="0px"
   y="0px"
   viewBox="0 0 256 256"
   style="enable-background:new 0 0 256 256;"
   xml:space="preserve"
   sodipodi:docname="ORCID_iD.svg"
   inkscape:version="1.0.2 (e86c870879, 2021-01-15)"><metadata
   id="metadata19"><rdf:RDF><cc:Work
       rdf:about=""><dc:format>image/svg+xml</dc:format><dc:type
         rdf:resource="http://purl.org/dc/dcmitype/StillImage" /></cc:Work></rdf:RDF></metadata><defs
   id="defs17" /><sodipodi:namedview
   pagecolor="#ffffff"
   bordercolor="#666666"
   borderopacity="1"
   objecttolerance="10"
   gridtolerance="10"
   guidetolerance="10"
   inkscape:pageopacity="0"
   inkscape:pageshadow="2"
   inkscape:window-width="1360"
   inkscape:window-height="697"
   id="namedview15"
   showgrid="false"
   inkscape:zoom="1.4887912"
   inkscape:cx="106.06436"
   inkscape:cy="153.08336"
   inkscape:window-x="0"
   inkscape:window-y="0"
   inkscape:window-maximized="1"
   inkscape:current-layer="g12"
   inkscape:document-rotation="0" />
<style
   type="text/css"
   id="style2">
	.st0{fill:#A6CE39;}
	.st1{fill:#FFFFFF;}
</style>

<g
   id="g12">
	<path
   class="st1"
   d="M 36.468642,251.44348 H 9.1046361 V 60.876864 H 36.468642 v 86.119746 z"
   id="path6"
   style="fill:#ff5733;stroke-width:1.7781;fill-opacity:1" />
	<path
   class="st1"
   d="m 76.626212,60.876864 h 73.918348 c 70.36458,0 101.28236,50.355136 101.28236,95.372266 0,48.93168 -38.20299,95.37228 -100.92699,95.37228 H 76.626212 Z M 103.99022,226.88867 h 43.53364 c 62.01323,0 76.2283,-47.15233 76.2283,-70.63954 0,-38.25566 -24.3433,-70.639533 -77.6498,-70.639533 h -42.11214 z"
   id="path8"
   style="fill:#ff5733;stroke-width:1.7781;fill-opacity:1" />
	<path
   class="st1"
   d="m 40.733162,21.197729 c 0,9.786333 -7.995975,17.971268 -17.946523,17.971268 -9.950548,0 -17.9465234,-8.184935 -17.9465234,-17.971268 0,-9.964267 7.9959754,-17.9712681 17.9465234,-17.9712681 9.950548,0 17.946523,8.1849341 17.946523,17.9712681 z"
   id="path10"
   style="fill:#ff5733;stroke-width:1.7781;fill-opacity:1" />
</g>
</svg>
