<?xml version="1.0" encoding="UTF-8" standalone="no"?>
<svg
   xmlns:dc="http://purl.org/dc/elements/1.1/"
   xmlns:cc="http://creativecommons.org/ns#"
   xmlns:rdf="http://www.w3.org/1999/02/22-rdf-syntax-ns#"
   xmlns:svg="http://www.w3.org/2000/svg"
   xmlns="http://www.w3.org/2000/svg"
   xmlns:sodipodi="http://sodipodi.sourceforge.net/DTD/sodipodi-0.dtd"
   xmlns:inkscape="http://www.inkscape.org/namespaces/inkscape"
   viewBox="0 0 512 640"
   x="0px"
   y="0px"
   version="1.1"
   id="svg22"
   sodipodi:docname="noun_online course_3382702.svg"
   inkscape:version="1.0.2 (e86c870879, 2021-01-15)">
  <metadata
     id="metadata28">
    <rdf:RDF>
      <cc:Work
         rdf:about="">
        <dc:format>image/svg+xml</dc:format>
        <dc:type
           rdf:resource="http://purl.org/dc/dcmitype/StillImage" />
      </cc:Work>
    </rdf:RDF>
  </metadata>
  <defs
     id="defs26" />
  <sodipodi:namedview
     pagecolor="#ffffff"
     bordercolor="#666666"
     borderopacity="1"
     objecttolerance="10"
     gridtolerance="10"
     guidetolerance="10"
     inkscape:pageopacity="0"
     inkscape:pageshadow="2"
     inkscape:window-width="1360"
     inkscape:window-height="697"
     id="namedview24"
     showgrid="false"
     inkscape:zoom="0.42109375"
     inkscape:cx="256.73188"
     inkscape:cy="361.08306"
     inkscape:window-x="0"
     inkscape:window-y="0"
     inkscape:window-maximized="1"
     inkscape:current-layer="svg22" />
  <g
     id="g16"
     transform="translate(1.6025046,60.489405)">
    <rect
       x="96"
       y="48"
       width="16"
       height="16"
       id="rect2" />
    <rect
       x="128"
       y="48"
       width="16"
       height="16"
       id="rect4" />
    <rect
       x="160"
       y="48"
       width="16"
       height="16"
       id="rect6" />
    <rect
       x="96"
       y="160"
       width="16"
       height="16"
       id="rect8" />
    <rect
       x="96"
       y="192"
       width="16"
       height="80"
       id="rect10" />
    <path
       d="M 24.845,427.578 A 8,8 0 0 0 32,432 h 28.92 a 61.713,61.713 0 0 0 7.347,60.8 8,8 0 0 0 6.4,3.2 H 480 a 8,8 0 0 0 6.4,-12.8 45.569,45.569 0 0 1 0,-54.4 A 8,8 0 0 0 480,416 H 451.08 A 61.949,61.949 0 0 0 451.016,367.854 32.041,32.041 0 0 0 480,336 v -24 a 8,8 0 0 0 -8,-8 H 448 V 48 A 32.036,32.036 0 0 0 416,16 H 96 A 32.036,32.036 0 0 0 64,48 V 304 H 40 a 8,8 0 0 0 -8,8 v 24 h 16 v -16 h 140.687 a 19.187,19.187 0 0 1 13.656,5.657 35.082,35.082 0 0 0 24.971,10.343 h 57.373 A 35.082,35.082 0 0 0 309.657,325.657 19.187,19.187 0 0 1 323.314,320 H 464 v 16 a 16.019,16.019 0 0 1 -16,16 H 32 a 8,8 0 0 0 -6.4,12.8 45.569,45.569 0 0 1 0,54.4 8,8 0 0 0 -0.755,8.378 z m 273.5,-113.235 A 19.187,19.187 0 0 1 284.687,320 H 227.314 A 19.187,19.187 0 0 1 213.657,314.343 35.082,35.082 0 0 0 188.687,304 H 80 V 48 A 16.019,16.019 0 0 1 96,32 h 320 a 16.019,16.019 0 0 1 16,16 V 304 H 323.314 a 35.082,35.082 0 0 0 -24.971,10.343 z M 50.054,400 h 157.178 a 45.135,45.135 0 0 1 -6.112,16 H 45.751 a 61.5,61.5 0 0 0 4.303,-16 z M 385.12,416 H 275.08 a 61.954,61.954 0 0 0 0,-48 h 110.04 a 45.64,45.64 0 0 1 0,48 z m -92.2,64 h -38.04 a 45.644,45.644 0 0 1 0,-48 h 38.04 a 61.954,61.954 0 0 0 0,48 z M 126.88,432 h 110.04 a 61.954,61.954 0 0 0 0,48 H 126.88 a 45.644,45.644 0 0 1 0,-48 z m 130.24,-16 h -38.04 a 61.954,61.954 0 0 0 0,-48 h 38.04 a 45.64,45.64 0 0 1 0,48 z M 78.877,432 h 30.043 a 61.954,61.954 0 0 0 0,48 H 78.877 a 45.644,45.644 0 0 1 0,-48 z m 232,48 a 45.114,45.114 0 0 1 -6.111,-16 h 157.181 a 61.456,61.456 0 0 0 4.3,16 z M 461.944,448 H 304.769 a 45.114,45.114 0 0 1 6.111,-16 h 155.369 a 61.456,61.456 0 0 0 -4.302,16 z M 433.121,416 H 403.08 a 61.954,61.954 0 0 0 0,-48 h 30.044 a 45.649,45.649 0 0 1 0,48 z M 64,368 h 137.12 a 45.135,45.135 0 0 1 6.112,16 H 50.054 a 61.5,61.5 0 0 0 -4.3,-16 z"
       id="path12" />
    <path
       d="m 392,214.7 v -66.39 l 11.249,-5 a 8,8 0 0 0 0,-14.622 l -144,-64 a 8.01,8.01 0 0 0 -6.5,0 l -144,64 a 8,8 0 0 0 0,14.622 L 168,169.643 V 264 a 8,8 0 0 0 8,8 198.714,198.714 0 0 1 74.178,14.291 l 2.86,1.14 a 8,8 0 0 0 5.925,0 l 2.87,-1.144 A 198.691,198.691 0 0 1 336,272 a 8,8 0 0 0 8,-8 v -94.357 l 32,-14.222 V 214.7 l -15.589,46.77 A 8,8 0 0 0 368,272 h 32 a 8,8 0 0 0 7.589,-10.53 z M 256,80.754 l 49.025,21.789 -32.381,16.191 a 24.056,24.056 0 1 0 7.167,14.3 L 323.578,111.15 323.342,110.679 380.3,136 256,191.246 131.7,136 Z M 264,136 a 8,8 0 1 1 -8,-8 8.009,8.009 0 0 1 8,8 z m 64,120.146 a 214.446,214.446 0 0 0 -72,15.242 214.443,214.443 0 0 0 -72,-15.242 v -79.391 l 68.751,30.556 a 8,8 0 0 0 6.5,0 L 328,176.755 Z M 379.1,256 384,241.3 388.9,256 Z"
       id="path14" />
  </g>
</svg>
