<?xml version="1.0" encoding="UTF-8" standalone="no"?>
<svg
   xmlns:dc="http://purl.org/dc/elements/1.1/"
   xmlns:cc="http://creativecommons.org/ns#"
   xmlns:rdf="http://www.w3.org/1999/02/22-rdf-syntax-ns#"
   xmlns:svg="http://www.w3.org/2000/svg"
   xmlns="http://www.w3.org/2000/svg"
   xmlns:sodipodi="http://sodipodi.sourceforge.net/DTD/sodipodi-0.dtd"
   xmlns:inkscape="http://www.inkscape.org/namespaces/inkscape"
   version="1.1"
   x="0px"
   y="0px"
   viewBox="0 0 100 125"
   style="enable-background:new 0 0 100 100;"
   xml:space="preserve"
   id="svg10"
   sodipodi:docname="noun_guidance_1298479.svg"
   inkscape:version="1.0.2 (e86c870879, 2021-01-15)"><metadata
     id="metadata16"><rdf:RDF><cc:Work
         rdf:about=""><dc:format>image/svg+xml</dc:format><dc:type
           rdf:resource="http://purl.org/dc/dcmitype/StillImage" /></cc:Work></rdf:RDF></metadata><defs
     id="defs14" /><sodipodi:namedview
     pagecolor="#ffffff"
     bordercolor="#666666"
     borderopacity="1"
     objecttolerance="10"
     gridtolerance="10"
     guidetolerance="10"
     inkscape:pageopacity="0"
     inkscape:pageshadow="2"
     inkscape:window-width="1360"
     inkscape:window-height="697"
     id="namedview12"
     showgrid="false"
     inkscape:zoom="2.156"
     inkscape:cx="42.418101"
     inkscape:cy="62.935042"
     inkscape:window-x="0"
     inkscape:window-y="0"
     inkscape:window-maximized="1"
     inkscape:current-layer="svg10" /><g
     id="g4"
     transform="translate(0.40578754,13.430594)"><path
       d="m 33.718,27.301 h 16.954 l 8.613,8.321 V 27.301 H 77.98 c 1.33,0 2.413,-1.083 2.413,-2.414 V 2.414 C 80.394,1.083 79.311,0 77.98,0 H 33.718 c -1.331,0 -2.414,1.083 -2.414,2.414 v 22.473 c 0,1.331 1.083,2.414 2.414,2.414 z M 32.868,2.414 c 0,-0.469 0.381,-0.851 0.85,-0.851 H 77.98 c 0.469,0 0.85,0.382 0.85,0.851 v 22.473 c 0,0.469 -0.381,0.851 -0.85,0.851 H 57.72 v 6.206 l -6.4,-6.206 H 33.718 c -0.469,0 -0.85,-0.382 -0.85,-0.851 z m 35.797,15.43 c 2.312,0 4.192,-1.881 4.192,-4.193 0,-2.312 -1.881,-4.193 -4.192,-4.193 -2.313,0 -4.194,1.881 -4.194,4.193 0,2.312 1.882,4.193 4.194,4.193 z m 0,-6.823 c 1.45,0 2.629,1.18 2.629,2.629 0,1.45 -1.179,2.63 -2.629,2.63 -1.45,0 -2.63,-1.18 -2.63,-2.63 0,-1.449 1.18,-2.629 2.63,-2.629 z M 55.85,17.844 c 2.312,0 4.192,-1.881 4.192,-4.193 0,-2.312 -1.881,-4.193 -4.192,-4.193 -2.313,0 -4.193,1.881 -4.193,4.193 -10e-4,2.312 1.88,4.193 4.193,4.193 z m 0,-6.823 c 1.449,0 2.629,1.18 2.629,2.629 0,1.45 -1.18,2.63 -2.629,2.63 -1.451,0 -2.631,-1.18 -2.631,-2.63 0,-1.449 1.179,-2.629 2.631,-2.629 z m -12.816,6.823 c 2.312,0 4.193,-1.881 4.193,-4.193 0,-2.312 -1.881,-4.193 -4.193,-4.193 -2.313,0 -4.193,1.881 -4.193,4.193 -10e-4,2.312 1.88,4.193 4.193,4.193 z m 0,-6.823 c 1.45,0 2.629,1.18 2.629,2.629 0,1.45 -1.18,2.63 -2.629,2.63 -1.45,0 -2.63,-1.18 -2.63,-2.63 0,-1.449 1.179,-2.629 2.63,-2.629 z m 25.675,21.332 c -7.988,0 -14.486,6.499 -14.486,14.487 0,7.987 6.498,14.485 14.486,14.485 7.988,0 14.486,-6.498 14.486,-14.485 0,-7.988 -6.498,-14.487 -14.486,-14.487 z m 0,27.408 c -7.126,0 -12.923,-5.797 -12.923,-12.921 0,-7.126 5.797,-12.923 12.923,-12.923 7.125,0 12.924,5.797 12.924,12.923 0,7.124 -5.799,12.921 -12.924,12.921 z M 33.036,58.615 c 8.518,0 15.448,-6.93 15.448,-15.447 0,-8.517 -6.93,-15.446 -15.448,-15.446 -8.518,0 -15.447,6.929 -15.447,15.446 0,8.517 6.93,15.447 15.447,15.447 z m 0,-29.329 c 7.656,0 13.884,6.228 13.884,13.882 0,7.654 -6.228,13.882 -13.884,13.882 -7.655,0 -13.883,-6.228 -13.883,-13.882 0,-7.654 6.228,-13.882 13.883,-13.882 z M 74.262,61.704 H 63.088 c -3.469,0 -7.014,1.057 -10.081,2.987 -0.026,-0.024 -0.043,-0.039 -10e-4,0 C 53,64.695 52.996,64.697 52.99,64.701 49.219,61.34 44.552,59.035 39.002,59.035 H 27.017 c -9.643,0 -19.69,7.719 -19.69,18.168 V 100 H 92.673 V 78.694 c 0,-9.016 -8.591,-16.99 -18.411,-16.99 z m -1.651,1.564 -3.936,4.813 -3.938,-4.813 z m -35.258,-2.669 -4.342,5.309 -4.344,-5.309 h 8.686 z M 20.232,98.436 V 75.973 H 18.669 V 98.436 H 8.891 V 77.203 c 0,-8.859 8.408,-16.396 17.763,-16.596 l 4.888,5.973 -5.377,24.87 6.839,6.985 H 20.232 Z m 7.638,-7.478 5.141,-23.776 5.142,23.776 -5.142,5.251 z m 29.261,7.478 H 47.32 V 75.973 H 45.756 V 98.436 H 33.019 l 6.84,-6.985 -5.378,-24.87 c 0.89,-1.089 4.005,-4.897 4.888,-5.977 9.504,0.193 17.762,7.867 17.762,16.6 v 21.232 z m 1.564,0 V 77.203 c 0,-4.123 -1.614,-8.089 -4.583,-11.357 2.647,-1.602 5.653,-2.502 8.611,-2.57 l 4.524,5.529 -5.014,23.188 6.309,6.442 h -9.847 z m 5.246,-6.935 4.734,-21.899 4.736,21.899 -4.736,4.836 z m 27.168,6.935 H 82.068 V 77.547 H 80.504 V 98.436 H 68.809 l 6.31,-6.442 -5.015,-23.189 c 0.846,-1.033 3.687,-4.507 4.525,-5.531 8.82,0.192 16.48,7.316 16.48,15.422 v 19.74 z"
       id="path2" /></g></svg>
