<?xml version="1.0" encoding="UTF-8" standalone="no"?>
<svg
   xmlns:dc="http://purl.org/dc/elements/1.1/"
   xmlns:cc="http://creativecommons.org/ns#"
   xmlns:rdf="http://www.w3.org/1999/02/22-rdf-syntax-ns#"
   xmlns:svg="http://www.w3.org/2000/svg"
   xmlns="http://www.w3.org/2000/svg"
   xmlns:sodipodi="http://sodipodi.sourceforge.net/DTD/sodipodi-0.dtd"
   xmlns:inkscape="http://www.inkscape.org/namespaces/inkscape"
   version="1.1"
   x="0px"
   y="0px"
   viewBox="0 0 66 82.5"
   enable-background="new 0 0 66 66"
   xml:space="preserve"
   id="svg32"
   sodipodi:docname="noun_consulting_2139537.svg"
   inkscape:version="1.0.2 (e86c870879, 2021-01-15)"><metadata
     id="metadata38"><rdf:RDF><cc:Work
         rdf:about=""><dc:format>image/svg+xml</dc:format><dc:type
           rdf:resource="http://purl.org/dc/dcmitype/StillImage" /></cc:Work></rdf:RDF></metadata><defs
     id="defs36" /><sodipodi:namedview
     pagecolor="#ffffff"
     bordercolor="#666666"
     borderopacity="1"
     objecttolerance="10"
     gridtolerance="10"
     guidetolerance="10"
     inkscape:pageopacity="0"
     inkscape:pageshadow="2"
     inkscape:window-width="1360"
     inkscape:window-height="697"
     id="namedview34"
     showgrid="false"
     inkscape:zoom="4.6197643"
     inkscape:cx="19.977633"
     inkscape:cy="40.330699"
     inkscape:window-x="0"
     inkscape:window-y="0"
     inkscape:window-maximized="1"
     inkscape:current-layer="g26" /><g
     id="g26"><path
       d="m 42.483872,68.598634 v 5.688553 c 0,0.643987 0.382494,1.073311 0.956236,1.073311 h 19.794073 c 0.573741,0 0.956236,-0.429324 0.956236,-1.073311 v -5.688553 c 0,-1.824629 -0.764988,-3.434596 -2.008094,-4.400577 1.529976,-4.937234 1.529976,-8.479162 1.529976,-11.05511 0,-0.321994 0,-0.751318 0,-1.073311 0.09562,-6.43987 -4.58993,-11.699098 -10.327342,-11.699098 -5.737414,0 -10.422967,5.259228 -10.422967,11.699098 0,4.078583 -0.09562,6.976525 1.529976,12.128421 -1.147483,1.073311 -2.008094,2.683279 -2.008094,4.400577 z m 2.390589,-16.528998 c 0,-5.259228 3.824941,-9.552474 8.510496,-9.552474 4.685553,0 8.510495,4.293246 8.510495,9.552474 0,0.321993 0,0.751317 0,1.073311 0,2.575948 0.09562,5.688551 -1.33873,10.089129 -0.382493,-0.107331 -0.860611,-0.214662 -1.338729,-0.214662 h -2.581836 v -1.502636 c 0,-0.214663 -0.09562,-0.429325 -0.191247,-0.643987 2.199341,-2.039293 3.633694,-6.010546 3.633694,-8.908487 0,-2.253955 -0.956235,-4.400578 -2.486212,-5.795883 -0.191247,-0.214662 -0.478117,-0.214662 -0.764988,-0.214662 -0.28687,0.107331 -0.478118,0.214662 -0.669365,0.536656 -1.051859,2.039292 -4.398683,4.829902 -7.26739,4.829902 -0.28687,0 -0.573741,0 -0.956235,-0.107332 -0.286871,-0.10733 -0.573741,0 -0.764988,0.214664 -0.191248,0.214662 -0.382495,0.536655 -0.286871,0.858649 0.09562,2.79061 1.529977,6.5472 3.633695,8.586493 -0.09562,0.214662 -0.191247,0.321994 -0.191247,0.643987 v 1.502636 h -2.581836 c -0.478118,0 -0.860612,0.107331 -1.33873,0.214662 -1.721223,-4.829902 -1.529976,-7.835174 -1.529976,-11.16244 z m 8.510496,8.157168 c -1.912471,0 -4.01619,-3.541929 -4.589931,-6.761864 0,0 0,0 0,0 3.059953,0 6.502401,-2.361285 8.319249,-4.829902 0.669365,0.965981 1.051858,2.146623 1.051858,3.327266 0,3.112604 -2.294964,8.2645 -4.781176,8.2645 z m -1.338731,1.82463 c 0.860613,0.321993 1.721224,0.321993 2.581837,0 v 1.609968 l -1.243106,1.502636 -1.338731,-1.502636 z m -7.649883,6.5472 c 0,-1.93196 1.434353,-3.434596 3.155577,-3.434596 h 3.155577 c 3.251201,3.434596 2.103718,3.434596 5.354919,0 h 3.155577 c 1.721224,0 3.155577,1.609967 3.155577,3.434596 v 4.615241 h -2.390589 v -2.790611 c 0,-0.643987 -0.382494,-1.073311 -0.956235,-1.073311 -0.573742,0 -0.956236,0.429324 -0.956236,1.073311 v 2.897942 h -9.179861 v -2.897942 c 0,-0.643987 -0.382493,-1.073311 -0.956235,-1.073311 -0.573741,0 -0.956236,0.429324 -0.956236,1.073311 v 2.897942 h -2.390589 v -4.722572 z"
       id="path2"
       style="stroke-width:1.01308" /><path
       d="m 25.220907,17.978882 c 0,0 0,0 0,0 0,0 0,0 0,0 0,3.649259 1.912472,8.586493 4.781178,11.05511 v 1.180643 h -2.96433 c -2.964329,0 -5.450542,2.683279 -5.450542,6.117876 v 6.225207 c 0,0.643988 0.382494,1.073313 0.956235,1.073313 h 21.802173 c 0.573741,0 0.956236,-0.429325 0.956236,-1.073313 V 36.22518 c 0,-3.327266 -2.390589,-6.117877 -5.450542,-6.117877 H 36.88698 v -1.180642 c 2.868711,-2.361286 4.781182,-7.405851 4.781182,-10.947779 v 0 c 0,0 0,0 0,0 0,-5.044566 -3.729322,-9.2304807 -8.223629,-9.2304807 -4.494307,0.1073315 -8.128001,4.1859147 -8.223626,9.2304807 z M 43.389386,36.22518 v 5.259227 h -2.868707 v -3.327266 c 0,-0.643987 -0.382494,-1.073312 -0.956236,-1.073312 -0.573744,0 -0.956238,0.429325 -0.956238,1.073312 v 3.327266 h -10.23172 v -3.327266 c 0,-0.643987 -0.382494,-1.073312 -0.956236,-1.073312 -0.573741,0 -0.956235,0.429325 -0.956235,1.073312 v 3.327266 H 23.595308 V 36.22518 c 0,-2.146623 1.529976,-3.971253 3.538071,-3.971253 h 3.538071 c 1.147483,0.858649 2.390589,3.756591 3.538071,2.468617 l 2.199341,-2.468617 h 3.538076 c 1.912471,0.107331 3.442448,1.82463 3.442448,3.971253 z M 34.97451,30.858622 33.444533,32.57592 31.914556,30.858622 v -0.751319 c 0.478118,0.214662 1.051859,0.321994 1.529977,0.321994 0.573742,0 1.051859,-0.107332 1.529977,-0.321994 z m -1.529977,-2.575948 c -3.251201,0 -6.119907,-5.795883 -6.311154,-9.767137 l 2.008095,-1.931961 1.529976,1.931961 c 0.286871,0.321994 0.669365,0.429326 0.956236,0.321994 0.382493,-0.107332 0.573741,-0.429325 0.669365,-0.858649 l 0.28687,-3.005273 c 3.729318,2.790611 5.833037,3.863922 6.980522,4.185916 -0.286874,3.971253 -2.964333,9.123149 -6.11991,9.123149 z m 6.215535,-11.269773 c -1.434358,-0.536655 -4.589935,-2.683279 -7.171771,-4.829902 -0.28687,-0.214662 -0.669364,-0.214662 -0.956235,-0.107332 -0.286871,0.107332 -0.478118,0.429325 -0.573741,0.858649 L 30.67145,15.295603 30.002085,14.436954 C 29.619592,14.007629 29.04585,14.007629 28.663356,14.329622 l -0.956236,0.965981 c 2.486212,-6.5472017 11.092331,-5.259227 11.952948,1.717298 z"
       id="path6"
       style="stroke-width:1.01308" /><path
       d="m 51.983738,30.151042 2.486212,5.688552 c 0.191247,0.321993 0.478117,0.643987 0.860612,0.643987 0.382494,0 0.669364,-0.214662 0.860611,-0.643987 l 2.486212,-5.688552 h 1.625601 c 1.529977,0 2.773083,-1.395305 2.773083,-3.112604 V 11.260757 c 0.09563,-1.7172992 -1.147482,-3.1126034 -2.67746,-3.1126034 h -9.944848 c -1.529977,0 -2.773083,1.3953042 -2.773083,3.1126034 v 15.67035 c 0,1.717299 1.243106,3.112604 2.773083,3.112604 h 1.529977 z m -2.486212,-3.219935 v -15.67035 c 0,-0.536655 0.382493,-0.965981 0.860611,-0.965981 h 9.944849 c 0.573741,0 0.956236,0.429326 0.956236,0.965981 v 15.67035 c 0,0.536656 -0.382495,0.96598 -0.860613,0.96598 h -2.199341 c -0.382494,0 -0.669364,0.214662 -0.860612,0.643987 l -1.912471,4.293247 -1.912471,-4.293247 c -0.191247,-0.321993 -0.478118,-0.643987 -0.860611,-0.643987 h -2.199342 c -0.478118,0.107332 -0.956235,-0.321993 -0.956235,-0.96598 z"
       id="path8"
       style="stroke-width:1.01308" /><path
       d="m 53.226844,20.169244 h 4.398683 c 0.573741,0 0.956235,-0.429325 0.956235,-1.073312 0,-0.643987 -0.382494,-1.073311 -0.956235,-1.073311 h -4.398683 c -0.573741,0 -0.956236,0.429324 -0.956236,1.073311 0,0.643987 0.382495,1.073312 0.956236,1.073312 z"
       id="path10"
       style="stroke-width:1.01308" /><path
       d="m 52.876148,24.891815 h 2.785483 c 0.363323,0 0.605539,-0.429325 0.605539,-1.073311 0,-0.643987 -0.242216,-1.073312 -0.605539,-1.073312 h -2.785483 c -0.363324,0 -0.60554,0.429325 -0.60554,1.073312 0,0.643986 0.242216,1.073311 0.60554,1.073311 z"
       id="path12"
       style="stroke-width:0.806181" /><path
       d="m 53.226844,15.446672 h 4.398683 c 0.573741,0 0.956235,-0.429325 0.956235,-1.073311 0,-0.643987 -0.382494,-1.073312 -0.956235,-1.073312 h -4.398683 c -0.573741,0 -0.956236,0.429325 -0.956236,1.073312 0,0.643986 0.382495,1.073311 0.956236,1.073311 z"
       id="path14"
       style="stroke-width:1.01308" /><path
       d="m 6.3713056,30.151042 2.4862122,5.688552 c 0.1912471,0.321993 0.4781177,0.643987 0.8606119,0.643987 0.3824943,0 0.6693653,-0.214662 0.8606123,-0.643987 l 2.486212,-5.688552 h 1.6256 c 1.529977,0 2.773083,-1.395305 2.773083,-3.112604 V 11.260757 c 0,-1.7172992 -1.243106,-3.1126034 -2.773083,-3.1126034 H 4.7457052 c -1.5299767,0 -2.7730828,1.3953042 -2.7730828,3.1126034 v 15.67035 c 0,1.717299 1.2431061,3.112604 2.7730828,3.112604 H 6.3713056 Z M 3.8850934,26.931107 v -15.67035 c 0,-0.536655 0.3824941,-0.965981 0.8606118,-0.965981 h 9.9448488 c 0.478118,0 0.860612,0.429326 0.860612,0.965981 v 15.67035 c 0,0.536656 -0.382494,0.96598 -0.860612,0.96598 h -2.199342 c -0.382493,0 -0.669364,0.214662 -0.860611,0.643987 L 9.7181297,32.834321 7.8056588,28.541074 C 7.6144117,28.219081 7.327541,27.897087 6.9450469,27.897087 H 4.7457052 C 4.2675875,28.004419 3.8850934,27.575094 3.8850934,26.931107 Z"
       id="path16"
       style="stroke-width:1.01308" /><path
       d="m 7.5187881,20.169244 h 4.3986829 c 0.573741,0 0.956236,-0.429325 0.956236,-1.073312 0,-0.643987 -0.382495,-1.073311 -0.956236,-1.073311 H 7.5187881 c -0.5737412,0 -0.9562354,0.429324 -0.9562354,1.073311 0,0.643987 0.4781177,1.073312 0.9562354,1.073312 z"
       id="path18"
       style="stroke-width:1.01308" /><path
       d="m 7.5187881,24.891815 h 4.3986829 c 0.573741,0 0.956236,-0.429325 0.956236,-1.073311 0,-0.643987 -0.382495,-1.073312 -0.956236,-1.073312 H 7.5187881 c -0.5737412,0 -0.9562354,0.429325 -0.9562354,1.073312 0,0.643986 0.4781177,1.073311 0.9562354,1.073311 z"
       id="path20"
       style="stroke-width:1.01308" /><path
       d="m 7.5187881,15.446672 h 4.3986829 c 0.573741,0 0.956236,-0.429325 0.956236,-1.073311 0,-0.643987 -0.382495,-1.073312 -0.956236,-1.073312 H 7.5187881 c -0.5737412,0 -0.9562354,0.429325 -0.9562354,1.073312 0,0.643986 0.4781177,1.073311 0.9562354,1.073311 z"
       id="path22"
       style="stroke-width:1.01308" /><path
       d="m 41.465148,59.774443 c 0,-0.643986 -0.382495,-1.073311 -0.956236,-1.073311 -3.824942,0 -6.980519,-3.541928 -6.980519,-7.835175 0,-0.643987 -0.382495,-1.073312 -0.956236,-1.073312 -0.57374,0 -0.956235,0.429325 -0.956235,1.073312 0,4.293247 -3.155577,7.835175 -6.980519,7.835175 -0.573741,0 -0.956236,0.429325 -0.956236,1.073311 0,0.643987 0.382495,1.073312 0.956236,1.073312 3.442447,0 6.406778,-2.253955 7.936754,-5.473889 1.434354,3.219934 4.494307,5.473889 7.936755,5.473889 0.478118,0 0.956236,-0.429325 0.956236,-1.073312 z"
       id="path24"
       style="stroke-width:1.01308" /><path
       d="m 2.1637655,67.869089 v 5.688552 c 0,0.643987 0.3824941,1.073311 0.9562354,1.073311 H 22.914075 c 0.573742,0 0.956235,-0.429324 0.956235,-1.073311 v -5.688552 c 0,-1.82463 -0.764988,-3.434597 -2.008094,-4.400578 1.529976,-4.937234 1.529976,-8.479162 1.529976,-11.05511 0,-0.321994 0,-0.751318 0,-1.073312 0.09562,-6.43987 -4.58993,-11.699097 -10.327342,-11.699097 -5.737413,0 -10.4229669,5.259227 -10.4229669,11.699097 0,4.078584 -0.095623,6.976526 1.5299768,12.128422 -1.1474825,1.073311 -2.0080944,2.683279 -2.0080944,4.400578 z m 2.3905886,-16.529 c 0,-5.259227 3.824942,-9.552474 8.5104959,-9.552474 4.685553,0 8.510495,4.293247 8.510495,9.552474 0,0.321994 0,0.751318 0,1.073312 0,2.575948 0.09563,5.688552 -1.33873,10.089129 -0.382493,-0.107331 -0.860611,-0.214662 -1.338729,-0.214662 H 16.31605 v -1.502636 c 0,-0.214663 -0.09562,-0.429325 -0.191247,-0.643987 2.199341,-2.039292 3.633695,-6.010545 3.633695,-8.908487 0,-2.253954 -0.956236,-4.400577 -2.486212,-5.795883 -0.191248,-0.214662 -0.478118,-0.214662 -0.764989,-0.214662 -0.28687,0.107331 -0.478117,0.214662 -0.669365,0.536655 -1.051858,2.039292 -4.398683,4.829903 -7.2673889,4.829903 -0.2868706,0 -0.5737413,0 -0.9562355,-0.107331 -0.2868706,-0.107331 -0.5737413,0 -0.7649883,0.214662 -0.1912471,0.214662 -0.3824942,0.536656 -0.2868707,0.858649 0.095623,2.790611 1.5299768,6.547202 3.6336944,8.586494 -0.09562,0.214662 -0.191247,0.321993 -0.191247,0.643987 v 1.502636 H 7.4230605 c -0.4781177,0 -0.8606119,0.107331 -1.3387296,0.214662 C 4.363107,57.672628 4.5543541,54.667355 4.5543541,51.340089 Z m 8.5104959,8.157169 c -1.912471,0 -4.0161892,-3.541928 -4.5899305,-6.761864 0,0 0,0 0,0 3.0599525,0 6.5024015,-2.361285 8.3192485,-4.829902 0.669365,0.96598 1.051858,2.146623 1.051858,3.327266 0,3.112604 -2.294964,8.2645 -4.781176,8.2645 z m -1.33873,1.82463 c 0.860612,0.321993 1.721223,0.321993 2.581836,0 v 1.609967 l -1.243106,1.502637 -1.33873,-1.502637 z m -7.6498837,6.547201 c 0,-1.931961 1.4343533,-3.434597 3.1555771,-3.434597 H 10.38739 c 3.251201,3.434597 2.103718,3.434597 5.354919,0 h 3.155577 c 1.721224,0 3.155577,1.609967 3.155577,3.434597 v 4.615239 h -2.390589 v -2.790609 c 0,-0.643987 -0.382494,-1.073312 -0.956235,-1.073312 -0.573741,0 -0.956236,0.429325 -0.956236,1.073312 V 72.59166 H 8.5705431 v -2.897941 c 0,-0.643987 -0.3824941,-1.073312 -0.9562355,-1.073312 -0.5737413,0 -0.9562354,0.429325 -0.9562354,1.073312 V 72.59166 H 4.2674835 v -4.722571 z"
       id="path2-3"
       style="stroke-width:1.01308" /></g></svg>
