<?xml version="1.0" encoding="UTF-8" standalone="no"?>
<svg
   xmlns:dc="http://purl.org/dc/elements/1.1/"
   xmlns:cc="http://creativecommons.org/ns#"
   xmlns:rdf="http://www.w3.org/1999/02/22-rdf-syntax-ns#"
   xmlns:svg="http://www.w3.org/2000/svg"
   xmlns="http://www.w3.org/2000/svg"
   xmlns:sodipodi="http://sodipodi.sourceforge.net/DTD/sodipodi-0.dtd"
   xmlns:inkscape="http://www.inkscape.org/namespaces/inkscape"
   width="24"
   height="24"
   fill-rule="evenodd"
   clip-rule="evenodd"
   version="1.1"
   id="svg4"
   sodipodi:docname="iconmonstr-whats-hot-1.svg"
   inkscape:version="1.0.2 (e86c870879, 2021-01-15)">
  <metadata
     id="metadata10">
    <rdf:RDF>
      <cc:Work
         rdf:about="">
        <dc:format>image/svg+xml</dc:format>
        <dc:type
           rdf:resource="http://purl.org/dc/dcmitype/StillImage" />
      </cc:Work>
    </rdf:RDF>
  </metadata>
  <defs
     id="defs8" />
  <sodipodi:namedview
     pagecolor="#ffffff"
     bordercolor="#666666"
     borderopacity="1"
     objecttolerance="10"
     gridtolerance="10"
     guidetolerance="10"
     inkscape:pageopacity="0"
     inkscape:pageshadow="2"
     inkscape:window-width="1360"
     inkscape:window-height="697"
     id="namedview6"
     showgrid="false"
     inkscape:zoom="10.24"
     inkscape:cx="28.247494"
     inkscape:cy="17.075415"
     inkscape:window-x="0"
     inkscape:window-y="0"
     inkscape:window-maximized="1"
     inkscape:current-layer="svg4" />
  <path
     d="M 9.4932495,-0.00305936 C 9.9584468,5.9848671 5.2035224,8.0463663 5.2035224,13.320473 c 0,3.582427 2.3404754,6.64011 6.8635636,6.666764 4.523089,0.02665 6.863564,-3.676549 6.863564,-7.459712 0,-3.4491594 -1.572519,-6.7017474 -4.539104,-8.7240989 0.70466,2.1714458 -0.233361,4.1546497 -1.144689,4.8376518 C 13.300248,5.8615936 12.38891,1.7369293 9.4932495,-0.00305936 Z M 13.085944,10.825018 c 2.863631,3.322553 1.105033,7.496361 -1.195024,7.496361 -1.399403,0 -2.1193143,-1.053656 -2.1116882,-2.146458 0.014498,-2.026517 2.0872852,-2.028183 3.3067122,-5.349903 z"
     id="path2"
     style="fill:#ff5733;fill-opacity:1;stroke-width:0.796998" />
  <text
     xml:space="preserve"
     style="font-style:normal;font-weight:normal;font-size:5.33333px;line-height:1.25;font-family:sans-serif;white-space:pre;inline-size:333.732;fill:#000000;fill-opacity:1;stroke:none"
     id="text837"
     y="21.701633"
     x="9.2355356"
     transform="matrix(0.45155229,0.00210068,-0.09615107,0.39791379,0.46738103,13.659673)"><tspan
       x="9.2355356"
       y="21.701633"><tspan
         style="font-size:5.33333px;fill:#ff5733;fill-opacity:1">तमसो मा ज्योतिर् गमय</tspan></tspan></text>
</svg>
