<?xml version="1.0" encoding="UTF-8" standalone="no"?>
<svg
   xmlns:dc="http://purl.org/dc/elements/1.1/"
   xmlns:cc="http://creativecommons.org/ns#"
   xmlns:rdf="http://www.w3.org/1999/02/22-rdf-syntax-ns#"
   xmlns:svg="http://www.w3.org/2000/svg"
   xmlns="http://www.w3.org/2000/svg"
   xmlns:sodipodi="http://sodipodi.sourceforge.net/DTD/sodipodi-0.dtd"
   xmlns:inkscape="http://www.inkscape.org/namespaces/inkscape"
   version="1.1"
   x="0px"
   y="0px"
   viewBox="0 0 128 160"
   style="enable-background:new 0 0 128 128;"
   xml:space="preserve"
   id="svg142"
   sodipodi:docname="noun_training_1132388.svg"
   inkscape:version="1.0.2 (e86c870879, 2021-01-15)"><metadata
     id="metadata148"><rdf:RDF><cc:Work
         rdf:about=""><dc:format>image/svg+xml</dc:format><dc:type
           rdf:resource="http://purl.org/dc/dcmitype/StillImage" /></cc:Work></rdf:RDF></metadata><defs
     id="defs146" /><sodipodi:namedview
     pagecolor="#ffffff"
     bordercolor="#666666"
     borderopacity="1"
     objecttolerance="10"
     gridtolerance="10"
     guidetolerance="10"
     inkscape:pageopacity="0"
     inkscape:pageshadow="2"
     inkscape:window-width="1360"
     inkscape:window-height="697"
     id="namedview144"
     showgrid="false"
     inkscape:zoom="2.2206185"
     inkscape:cx="97.931195"
     inkscape:cy="58.524992"
     inkscape:window-x="0"
     inkscape:window-y="0"
     inkscape:window-maximized="1"
     inkscape:current-layer="svg142"
     inkscape:document-rotation="0" /><rect
     style=""
     width="128"
     height="128"
     fill="none"
     id="rect120" /><path
     d="m 113.70055,55.129695 h -3.695 c 2.835,-1.992 4.695,-5.28 4.695,-9 0,-6.065 -4.935,-11 -11,-11 -6.065003,0 -11.000003,4.935 -11.000003,11 0,3.72 1.861,7.008 4.695,9 h -13.281 l -1.414,-1.414 v -22.687 c 2.279,-0.465 4,-2.484 4,-4.899 0,-2.757 -2.243,-5 -5,-5 H 9.7005466 c -2.757,0 -5,2.243 -5,5 0,2.414 1.721,4.434 4,4.899 v 54.202 c -2.279,0.465 -4,2.485 -4,4.899 0,2.757 2.243,5 5,5 H 81.700547 c 2.757,0 5,-2.243 5,-5 0,-2.414 -1.721,-4.434 -4,-4.899 v -20.101 h 10 v 38.425995 c -3.118,0.886 -5.671,3.112 -7,6.018 -1.736,-3.795 -5.561,-6.444 -10,-6.444 -4.439,0 -8.264,2.649 -10,6.444 -1.736,-3.795 -5.561,-6.444 -10,-6.444 -4.439,0 -8.264,2.649 -10,6.444 -1.736,-3.795 -5.561,-6.444 -10,-6.444 -4.439,0 -8.264,2.649 -10,6.444 -1.736,-3.795 -5.561,-6.444 -10,-6.444 -6.0650004,0 -11.0000004,4.935 -11.0000004,11 0,4.439 2.649,8.264 6.4440004,10 -3.7950004,1.736 -6.4440004,5.561 -6.4440004,10 v 6 h 2 v -6 c 0,-4.963 4.0370004,-9 9.0000004,-9 4.963,0 9,4.037 9,9 v 6 h 2 v -6 c 0,-4.963 4.037,-9 9,-9 4.963,0 9,4.037 9,9 v 6 h 2 v -6 c 0,-4.963 4.037,-9 9,-9 4.963,0 9,4.037 9,9 v 6 h 2 v -6 c 0,-4.963 4.037,-9 9,-9 4.963,0 9,4.037 9,9 v 6 h 2 v -6 c 0,-4.963 4.037,-9 9,-9 4.963003,0 9.000003,4.037 9.000003,9 v 6 h 2 v -6 c 0,-4.439 -2.649,-8.264 -6.444,-10 3.796,-1.736 6.444,-5.561 6.444,-10 0,-3.72 -1.861,-7.008 -4.695,-9 h 1.695 10 c 0.553,0 1,-0.448 1,-1 V 79.129695 h 7 c 0.553,0 1,-0.448 1,-1 v -14 c 0,-4.962 -4.037,-9 -9,-9 z m -19.000003,-9 c 0,-4.962 4.037,-9 9.000003,-9 4.963,0 9,4.038 9,9 0,4.962 -4.037,9 -9,9 -4.963003,0 -9.000003,-4.038 -9.000003,-9 z m -88.0000004,-20 c 0,-1.654 1.346,-3 3,-3 H 81.700547 c 1.654,0 3,1.346 3,3 0,1.654 -1.346,3 -3,3 H 9.7005466 c -1.654,0 -3,-1.346 -3,-3 z m 78.0000004,64 c 0,1.654 -1.346,3 -3,3 H 9.7005466 c -1.654,0 -3,-1.346 -3,-3 0,-1.654 1.346,-3 3,-3 H 81.700547 c 1.654,0 3,1.346 3,3 z m -4,-5 h -70 v -54 h 70 v 20.586 l -8.293,-8.293 c -0.391,-0.391 -1.023,-0.391 -1.414,0 l -6,6 c -0.391,0.391 -0.391,1.023 0,1.414 l 14,14 c 0.187,0.188 0.441,0.293 0.707,0.293 h 1 z m -5,19.999995 c 4.963,0 9,4.038 9,9 0,4.963 -4.037,9 -9,9 -4.963,0 -9,-4.037 -9,-9 0,-4.962 4.037,-9 9,-9 z m -20,0 c 4.963,0 9,4.038 9,9 0,4.963 -4.037,9 -9,9 -4.963,0 -9,-4.037 -9,-9 0,-4.962 4.037,-9 9,-9 z m -20,0 c 4.963,0 9,4.038 9,9 0,4.963 -4.037,9 -9,9 -4.963,0 -9,-4.037 -9,-9 0,-4.962 4.037,-9 9,-9 z m -29.0000004,9 c 0,-4.962 4.0370004,-9 9.0000004,-9 4.963,0 9,4.038 9,9 0,4.963 -4.037,9 -9,9 -4.963,0 -9.0000004,-4.037 -9.0000004,-9 z m 19.0000004,15.444 c -1.1,-2.405 -3.039,-4.344 -5.444,-5.444 2.405,-1.1 4.344,-3.039 5.444,-5.444 1.1,2.405 3.039,4.344 5.444,5.444 -2.405,1.1 -4.344,3.039 -5.444,5.444 z m 20,0 c -1.1,-2.405 -3.039,-4.344 -5.444,-5.444 2.405,-1.1 4.344,-3.039 5.444,-5.444 1.1,2.405 3.039,4.344 5.444,5.444 -2.405,1.1 -4.344,3.039 -5.444,5.444 z m 20,0 c -1.1,-2.405 -3.039,-4.344 -5.444,-5.444 2.405,-1.1 4.344,-3.039 5.444,-5.444 1.1,2.405 3.039,4.344 5.444,5.444 -2.405,1.1 -4.344,3.039 -5.444,5.444 z m 20,0 c -1.1,-2.405 -3.039,-4.344 -5.444,-5.444 2.405,-1.1 4.344,-3.039 5.444,-5.444 1.1,2.405 3.039,4.344 5.444,5.444 -2.405,1.1 -4.344,3.039 -5.444,5.444 z m 19.000003,-15.444 c 0,4.963 -4.037,9 -9.000003,9 -4.963,0 -9,-4.037 -9,-9 0,-4.962 4.037,-9 9,-9 4.963003,0 9.000003,4.038 9.000003,9 z m 16,-36.999995 h -6 v -13 h -2 v 38.999995 h -8 V 80.129695 h -2 V 103.12969 H 94.700547 V 64.129695 c 0,-0.552 -0.447,-1 -1,-1 h -13.586 l -13,-13 4.586,-4.586 11.293,11.293 c 0.187,0.188 0.441,0.293 0.707,0.293 h 30.000003 c 3.859,0 7,3.14 7,7 z"
     id="path122"
     style="fill:#ff5733;fill-opacity:1" /><path
     d="m 41.700547,67.129695 c 0.553,0 1,-0.448 1,-1 v -10 c 0,-0.552 -0.447,-1 -1,-1 h -11 v -6 h 11 c 0.553,0 1,-0.448 1,-1 v -10 c 0,-0.552 -0.447,-1 -1,-1 h -24 c -0.553,0 -1,0.448 -1,1 v 10 c 0,0.552 0.447,1 1,1 h 11 v 6 h -11 c -0.553,0 -1,0.448 -1,1 v 10 c 0,0.552 0.447,1 1,1 8.756077,-0.02114 8.726517,0 24,0 z m -23,-28 h 22 v 8 h -22 z m 0,18 h 22 v 8 h -22 z"
     id="path124"
     sodipodi:nodetypes="csssccssssssssccssscccccccccccc"
     style="fill:#ff5733;fill-opacity:1" /><rect
     x="47.700546"
     y="37.129696"
     width="2"
     height="2"
     id="rect126"
     style="fill:#ff5733;fill-opacity:1" /><rect
     x="47.700546"
     y="45.129696"
     width="2"
     height="2"
     id="rect128"
     style="fill:#ff5733;fill-opacity:1" /><rect
     x="55.700546"
     y="45.129696"
     width="2"
     height="2"
     id="rect130"
     style="fill:#ff5733;fill-opacity:1" /><rect
     x="47.700546"
     y="53.129696"
     width="2"
     height="2"
     id="rect132"
     style="fill:#ff5733;fill-opacity:1" /><rect
     x="55.700546"
     y="37.129696"
     width="2"
     height="2"
     id="rect134"
     style="fill:#ff5733;fill-opacity:1" /><rect
     x="63.700546"
     y="37.129696"
     width="2"
     height="2"
     id="rect136"
     style="fill:#ff5733;fill-opacity:1" /><rect
     x="55.837307"
     y="53.139301"
     width="2"
     height="2"
     id="rect132-3"
     style="fill:#ff5733;fill-opacity:1" /></svg>
