<?xml version="1.0" encoding="UTF-8" standalone="no"?>
<svg
   xmlns:dc="http://purl.org/dc/elements/1.1/"
   xmlns:cc="http://creativecommons.org/ns#"
   xmlns:rdf="http://www.w3.org/1999/02/22-rdf-syntax-ns#"
   xmlns:svg="http://www.w3.org/2000/svg"
   xmlns="http://www.w3.org/2000/svg"
   xmlns:sodipodi="http://sodipodi.sourceforge.net/DTD/sodipodi-0.dtd"
   xmlns:inkscape="http://www.inkscape.org/namespaces/inkscape"
   version="1.1"
   id="svg2"
   width="525"
   height="525"
   viewBox="0 0 525 525"
   sodipodi:docname="technical.png.svg"
   inkscape:version="1.0.2 (e86c870879, 2021-01-15)">
  <metadata
     id="metadata8">
    <rdf:RDF>
      <cc:Work
         rdf:about="">
        <dc:format>image/svg+xml</dc:format>
        <dc:type
           rdf:resource="http://purl.org/dc/dcmitype/StillImage" />
        <dc:title></dc:title>
      </cc:Work>
    </rdf:RDF>
  </metadata>
  <defs
     id="defs6" />
  <sodipodi:namedview
     pagecolor="#ffffff"
     bordercolor="#666666"
     borderopacity="1"
     objecttolerance="10"
     gridtolerance="10"
     guidetolerance="10"
     inkscape:pageopacity="0"
     inkscape:pageshadow="2"
     inkscape:window-width="1360"
     inkscape:window-height="697"
     id="namedview4"
     showgrid="false"
     inkscape:zoom="0.72596296"
     inkscape:cx="231.07399"
     inkscape:cy="249.47746"
     inkscape:window-x="0"
     inkscape:window-y="0"
     inkscape:window-maximized="1"
     inkscape:current-layer="g10" />
  <g
     inkscape:groupmode="layer"
     inkscape:label="Image"
     id="g10">
    <path
       style="fill:#000000"
       d="m 273.81843,499.82894 c -0.0263,-0.4125 -0.0704,-6.45665 -0.0979,-13.43143 l -0.05,-12.68144 3.85,-0.0686 c 3.72027,-0.0663 3.85,-0.1865 3.85,-3.56857 v -3.5 l -9.5,-0.29317 c -12.82535,-0.3958 -13.80669,-0.0813 -14.18987,4.54713 -0.25133,3.03583 -0.66738,3.68448 -2.19448,3.42135 -4.43831,-0.76476 -6.75438,0.71611 -6.42645,4.109 0.29197,3.02085 0.55317,3.21948 4.3108,3.27817 l 4,0.0625 0.28753,9.18753 0.28752,9.18752 h -30.03752 -30.03753 v -5 -5 h 8.5 8.5 v -4 c 0,-4 0,-4 4,-4 4,0 4,0 4,-4 0,-4 0,-4 -4,-4 h -4 v -8 -8 h -4 c -3.98278,0 -4,0.0168 -4,3.89931 0,3.8993 0,3.8993 -4.5,4.2572 -4.5,0.3579 -4.5,0.3579 -4.61842,-3.1493 -0.0651,-1.92897 -0.0651,-3.84471 0,-4.25721 0.0652,-0.41249 -1.68155,-0.74999 -3.88155,-0.74999 -3.84301,0 -4.0006,-0.12755 -4.01531,-3.25 -0.0213,-4.52691 -1.20647,-5.96668 -4.5932,-5.58008 l -2.89149,0.33008 v 12 12 l 4.28807,0.30936 4.28806,0.30936 -0.28806,8.62833 -0.28807,8.62834 -4,0.0623 c -3.9785,0.062 -4.00035,0.0838 -4.06467,4.06231 -0.0647,4 -0.0647,4 -4.93533,4 -4.87065,0 -4.87065,0 -4.93533,-4 -0.0631,-3.90285 -0.14967,-3.99872 -3.56467,-3.94718 -4.29057,0.0648 -4.66104,-0.41841 -4.18094,-5.45272 0.36132,-3.78875 0.56584,-4.00672 4.03079,-4.29569 3.44695,-0.28746 3.65015,-0.49925 3.65015,-3.80441 0,-3.33333 -0.19048,-3.52381 -4,-4 -3.80952,-0.47619 -4,-0.66667 -4,-4 0,-3.33333 -0.16667,-3.5 -3.5,-3.5 h -3.5 l -0.12313,8 -0.12312,8 -3.87688,0.5 c -3.50231,0.45169 -3.90671,0.80816 -4.18573,3.68963 -0.29921,3.09006 -0.17719,3.19931 3.90893,3.5 4.21779,0.31037 4.21779,0.31037 4.21271,4.81037 l -0.005,4.5 H 144.2745 131.37065 l -0.3075,-4.25 c -0.2979,-4.11741 -0.4149,-4.25 -3.75,-4.25 -3.41947,0 -3.4425,0.0305 -3.4425,4.55479 v 4.55479 l -4.75,-0.30479 -4.75,-0.30479 0.10449,-4.5 c 0.10344,-4.45455 0.14381,-4.50505 3.99733,-5 3.5468,-0.45556 3.89306,-0.76666 3.8955,-3.5 l 0.003,-3 -16.80379,-0.27442 -16.803801,-0.27443 0.3038,-4.72557 c 0.30338,-4.72558 0.30338,-4.72558 4.30338,-4.72558 h 4 l 0.19194,-7.5 c 0.10557,-4.125 0.21807,-8.01968 0.25,-8.65484 0.0385,-0.76562 1.40623,-0.97402 4.058061,-0.61833 l 4,0.53651 v -8.13167 -8.13167 h -3.5 c -3.401601,0 -3.500001,0.10962 -3.500001,3.89931 0,3.8993 0,3.8993 -4.62086,4.26681 -5.53727,0.4404 -5.5531,0.41056 -5.17411,-9.75451 l 0.29497,-7.91161 h 4 c 3.98962,0 4.00016,-0.0104 4.06231,-4 l 0.0623,-4 12.437691,-0.5 12.43769,-0.5 0.29636,-4.022 c 0.29635,-4.02201 0.29635,-4.02201 4.18766,-3.65091 3.8913,0.37109 3.8913,0.37109 4.20364,-3.91834 0.31122,-4.2741 0.32664,-4.28964 4.31234,-4.34909 3.6517,-0.0545 4.02874,-0.31144 4.33008,-2.95115 0.3866,-3.38673 -1.05317,-4.57187 -5.58008,-4.5932 -3.12245,-0.0147 -3.25,-0.1723 -3.25,-4.01531 0,-3.89586 -0.0901,-4 -3.45956,-4 h -3.45956 l -0.29044,8.12429 -0.29044,8.12428 -8,0.12572 -8,0.12571 -0.0647,3.99877 c -0.0727,4.4902 0.27768,4.32357 -9.935301,4.72564 l -7,0.27559 -0.30697,3.69303 c -0.28841,3.46983 -0.53016,3.71158 -4,4 -3.58147,0.2977 -3.70239,0.43694 -4.00308,4.60931 l -0.31006,4.30234 -4.55402,-0.30234 c -4.55402,-0.30234 -4.55402,-0.30234 -4.75491,-4.54272 -0.25089,-5.29594 0.10566,-5.75962 4.42904,-5.75962 3.22222,0 3.5,-0.2381 3.5,-3 0,-3 0,-3 -7.5,-3 h -7.5 l -0.5,4 -0.5,4 h -21 c -11.55,0 -21.225,-0.29087 -21.5,-0.64637 -0.275,-0.35551 -0.35323,-4.29301 -0.17385,-8.75 l 0.32615,-8.10363 h 4.86348 c 4.86349,0 4.86349,0 5.17386,3.75 0.28335,3.42358 0.59326,3.77728 3.56036,4.06336 l 3.25,0.31336 V 403.1423 391.07894 h -3.57647 c -3.57324,0 -3.5762,0.004 -3.27803,4.13333 l 0.29844,4.13334 h -5.22197 c -2.87208,0 -5.22197,-0.285 -5.22197,-0.63334 0,-0.34833 0,-2.43333 0,-4.63333 0,-4 0,-4 4.5,-4 h 4.5 v -8.5 -8.5 h 4 c 2.2,0 4.3152,0.006 4.70044,0.0123 0.38524,0.007 0.57626,2.03178 0.42447,4.5 l -0.27597,4.4877 h 4.07553 c 4.07553,0 4.07553,0 4.07553,4 0,4 0,4 4,4 h 4 v -12 -12 h -16.94285 -16.94284 l -0.30716,-12.51817 c -0.16893,-6.885 -0.19481,-12.8475 -0.0575,-13.25 0.13731,-0.40251 4.38124,-0.65597 9.43096,-0.56325 l 9.1813,0.16858 0.069,3.83142 c 0.0667,3.69895 0.19006,3.83142 3.56904,3.83142 h 3.5 v -7.5 -7.5 l -4.25,-0.3075 -4.25,-0.3075 v -8.40206 -8.40206 l 8.25,-0.29044 8.25,-0.29044 0.28728,-8.63679 0.28728,-8.63678 3.71272,0.13678 c 3.6025,0.13273 3.71272,0.0329 3.71272,-3.36321 0,-3.39351 -0.11252,-3.49587 -3.69808,-3.36428 -3.64465,0.13376 -3.70245,0.076 -4,-4 -0.29631,-4.05885 -0.37163,-4.13572 -4.05257,-4.13572 -2.06286,0 -3.78913,-0.45 -3.83615,-1 -0.047,-0.55 -0.15922,-2.575 -0.24934,-4.5 -0.1579,-3.37266 -0.31849,-3.51119 -4.41386,-3.8075 l -4.25,-0.3075 v -7.9425 -7.9425 h -8.41667 c -4.67706,0 -8.56476,-0.4409 -8.75,-0.99232 -0.18333,-0.54577 -0.20551,-12.02077 -0.0493,-25.5 l 0.28404,-24.50768 h 4.96596 4.96596 v 8 8 h 3.5 c 3.41667,0 3.5,-0.0952 3.5,-4 0,-4 0,-4 4.5,-4 4.5,0 4.5,0 4.5,-4 0,-4 0,-4 -4.5,-4 h -4.5 v -4.45956 -4.45956 l 8.25,-0.29044 8.25,-0.29044 0.31336,-3.25 0.31336,-3.25 h -12.56336 -12.56336 v -4.5 -4.5 h -4.39496 c -4.39497,0 -4.39497,0 -4.78138,-4.05195 -0.47359,-4.96607 -0.49123,-4.94805 4.84301,-4.94805 4.28571,0 4.33333,-0.0385 4.33333,-3.5 0,-3.48148 -0.0238,-3.5 -4.5,-3.5 h -4.5 v -13.25721 -13.2572 l 4.5,0.3579 4.5,0.3579 v -4.1007 c 0,-4.10069 0,-4.10069 -4.5,-4.10069 h -4.5 v -4.75 -4.75 h 12.91919 12.91919 l 0.34392,4.32427 c 0.42429,5.33464 0.17294,5.67573 -4.1823,5.67573 h -3.5 l -0.29044,8.25 -0.29044,8.25 h -3.79289 c -3.66807,0 -3.7929,0.11519 -3.7929,3.5 v 3.5 h 7.90996 7.90995 l -0.17794,-3.25 c -0.28027,-5.11928 -0.1863,-5.25 3.77405,-5.25 h 3.75065 l 0.12829,-8 0.12828,-8 h 4.87172 c 4.22025,0 4.82829,0.25198 4.54702,1.88435 -0.97342,5.64931 0.3836,6.7224 8.10459,6.40886 l 7.2201,-0.29321 v -3.49778 c 0,-3.38679 -0.11899,-3.49571 -3.75,-3.43265 -2.0625,0.0358 -3.7875,-0.30268 -3.83333,-0.75222 -0.10804,-1.05967 -0.10804,-7.51665 0,-8.83161 0.0458,-0.55785 1.32083,-0.79754 2.83333,-0.53264 3.82763,0.67035 5.47032,-0.64302 5.08008,-4.06161 l -0.33008,-2.89149 -12.5,-0.27725 -12.5,-0.27724 0.11181,-4.22276 0.11182,-4.22275 12.38818,-0.5 12.38819,-0.5 0.30886,-3.18963 c 0.2987,-3.084814 0.17172,-3.199824 -3.86452,-3.500004 -4.13561,-0.30756 -4.17514,-0.34765 -4.36793,-4.42927 -0.10701,-2.2654 0.1379,-4.9654 0.54423,-6 0.40634,-1.03461 0.77042,-1.3186 0.80908,-0.6311 0.05,0.88941 2.36635,1.25 8.02984,1.25 h 7.95956 l 0.29044,8.25 0.29044,8.250004 4,0.0647 c 4,0.0647 4,0.0647 4,4.99647 v 4.93179 l -3.71253,-0.31986 c -3.91994,-0.33772 -5.41952,1.757 -4.61216,6.44258 0.26962,1.56473 -0.39619,1.93651 -3.92531,2.19185 -4.10241,0.29682 -4.25,0.42504 -4.25,3.6925 0,3.26746 0.14759,3.39568 4.25,3.6925 4.18023,0.30245 4.24443,0.36308 3.91041,3.69311 -0.39252,3.9133 0.88302,5.0769 5.58959,5.09908 3.12245,0.0147 3.25,0.1723 3.25,4.01531 0,3.90476 0.0833,4 3.500001,4 h 3.5 v -8.08599 -8.08599 l -4.23823,0.33599 -4.238241,0.33599 0.16798,-4.5 c 0.0924,-2.475 0.19959,-4.79483 0.23823,-5.15517 0.0952,-0.88751 7.807911,-0.44051 8.755871,0.50745 0.41525,0.41525 0.61885,2.33523 0.45245,4.26663 -0.30186,3.50373 -0.29393,3.51092 3.5297,3.19636 l 3.83224,-0.3153 v -7.5 -7.5 l -3.5,-0.16385 c -1.925,-0.0901 -3.95324,-0.20262 -4.50721,-0.25 -0.57255,-0.049 -0.85275,-2.02807 -0.6493,-4.58615 l 0.3579,-4.5 h 24.8993 24.89931 v -8.442504 -8.44251 l 4.25,-0.30749 c 3.98722,-0.28849 4.25,-0.49299 4.25,-3.3075 0,-2.80816 -0.26827,-3.0195 -4.19518,-3.30482 -4.15577,-0.30196 -4.19805,-0.34423 -4.5,-4.5 -0.28533,-3.92691 -0.49666,-4.19518 -3.30482,-4.19518 -3,0 -3,0 -3.5,8.4841 l -0.5,8.48411 -8.5,-0.16108 -8.5,-0.16107 -0.5,-3.82303 c -0.45239,-3.45899 -0.80947,-3.85287 -3.75,-4.13639 l -3.25,-0.31336 v 8.61815 8.61815 l -4.62644,-0.30479 -4.62644,-0.30479 -0.12356,-8 -0.12356,-8 -3.73814,-0.0715 c -4.99786,-0.0956 -5.10264,-0.28512 -4.8545,-8.78324 0.20295,-6.95087 0.0811,-7.41589 -2.09594,-7.99894 -4.588841,-1.22898 -4.721151,-1.01797 -5.022491,8.00987 l -0.28893,8.65621 -4.5,-1.7e-4 -4.5,-1.7e-4 -0.28674,-9.09675 -0.28674,-9.09676 4.28674,-0.30929 4.28674,-0.30929 v -7.5 -7.5 l -4,-0.0601 c -4,-0.06 -4,-0.06 -4.30479,-4.75 l -0.30479,-4.68995 h 4.55479 c 4.53881,0 4.55479,-0.0123 4.55479,-3.5 0,-3.48148 -0.0238,-3.5 -4.5,-3.5 h -4.5 v -5 -5 h 5 5 v 4.5 4.5 h 8.000001 8 v 4 4 h 8 8 v -3.5 c 0,-1.925 -0.3375,-3.44671 -0.75,-3.38158 -0.4125,0.0651 -2.325,0.0651 -4.25,0 -3.5,-0.11842 -3.5,-0.11842 -3.5,-5.11842 v -5 h 9.00721 9.0072 l -0.3579,4.5 -0.3579,4.5 h 4.20139 4.20139 l -0.3579,-4.5 -0.3579,-4.5 h 9.2572 9.25721 v 4.5 c 0,4.5 0,4.5 4,4.5 h 4 v 8.33333 c 0,4.58333 -0.19327,8.5266 -0.42948,8.76282 -0.23622,0.23621 -2.37372,0.27594 -4.75,0.0883 l -4.32052,-0.34119 0.32615,-7.92163 c 0.32614,-7.92163 0.32614,-7.92163 -2.5,-7.90632 -5.3808,0.0291 -5.39234,0.0768 -5.09836,21.05743 l 0.27221,19.42726 3.5,0.16385 c 1.925,0.0901 3.95,0.20233 4.5,0.24935 0.55,0.047 1,1.77328 1,3.83614 0,3.50073 0.19991,3.75066 3,3.75066 2.80009,0 3,-0.24993 3,-3.75066 0,-2.06286 0.3375,-3.78497 0.75,-3.82692 0.4125,-0.0419 2.63227,-0.11088 4.93283,-0.15319 4.18283,-0.0769 4.18283,-0.0769 4.25,3.82692 0.0651,3.78208 0.17634,3.90385 3.56717,3.90385 3.37074,0 3.51095,-0.14855 3.79636,-4.02201 0.29594,-4.01631 0.30177,-4.02149 4.12097,-3.65727 3.82462,0.36474 3.82462,0.36474 3.70164,-3.47799 -0.11845,-3.70117 -0.25185,-3.84273 -3.62098,-3.84273 -4.35294,0 -4.60436,-0.34129 -4.18114,-5.67573 0.33728,-4.2512 0.4051,-4.32427 4.01311,-4.32427 3.55823,0 3.67465,-0.11611 3.82137,-3.81093 l 0.15133,-3.81093 -8.15133,0.21547 c -4.48323,0.11851 -8.03883,-0.0791 -7.90133,-0.43907 0.1375,-0.36 0.25,-2.45454 0.25,-4.65454 0,-4 0,-4 4.06183,-4 h 4.06184 l -0.20598,-8.56452 -0.20598,-8.56451 h 13.34931 13.34931 l -0.28069,4.56451 -0.2807,4.56452 h 4.07553 c 4.07553,0 4.07553,0 4.07553,4 0,4 0,4 4,4 4,0 4,0 4,-4 v -4 h 8.60069 8.6007 l -0.3579,-4.5 -0.3579,-4.5 h 13.01441 13.01441 l -0.3579,4.5 -0.3579,4.5 h 8.1007 8.10069 v -4.5 -4.5 h 5 5 v 5 5 h -4.5 c -4.47619,0 -4.5,0.0185 -4.5,3.5 v 3.5 h 8.5 8.5 v 8 c 0,4.4 0.1125,8.3375 0.25,8.75 0.1375,0.4125 -1.64924,0.88772 -3.97054,1.05606 l -4.22054,0.30605 -0.27946,12.59918 -0.27946,12.59917 -4.5,0.001 -4.5,0.001 -0.29044,-8.15641 -0.29044,-8.15645 h -3.48496 -3.48495 l 0.2754,15.68542 0.27539,15.68543 3.25,0.37012 c 3.24522,0.36958 3.25,0.36343 3.25,-4.18542 v -4.55555 h 5 5 v 4.9425 4.9425 l -4.25,0.3075 c -4.13191,0.29896 -4.25,0.40475 -4.25,3.807504 0,3.33333 -0.19048,3.52381 -4,4 -3.80952,0.47619 -4,0.66667 -4,4 v 3.5 h 11.5 11.5 l 0.15768,-12.5 0.15769,-12.500004 8.34231,-0.5 8.34232,-0.5 0.27509,-15.69128 0.2751,-15.69127 -4.04274,-0.30873 c -2.22351,-0.1698 -4.03481,-0.64622 -4.0251,-1.05872 0.01,-0.4125 0.0177,-4.35 0.0177,-8.75 v -8 h 4.07347 4.07348 l -0.32348,-8.50234 -0.32347,-8.50233 13.25,0.002 13.25,0.002 v 4.5 c 0,4.46256 0.0287,4.5 3.44521,4.5 3.37325,0 3.45157,-0.0943 3.75,-4.51513 0.16763,-2.48332 0.64229,-4.50832 1.05479,-4.5 0.4125,0.008 4.35,0.0151 8.75,0.0151 h 8 v 4.5 c 0,4.5 0,4.5 4,4.5 4,0 4,0 4,4 0,4 0,4 4,4 h 4 v -8.45336 -8.45335 l 16.60029,-0.29665 c 9.13015,-0.16315 16.89265,-0.0716 17.25,0.20336 0.35734,0.275 0.42471,10.175 0.14971,22 l -0.5,21.5 h -3.5 -3.5 v 7.5 c 0,7.5 0,7.5 3,7.5 2.80009,0 3,-0.24993 3,-3.75066 0,-2.06286 0.3375,-3.78497 0.75,-3.82692 8.28354,-0.84235 9.23903,-0.40633 9.55234,4.35901 l 0.30234,4.59846 -4.30234,0.31005 c -4.04764,0.2917 -4.32089,0.50246 -4.6157,3.56006 -0.31164,3.23217 -0.28864,3.25 4.1925,3.25 4.50586,0 4.50586,0 4.81336,4.25 0.29896,4.1319 0.40475,4.25 3.8075,4.25 3.33333,0 3.52381,0.19047 4,4.000004 0.47619,3.80952 0.66667,4 4,4 h 3.5 l 0.15936,-7.500004 c 0.0876,-4.125 0.20015,-7.98026 0.25,-8.56723 0.0571,-0.67217 1.66389,-0.85725 4.34064,-0.5 l 4.25,0.56723 v 8.93532 8.935334 l -4,0.0647 c -3.96068,0.064 -4.00066,0.10304 -4.06717,3.96852 -0.0672,3.90384 -0.0672,3.90384 -4.25,3.82692 -2.30056,-0.0423 -4.52033,-0.11124 -4.93283,-0.15319 -0.4125,-0.0419 -0.75,-1.76406 -0.75,-3.82692 0,-3.50057 -0.21671,-3.77155 -3.25,-4.06402 l -3.25,-0.31336 v 7.49597 c 0,9.05339 -0.24818,8.90554 14.28538,8.50995 l 10.21462,-0.27804 0.5,8.44942 c 0.5,8.44942 0.5,8.44942 3.71019,8.75981 l 3.21018,0.31039 0.28982,-8.81039 0.28981,-8.81041 h 4 4 v -7.5 -7.5 l -4.30234,-0.31006 -4.30234,-0.31005 0.30234,-4.68995 c 0.27178,-4.215854 0.55506,-4.702444 2.80234,-4.813584 6.39755,-0.31639 6.17542,-0.15912 5.8282,-4.12636 -0.3282,-3.75 -0.3282,-3.75 4.4218,-4.05479 l 4.75,-0.30479 v 16.554794 c 0,9.10513 0.007,16.89229 0.0151,17.30479 0.008,0.4125 -2.01668,0.88716 -4.5,1.05479 l -4.5151,0.30479 0.0153,6.69521 c 0.0183,8.00833 0.75864,9.46302 4.5932,9.02529 2.63971,-0.30134 2.89668,-0.67838 2.95115,-4.33008 0.0591,-3.96158 0.0994,-4.00293 4.19518,-4.30482 4.08302,-0.30095 4.13939,-0.35789 4.44034,-4.48567 0.30483,-4.18085 0.30483,-4.18085 4.80483,-4.17595 l 4.5,0.005 v 13.4161 13.41609 l -4,0.0647 c -3.903,0.0631 -4.01213,0.16167 -4.5,4.06467 -0.47619,3.80952 -0.66667,4 -4,4 -3.40275,0 -3.50854,0.11809 -3.8075,4.25 -0.3075,4.25 -0.3075,4.25 -4.81336,4.25 -4.48114,0 -4.50414,0.0178 -4.1925,3.25 0.31336,3.25 0.31336,3.25 8.68886,3.75 l 8.3755,0.5 0.1245,8 0.1245,8 4.25,0.3075 4.25,0.3075 v 12.9425 12.9425 h -4.56354 -4.56354 l 0.21808,8.25 0.21808,8.25 h -4.80908 -4.80908 l 0.21808,-8.25 c 0.21808,-8.25 0.21808,-8.25 -2.59546,-8.23469 -4.27106,0.0232 -5.63739,1.3248 -5.11649,4.8739 0.45656,3.11067 0.45656,3.11067 -4.37024,3.11067 h -4.82681 v -4.5 -4.5 h 4.5 c 4.5,0 4.5,0 4.5,-4 v -4 h -8 -8 v 4.5 4.5 h -4.54206 -4.54207 l 0.29207,7.75 0.29206,7.75 4,0.0597 c 3.97038,0.0592 4.00228,0.0907 4.3075,4.25 0.29607,4.03462 0.43329,4.19034 3.6925,4.19034 3.2522,0 3.39707,-0.16246 3.6925,-4.14094 0.30665,-4.12943 0.31918,-4.14124 4.51299,-4.25 4.20549,-0.10906 4.20549,-0.10906 4.5,3.89094 0.29005,3.93943 0.35508,4.0009 4.29451,4.0597 3.9798,0.0594 4.00253,0.0821 4.5,4.5 0.49194,4.36874 0.56446,4.44502 4.5,4.73318 l 4,0.29289 -0.32615,7.95711 -0.32614,7.95712 h 4.63093 4.63094 l -0.30479,4.62644 -0.30479,4.62644 -8,0.12356 -8,0.12356 -0.13055,7.79722 c -0.14996,8.95635 -0.28944,9.20278 -5.20889,9.20278 -3.51683,0 -3.66056,0.13743 -3.66056,3.5 0,3.36306 0.14626,3.5028 3.73814,3.57147 4.56359,0.0873 5.12669,0.59623 5.20238,4.70239 l 0.0595,3.2261 8.3031,0.2913 8.30311,0.2913 -0.30311,4.55198 -0.3031,4.55198 -12.5,0.15672 -12.5,0.15672 v 12 12 l 12.5,0.1615 12.5,0.16149 v 4.77383 c 0,4.77383 0,4.77383 -4,4.83851 -3.76617,0.0609 -4.01832,0.25466 -4.31336,3.31467 -0.31217,3.23765 -0.29601,3.25 4.25,3.25 h 4.56334 v 13 13 h -4.5 c -4.5,0 -4.5,0 -4.5,4 0,4 0,4 4.5,4 h 4.5 v 4.5 4.5 l -9.25,0.002 -9.25,0.002 0.32347,-8.50234 0.32348,-8.50166 h -4.14695 -4.14695 l 0.32348,8.50233 0.32347,8.50234 -4.75,-0.002 -4.75,-0.003 v -8.5 -8.5 h -3.5 c -3.48148,0 -3.5,0.0238 -3.5,4.5 0,4.78378 -0.18626,4.90658 -7.33969,4.83924 -1.53061,-0.0144 -1.77854,0.62377 -1.47578,3.79857 l 0.36391,3.81588 -16.52422,0.27315 -16.52422,0.27316 v 3.5 3.5 l 11.5,0.20591 c 6.325,0.11326 11.95,0.2247 12.5,0.24765 0.60828,0.0254 0.87224,3.17638 0.67385,8.04409 l -0.32614,8.00235 h 8.07614 8.07615 l -1.6e-4,-8.25 -1.6e-4,-8.25 12.75016,0.18152 12.75016,0.18151 0.31234,4.16758 c 0.31234,4.16757 0.31234,4.16757 4.20364,3.79648 3.89131,-0.3711 3.89131,-0.3711 4.18766,3.65091 0.29245,3.96891 0.35295,4.02608 4.5831,4.33129 l 4.28674,0.3093 -0.28674,9.12823 -0.28674,9.12823 -4,0.0625 -4,0.0625 -0.30908,5.44655 c -0.48855,8.60938 0.14219,9.95585 4.56173,9.73809 3.74735,-0.18469 3.74735,-0.18469 3.74735,4.79608 v 4.98077 l -4.5,0.005 c -4.5,0.005 -4.5,0.005 -4.8075,-4.23077 -0.29912,-4.12033 -0.40341,-4.23577 -3.82662,-4.23577 -3.36424,0 -3.50674,0.14367 -3.23787,3.2644 0.37893,4.39823 -0.69789,5.83931 -3.93918,5.27173 -3.76831,-0.65988 -5.4073,0.67001 -5.01891,4.07238 l 0.33008,2.89149 12.5,0.1032 12.5,0.10321 0.3031,4.60549 0.30311,4.6055 -8.30311,0.2913 -8.3031,0.2913 -0.29044,8.25 -0.29044,8.25 h -8.95956 -8.95956 v -8.5 -8.5 h -3.45956 -3.45956 l -0.29044,8.25 -0.29044,8.25 H 445.46664 432.5628 l -0.005,-4.5 c -0.005,-4.5 -0.005,-4.5 4.22808,-4.81112 l 4.23316,-0.31113 -0.32423,-7.94122 c -0.17833,-4.36768 0.0133,-7.97479 0.42577,-8.0158 0.4125,-0.041 2.63227,-0.10919 4.93283,-0.1515 4.18283,-0.0769 4.18283,-0.0769 4.25,3.82692 0.0651,3.78208 0.17634,3.90385 3.56717,3.90385 3.41667,0 3.5,-0.0952 3.5,-4 0,-4 0,-4 4.31588,-3.65757 4.31587,0.34244 4.31587,0.34244 4,-3.5 l -0.31597,-3.84243 -13.5,-0.28799 c -18.858,-0.40228 -17.85903,-0.89518 -18.2097,8.98481 l -0.2903,8.17895 -4,0.0621 c -3.72752,0.0579 -4.01077,0.26648 -4.15811,3.06212 -0.087,1.65 -0.19946,3.54904 -0.25,4.2201 -0.058,0.7698 -1.47588,1.13887 -3.84189,1 -3.73544,-0.21925 -3.75025,-0.20457 -3.81467,3.7799 l -0.0647,4 h -8.93532 -8.93533 l -0.28833,-8.70894 -0.28834,-8.70894 8.28834,-0.29106 8.28835,-0.29105 v -7.5 -7.5 h -3.5 c -3.33333,0 -3.52381,-0.19048 -4,-4 -0.47619,-3.80952 -0.66667,-4 -4,-4 -3.37074,0 -3.51095,0.14854 -3.79636,4.022 -0.29635,4.02201 -0.29635,4.02201 -4.31948,3.63834 -2.97621,-0.28382 -3.97421,-0.0293 -3.83516,0.978 0.10338,0.74891 0.1357,2.71166 0.0718,4.36166 l -0.11615,3 -8.50234,-0.32347 -8.50233,-0.32348 v 8.47278 8.47278 l -4.5,0.3579 -4.5,0.3579 v -4.29927 -4.29927 l -7.75,0.29207 -7.75,0.29206 -0.12829,8 -0.12828,8 h -4.80704 c -4.80704,0 -4.80704,0 -4.87172,-3.99423 -0.063,-3.89303 -0.15335,-3.9933 -3.56467,-3.9578 -3.39399,0.0353 -3.50182,0.1563 -3.56005,3.99423 -0.06,3.9578 -0.06,3.9578 -4.75,4.26259 l -4.68993,0.30479 v -8.05479 c 0,-4.43013 -0.1125,-8.39229 -0.25,-8.80479 -0.1375,-0.4125 1.6625,-0.88837 4,-1.0575 l 4.25,-0.3075 v -7.33551 c 0,-7.65423 -0.52612,-8.54949 -5.02429,-8.54949 -1.47417,0 -1.92459,0.88288 -2.16821,4.25 -0.19103,2.64019 -0.78097,4.21212 -1.5575,4.15 -0.6875,-0.055 -4.7375,-0.16732 -9,-0.24961 l -7.75,-0.14961 0.16065,-7.95131 c 0.19532,-9.66742 0.41406,-10.06466 5.38428,-9.77772 4.17369,0.24095 4.26,0.35976 3.97977,5.47825 -0.17375,3.17355 -0.0802,3.25 3.9753,3.25 4.05553,0 4.14905,-0.0765 3.9753,-3.25 -0.3118,-5.6951 -0.21624,-5.83519 3.7747,-5.53349 3.67305,0.27767 3.75,0.21167 3.75,-3.21651 v -3.5 h -15.5 -15.5 l -0.30482,4.19518 c -0.30195,4.15577 -0.34423,4.19805 -4.5,4.5 l -4.19518,0.30482 v 7.5 7.5 l -4,0.5 c -3.80952,0.47619 -4,0.66667 -4,4 0,3.3192 0.20234,3.52583 3.91695,4 l 3.91694,0.5 -0.0865,8.5 -0.0865,8.5 -8.58256,0.5 c -4.7204,0.275 -8.60409,0.1625 -8.63042,-0.25 z m -92.12971,-13.56443 c 0.31441,-3.27527 0.27306,-3.31071 -3.5,-3 -3.51654,0.28959 -3.84329,0.57626 -4.13632,3.62886 -0.31441,3.27527 -0.27306,3.31071 3.5,3 3.51654,-0.28959 3.84329,-0.57626 4.13632,-3.62886 z m 49.9952,0.56443 c -0.28809,-2.98793 -0.59559,-3.25 -3.81336,-3.25 -3.21777,0 -3.52527,0.26207 -3.81336,3.25 -0.30779,3.19226 -0.24004,3.25 3.81336,3.25 4.0534,0 4.12115,-0.0577 3.81336,-3.25 z m 16.68664,-0.25 c 0,-2.7619 -0.27778,-3 -3.5,-3 -3.23201,0 -3.52436,0.25378 -3.81816,3.31443 -0.31441,3.27527 -0.27306,3.31071 3.5,3 3.50586,-0.28871 3.81816,-0.55981 3.81816,-3.31443 z m -109,-21 v -16 h -7.5 -7.5 l -0.5,8.5 -0.5,8.5 h -4 c -3.90476,0 -4,0.0833 -4,3.5 0,3.40672 0.1066,3.50159 4,3.55966 3.9768,0.0593 4.00179,0.0842 4.3095,4.29099 l 0.3095,4.23134 7.6905,-0.291 7.6905,-0.29099 z m 100,12.5 c 0,-3.22222 -0.2381,-3.5 -3,-3.5 -2.75462,0 -3.02572,0.3123 -3.31443,3.81816 -0.31071,3.77306 -0.27527,3.81441 3,3.5 3.06065,-0.2938 3.31443,-0.58615 3.31443,-3.81816 z m 109,0 c 0,-3.33333 -0.16667,-3.5 -3.5,-3.5 -2.90098,0 -3.55632,0.39753 -3.82908,2.32273 -0.56628,3.9969 0.52391,5.3331 4.0722,4.99114 2.9957,-0.2887 3.25688,-0.59455 3.25688,-3.81387 z m -117,-8 c 0,-3.0308 -0.33428,-3.51678 -2.49357,-3.62515 -3.87269,-0.19436 -5.00643,0.61306 -5.00643,3.56547 0,3.54376 0.78026,4.21793 4.46406,3.85707 2.74633,-0.26902 3.03594,-0.63127 3.03594,-3.79739 z m 17.30384,0.37765 c 0.34163,-3.51074 -0.97276,-4.45034 -5.11722,-3.65808 -2.13019,0.40722 -2.68662,1.07625 -2.68662,3.23034 0,3.53388 0.78232,4.20814 4.46406,3.84748 2.59078,-0.25378 3.08049,-0.75523 3.33978,-3.41974 z m 124.68272,1.6647 c 0.34173,-1.07671 0.52321,-4.67671 0.40329,-8 l -0.21805,-6.04235 h -3.8359 c -3.65787,0 -3.83661,-0.15083 -3.85121,-3.25 -0.0213,-4.52691 -1.20647,-5.96668 -4.5932,-5.58008 -2.89149,0.33008 -2.89149,0.33008 -3.17721,11.26581 -0.36922,14.13218 -0.69106,13.56427 7.68695,13.56427 6.03552,0 7.04683,-0.261 7.58533,-1.95765 z M 114.87056,461.57894 c 0,-3.41667 -0.0952,-3.5 -4,-3.5 -3.90476,0 -4,0.0833 -4,3.5 0,3.41667 0.0952,3.5 4,3.5 3.90476,0 4,-0.0833 4,-3.5 z m 41,0 c 0,-3.33333 -0.16667,-3.5 -3.5,-3.5 -3.33333,0 -3.5,0.16667 -3.5,3.5 0,3.33333 0.16667,3.5 3.5,3.5 3.33333,0 3.5,-0.16667 3.5,-3.5 z m 16.82615,-4.50235 c -0.19766,-4.84968 0.0678,-8.03536 0.67385,-8.08614 0.55,-0.0461 2.575,-0.15754 4.5,-0.24766 3.30212,-0.15459 3.5,-0.36173 3.5,-3.66385 0,-3.40741 -0.11905,-3.51323 -4.5,-4 -4.5,-0.5 -4.5,-0.5 -4.17864,-4.18902 0.31956,-3.66825 0.29805,-3.69076 -3.82163,-4 l -4.143,-0.31098 0.10285,-25.25 0.10285,-25.25 h -4.07342 -4.07341 l 0.13341,16.57546 c 0.0734,9.1165 -0.0201,16.72456 -0.2078,16.90681 -0.18767,0.18224 -2.14121,0.48578 -4.34121,0.67454 -4,0.34319 -4,0.34319 -4.5,-4.15681 -0.41749,-3.7574 -0.88038,-4.55392 -2.80504,-4.82676 -3.27326,-0.46402 -5.07577,1.43722 -4.87121,5.138 0.16627,3.00819 -0.0503,3.21707 -3.82375,3.68876 -3.79558,0.47445 -4.01586,0.69164 -4.31037,4.25 -0.30177,3.64624 -0.41937,3.75 -4.25,3.75 -3.93963,0 -3.93963,0 -3.93963,4.5 v 4.5 h -4.54206 -4.54207 l 0.29207,7.75 0.29206,7.75 h 3.5 c 3.40651,0 3.50163,-0.10685 3.56094,-4 l 0.0609,-4 8.43905,-0.5 c 8.43906,-0.5 8.43906,-0.5 8.59717,-3.5 0.087,-1.65 0.19946,-3.47108 0.25,-4.04685 0.0852,-0.97052 8.63063,-1.30273 9.46646,-0.36802 0.20404,0.22818 0.0907,2.43845 -0.25179,4.91172 -0.62119,4.48535 -0.63228,4.49604 -4.33531,4.17661 -3.27278,-0.28231 -3.78896,-0.0157 -4.35785,2.25091 -1.33268,5.30983 -0.49587,5.68865 12.30886,5.57216 6.46884,-0.0589 12.21152,-0.0832 12.76152,-0.0541 0.60769,0.0321 0.87205,3.19231 0.67385,8.05523 l -0.32609,8.00234 h 3.65229 3.65229 z m 67.17385,4.50235 c 0,-3.33333 -0.16667,-3.5 -3.5,-3.5 -3.33333,0 -3.5,0.16667 -3.5,3.5 0,3.33333 0.16667,3.5 3.5,3.5 3.33333,0 3.5,-0.16667 3.5,-3.5 z m 183.79206,-4.25 c -0.29206,-7.75 -0.29206,-7.75 -3.29206,-7.90811 -1.65,-0.087 -3.45,-0.1984 -4,-0.24765 -0.60572,-0.0542 -0.87141,-3.24467 -0.67385,-8.09189 l 0.32614,-8.00235 h -4.10788 -4.10788 l 0.28173,11.75 0.28174,11.75 3.67895,0.0123 c 4.61662,0.0154 5.33491,0.74479 4.96474,5.04135 -0.28847,3.34825 -0.19392,3.44635 3.32176,3.44635 h 3.61868 z m -192.29206,-4.25 c 0,-3.20996 -0.26648,-3.52576 -3.21569,-3.8108 -2.73436,-0.26428 -3.3118,0.0722 -3.85785,2.24776 -1.03154,4.11002 0.12057,5.73311 3.81666,5.37691 2.9957,-0.2887 3.25688,-0.59455 3.25688,-3.81387 z m 42.28174,-8.25 0.28173,-11.75 h -12.58596 -12.58596 l 0.16674,11.25 c 0.0917,6.1875 0.31393,11.50055 0.49383,11.80679 0.1799,0.30623 5.64177,0.53123 12.13748,0.5 l 11.8104,-0.0568 z m -16.85942,4.5 c -0.0419,-0.1375 -0.11222,-2.1625 -0.15629,-4.5 -0.0801,-4.25 -0.0801,-4.25 4.57692,-4.79597 2.56138,-0.30028 4.6876,-0.30028 4.72495,0 0.36956,2.97171 0.32419,9.06198 -0.0679,9.11463 -1.79843,0.24148 -9.01543,0.38566 -9.07768,0.18134 z m 91.71691,6.24776 c 0.31706,-0.82623 0.28749,-2.65359 -0.0657,-4.0608 -0.54605,-2.1756 -1.12349,-2.51204 -3.85785,-2.24776 -2.79965,0.27059 -3.25542,0.72037 -3.52276,3.47649 -0.23021,2.37331 0.14524,3.2829 1.5,3.63399 3.55839,0.92218 5.37892,0.67667 5.9463,-0.80192 z m 50.36077,-2.49776 c 0,-4 0,-4 -4,-4 -4,0 -4,0 -4,-4 v -4 h -8 -8 v 4 c 0,4 0,4 4,4 4,0 4,0 4,4 v 4 h 8 8 z m 58.78174,-8.25 0.28173,-11.75 H 445.9023 433.87056 v 11.33333 c 0,6.23334 0.22906,11.5624 0.50903,11.84237 0.27997,0.27996 5.56747,0.46746 11.75,0.41666 l 11.24097,-0.0924 z m -16.53931,4.50084 c -0.40834,-0.13703 -0.69258,-2.16203 -0.63166,-4.5 0.11078,-4.25084 0.11078,-4.25084 4.75,-4.79681 2.55158,-0.30028 4.67385,-0.18778 4.71615,0.25 0.78571,8.13012 0.38502,9.06626 -3.93065,9.1832 -2.28877,0.062 -4.49551,6.5e-4 -4.90384,-0.13639 z m -218.24243,-12.8142 v -12.56336 l -3.25,0.31336 c -3.05052,0.29413 -3.26887,0.57421 -3.5575,4.56336 -0.3075,4.25 -0.3075,4.25 -4.75,4.25 -4.4425,0 -4.4425,0 -4.4425,4 0,4 0,4 -4,4 -4,0 -4,0 -4,4 v 4 h 12 12 z m 16.79206,4.31336 0.29207,-7.75 h -3.54207 -3.54206 v 7.33333 c 0,8.17704 0.33196,8.88598 3.96258,8.46258 2.44358,-0.28497 2.54822,-0.58252 2.82948,-8.04591 z m 58.70794,0.25 v -7.5 l -3.83567,-0.31547 c -3.83568,-0.31548 -3.83568,-0.31548 -3.5,3.5 0.33183,3.77179 0.28988,3.82119 -3.66433,4.31547 -3.24362,0.40545 -4.06223,0.93922 -4.32908,2.82273 -0.66779,4.71339 0.26308,5.28722 8.06462,4.97137 l 7.26446,-0.2941 z m 176,4 c 0,-3.11132 -0.31892,-3.53644 -2.87182,-3.82818 -3.79296,-0.43344 -4.98179,0.9417 -4.13748,4.78585 0.61989,2.82231 1.02636,3.12299 3.85117,2.84884 2.88424,-0.27993 3.15813,-0.61005 3.15813,-3.80651 z m -158.89227,-7.57322 c 0.81929,-3.26431 -0.58254,-4.67245 -4.23591,-4.25496 -2.42628,0.27727 -2.92043,0.83239 -3.18518,3.57818 -0.30027,3.1143 -0.16537,3.25 3.23095,3.25 2.9735,0 3.64832,-0.41442 4.19014,-2.57322 z m 16.58477,-1.61712 c 0.30522,-4.15931 0.33712,-4.19078 4.3075,-4.25 l 4,-0.0597 v -7.5 -7.5 l -7.75,-0.29206 -7.75,-0.29207 v 4.04207 c 0,4.0421 0,4.0421 -3.98095,4.0421 -3.4114,0 -4.07063,0.35735 -4.60784,2.49776 -1.06113,4.22787 0.13543,5.6984 4.33747,5.33059 3.75132,-0.32835 3.75132,-0.32835 4.05882,3.92165 0.29682,4.10241 0.42504,4.25 3.6925,4.25 3.25921,0 3.39643,-0.15572 3.6925,-4.19034 z m 41.8075,-4.30966 v -8.5 h 4.5 c 4.46256,0 4.5,-0.0287 4.5,-3.44521 0,-3.38607 -0.0793,-3.45044 -4.62211,-3.75 l -4.6221,-0.30479 0.17481,-12.33027 0.17482,-12.33028 -4.26792,0.30815 -4.26792,0.30816 0.29074,-4.72788 0.29074,-4.72788 h -4.07553 c -4.07553,0 -4.07553,0 -4.07553,4.43963 0,4.40841 -0.0264,4.44182 -3.75,4.75 -3.40735,0.28201 -3.77822,0.60181 -4.05886,3.5 -0.29901,3.08794 -0.17497,3.19952 3.89094,3.5 4.19979,0.31037 4.19979,0.31037 4.30886,4.56113 0.06,2.33792 -0.34094,4.29177 -0.89094,4.34189 -0.55,0.0501 -2.35,0.16228 -4,0.24924 -2.72103,0.14341 -3.02922,0.51289 -3.31425,3.97335 l -0.31426,3.81523 8.31426,-0.22445 8.31425,-0.22445 0.3031,4.61792 0.30311,4.61791 -8.30311,0.2913 -8.3031,0.2913 -0.29206,7.75 -0.29207,7.75 h 12.04207 12.04206 z m 25,5 c 0,-3.29199 -0.19586,-3.5 -3.29561,-3.5 -3.05485,0 -3.31284,0.25569 -3.53133,3.5 -0.22788,3.38375 -0.11842,3.5 3.29561,3.5 3.36914,0 3.53133,-0.16075 3.53133,-3.5 z m 83.81336,-0.25 c 0.30708,-3.18486 0.23191,-3.25 -3.75,-3.25 -3.79506,0 -4.06336,0.18708 -4.06336,2.83333 0,3.65413 0.75787,4.32711 4.46406,3.96406 2.61972,-0.25662 3.0789,-0.74295 3.3493,-3.54739 z m -275.81336,-8.75 c 0,-4.5 0,-4.5 3.9425,-4.5 3.92334,0 3.944,-0.0207 4.25,-4.25 0.30733,-4.2477 0.30951,-4.24983 4.01588,-3.92697 l 3.70838,0.32303 0.29162,-8.32303 0.29162,-8.32303 4.30886,-0.31037 c 4.18841,-0.3017 4.30022,-0.39953 4,-3.5 -0.28858,-2.98024 -0.58786,-3.20982 -4.55886,-3.49713 l -4.25,-0.3075 v -8.4425 -8.4425 h -3.5 c -3.41667,0 -3.5,0.0952 -3.5,4 0,4 0,4 -4.5,4 -4.5,0 -4.5,0 -4.5,4 0,4 0,4 4.5,4 4.85454,0 4.64783,-0.40076 4.48767,8.70044 -0.007,0.38524 -2.03178,0.57626 -4.5,0.42447 l -4.48767,-0.27597 v 4.07553 c 0,4.07553 0,4.07553 -4,4.07553 h -4 v 8.45956 8.45956 l -8.25,0.29044 c -7.77151,0.27359 -8.26909,0.42516 -8.57908,2.61317 -0.69708,4.92012 -0.0614,5.17727 12.7977,5.17727 h 12.03138 z m 99.5597,0 c 0.0594,-3.9798 0.0821,-4.00253 4.5,-4.5 l 4.4403,-0.5 0.28555,-10.91901 c 0.31607,-12.08631 0.10538,-12.54005 -5.83475,-12.56568 -3.44998,-0.0149 -3.53802,-0.11102 -3.14951,-3.43897 0.39181,-3.35613 0.31387,-3.43653 -3.95194,-4.07622 -4.35164,-0.65257 -4.35164,-0.65257 -3.9998,-5.07635 0.35166,-4.4216 0.35377,-4.42377 4.28192,-4.42377 h 3.93009 l -0.28078,-12.25 -0.28078,-12.25 h -11.5 -11.5 l -0.3075,4.25 c -0.3075,4.25 -0.3075,4.25 -4.75,4.25 -4.23294,0 -4.4425,0.13647 -4.4425,2.89301 0,3.60952 1.25234,4.10699 10.33899,4.10699 h 7.17542 l -0.3579,4.5 c -0.3579,4.5 -0.3579,4.5 -4.2572,4.5 h -3.89931 v 8 8 h 3.89931 c 3.8993,0 3.8993,0 4.2572,4.5 l 0.3579,4.5 -5.0072,6.6e-4 c -5.00721,6.5e-4 -5.00721,6.5e-4 -5.00721,-3.75 v -3.75066 h -16 -16 v 7.5 7.5 h 3.5 c 3.11693,0 3.53613,-0.31647 3.83008,-2.89149 0.18747,-1.64233 -0.24454,-3.25577 -1,-3.73469 -1.49075,-0.94505 -1.32168,-0.98065 5.83831,-1.22915 4.1684,-0.14467 4.1684,-0.14467 4.51282,4.17585 0.41561,5.21356 0.44422,5.17948 -4.34788,5.17948 -3.71428,0 -3.83333,0.1087 -3.83333,3.5 v 3.5 h 11.9425 11.9425 l 0.3075,-4.12687 0.3075,-4.12688 8,-0.12312 8,-0.12313 0.29451,-4 c 0.29451,-4 0.29451,-4 4.5,-3.88808 4.15674,0.11062 4.21214,0.16046 4.77934,4.29985 0.6379,4.65534 0.005,5.42702 -4.52804,5.52344 -3.04581,0.0648 -3.04581,0.0648 -3.33907,7.88138 l -0.29327,7.81658 3.29327,-0.31658 c 3.11092,-0.29906 3.29657,-0.53806 3.35296,-4.31659 z m 84.4403,0.5 c 0,-4 0,-4 -4,-4 -4,0 -4,0 -4,4 0,4 0,4 4,4 4,0 4,0 4,-4 z m 100,0 c 0,-4.14099 -0.51328,-4.50511 -4.75,-3.36971 -1.63323,0.43768 -2.25,1.34768 -2.25,3.31967 0,3.4247 0.64335,4.05004 4.16667,4.05004 2.63889,0 2.83333,-0.27451 2.83333,-4 z m -309.5,-8.5 c 0,-2.7619 -0.27778,-3 -3.5,-3 -3.23201,0 -3.52436,0.25378 -3.81816,3.31443 -0.31441,3.27527 -0.27306,3.31071 3.5,3 3.50586,-0.28871 3.81816,-0.55981 3.81816,-3.31443 z m 50.31336,0.25 c -0.28783,-2.98527 -0.59734,-3.25 -3.79966,-3.25 -2.56814,0 -3.57803,0.47627 -3.83458,1.80841 -0.64113,3.32915 0.62293,4.69159 4.35285,4.69159 3.45322,0 3.58241,-0.12795 3.28139,-3.25 z m 192.18664,-0.27539 v -3.5254 l -15.75,0.2754 -15.75,0.27539 -0.31336,3.25 -0.31336,3.25 h 16.06336 16.06336 z M 63.870559,411.00232 c 0,-3.96909 -0.0857,-4.07192 -3.25,-3.89868 -5.21707,0.28563 -5.37178,0.17558 -4.94098,-3.51456 0.45975,-3.93804 -1.11381,-5.15243 -5.31125,-4.09893 -2.35799,0.59181 -2.49777,1.00822 -2.49777,7.44118 0,3.74785 0.3,7.11428 0.66667,7.48094 0.36666,0.36667 3.96666,0.66667 8,0.66667 h 7.33333 z m 25,0.0133 c 0,-3.98191 -0.0651,-4.05708 -3.25,-3.75 -5.49039,0.52933 -5.28659,7.81332 0.21862,7.81332 2.87782,0 3.03138,-0.20583 3.03138,-4.06336 z m 100.566401,-0.37024 c 0.0656,-3.88858 0.11142,-3.93437 4,-4 3.90081,-0.0659 3.93616,-0.10183 4.2411,-4.3164 0.3075,-4.25 0.3075,-4.25 4.75,-4.25 4.39634,0 4.4425,-0.0358 4.4425,-3.4425 0,-3.3351 -0.13259,-3.4521 -4.25,-3.75 l -4.25,-0.30754 -0.28078,-12.25 -0.28078,-12.25 h -7.86853 -7.86852 l -0.36351,-4.57052 c -0.43717,-5.49665 -0.49167,-5.42948 4.4054,-5.42948 3.78106,0 3.90409,-0.10714 3.73202,-3.25 -0.28028,-5.11928 -0.1863,-5.25 3.77404,-5.25 3.65986,0 3.75315,-0.0922 3.85356,-3.80965 l 0.10291,-3.80965 -8.10291,0.21275 -8.1029,0.21276 v -3.90311 c 0,-3.79402 -0.0978,-3.9031 -3.5,-3.9031 -3.37789,0 -3.5,0.13086 -3.5,3.75066 0,3.9701 -0.12165,4.05616 -5.32583,3.76751 l -3.32583,-0.18447 0.32583,8.58548 c 0.17921,4.72202 -0.0117,8.61905 -0.42417,8.66008 -8.20213,0.81571 -9.23941,0.38265 -9.56098,-3.99169 -0.31025,-4.22021 -0.31978,-4.22953 -4,-3.90893 -3.68902,0.32136 -3.68902,0.32136 -4.18902,-4.17864 -0.48677,-4.38095 -0.59259,-4.5 -4,-4.5 -3.30212,0 -3.50926,0.19788 -3.66385,3.5 -0.0901,1.925 -0.20233,3.95 -0.24935,4.5 -0.047,0.55 -1.77328,1 -3.83614,1 h -3.75066 l -0.2941,7.26446 c -0.32228,7.96051 0.42508,9.04694 5.36973,7.80592 2.2665,-0.56886 2.53325,-1.08521 2.2513,-4.35785 -0.31986,-3.71253 -0.31986,-3.71253 4.54058,-3.71253 h 4.86045 l -0.16436,12.75 -0.16435,12.75 h 3.55037 3.55038 v -8.33333 c 0,-4.58334 0.18546,-8.52084 0.41214,-8.75 0.22667,-0.22917 4.25143,-0.27182 8.94392,-0.0948 l 8.53178,0.32189 0.30608,3.67811 c 0.28827,3.4641 0.52429,3.69618 4.05608,3.98849 3.72362,0.30818 3.75,0.34159 3.75,4.75 0,4.43964 0,4.43964 -4,4.43964 -4,0 -4,0 -4,4 v 4 h 8.5 8.5 v 4.45956 4.45956 l -8.25,0.29044 -8.25,0.29044 -0.3152,3.83118 c -0.31521,3.83117 -0.31521,3.83117 4,3.521 4.31093,-0.30987 4.31488,-0.307 3.99221,2.8962 -0.43788,4.34686 0.44552,5.4192 4.16684,5.05798 2.94138,-0.28551 3.16067,-0.57403 3.22255,-4.23996 z M 80.370559,403.07894 c 0,-3.36799 -0.151,-3.51114 -4.00359,-3.79546 -4.00359,-0.29546 -4.00359,-0.29546 -3.64931,-4.75 0.35397,-4.45055 0.35778,-4.45454 4.2536,-4.45454 3.88252,0 3.8993,-0.0172 3.8993,-4 0,-4 0,-4 -4,-4 -4,0 -4,0 -4,-4 0,-4 0,-4 -4,-4 h -4 v 15.83333 c 0,8.70834 0.31784,16.15118 0.70631,16.53965 0.38848,0.38847 3.87598,0.57597 7.75,0.41667 l 7.04369,-0.28965 z m 268.000001,0 c 0,-3.40589 -0.10756,-3.50174 -4,-3.56467 -2.2,-0.0356 -3.8875,-0.37307 -3.75,-0.75 0.1375,-0.37693 0.25,-4.28533 0.25,-8.68533 v -8 h 8 8 v -3.9425 c 0,-3.92334 -0.0207,-3.944 -4.25,-4.25 -4.24343,-0.30702 -4.2495,-0.3132 -3.92864,-3.99652 0.32097,-3.68441 0.31605,-3.6894 -3.94034,-4 -4.24197,-0.30954 -4.26197,-0.32949 -4.32136,-4.31098 l -0.0597,-4 h -8.25159 -8.2516 l -0.0137,-7.5 c -0.0161,-8.82814 -0.69207,-10.27522 -4.5916,-9.83008 -2.53677,0.28959 -2.91159,0.75946 -3.05534,3.83008 -0.0901,1.925 -0.20262,3.96189 -0.25,4.52643 -0.0492,0.58631 -1.80129,0.86286 -4.08615,0.64496 -3.98666,-0.38019 -4,-0.36963 -4,3.16608 0,3.43946 0.12549,3.5569 4.11916,3.85503 l 4.11915,0.3075 -0.16953,12.75 -0.16953,12.75 h 4.15107 4.15107 l -0.3579,-4.5 -0.3579,-4.5 h 5.01441 5.01441 l -0.3579,4.5 c -0.3579,4.5 -0.3579,4.5 -4.2572,4.5 -3.89929,0 -3.89929,0 -3.89929,4.5 0,3.99595 -0.25202,4.50153 -2.25,4.51365 -4.97116,0.0302 -6.75,1.11144 -6.75,4.10298 0,2.65273 0.29996,2.88899 3.75,2.95366 3.5061,0.0657 9.23818,1.70546 6.5,1.85942 -0.75078,0.0422 -1.25,1.48079 -1.25,3.60203 v 3.53173 l 11.75,-0.28173 11.75,-0.28174 z m 50.5,0 c 0,-3.90476 -0.0833,-4 -3.5,-4 -3.41667,0 -3.5,0.0952 -3.5,4 0,3.90476 0.0833,4 3.5,4 3.41667,0 3.5,-0.0952 3.5,-4 z m -310.000001,-8.5 c 0,-3.33333 -0.16667,-3.5 -3.5,-3.5 -3.33333,0 -3.5,0.16667 -3.5,3.5 0,3.33333 0.16667,3.5 3.5,3.5 3.33333,0 3.5,-0.16667 3.5,-3.5 z m 26.000001,-0.5 c 0,-4 0,-4 4,-4 4,0 4,0 4,-4 0,-4 0,-4 4.5,-4 4.5,0 4.5,0 4.5,4 0,4 0,4 4,4 4,0 4,0 4,4 0,4 0,4 4,4 h 4 v -8 -8 h -4 c -4,0 -4,0 -4,-4 0,-4 0,-4 -4.5,-4 -4.5,0 -4.5,0 -4.5,-4 0,-3.99028 -0.01,-4 -3.9425,-4 -3.92334,0 -3.944,-0.0207 -4.25,-4.25 -0.29896,-4.13191 -0.40475,-4.25 -3.8075,-4.25 -3.40275,0 -3.50854,0.11809 -3.8075,4.25 l -0.3075,4.25 h -8.385 -8.385001 l -0.3075,-4.25 c -0.29895,-4.13191 -0.40475,-4.25 -3.8075,-4.25 h -3.5 l -0.29044,8.25 -0.29044,8.25 h -3.95956 c -3.95282,0 -3.95956,0.007 -3.95956,4 0,4 0,4 4,4 4,0 4,0 4,4 0,4 0,4 4.07348,4 h 4.07347 l -0.32347,-8.42123 -0.32348,-8.42122 4.000001,-0.42304 c 2.2,-0.23267 4.3375,-0.24156 4.75,-0.0197 0.4125,0.2218 0.75,6.00172 0.75,12.84426 v 12.44093 h 4 c 4,0 4,0 4,-4 z m 134,0.64674 c 0,-3.22658 -0.14168,-3.34936 -3.75,-3.25 -3.47459,0.0957 -3.77301,0.34195 -4.06336,3.35326 -0.30708,3.18486 -0.23191,3.25 3.75,3.25 3.9433,0 4.06336,-0.0991 4.06336,-3.35326 z m 159,-0.64674 c 0,-4 0,-4 4,-4 4,0 4,0 4,-4 0,-4 0,-4 4,-4 4,0 4,0 4,-4.4425 0,-4.4425 0,-4.4425 4.25,-4.75 4.18992,-0.30315 4.25,-0.36052 4.25,-4.05816 v -3.75065 l 9.02643,6.5e-4 9.02642,6.6e-4 -0.36233,3.79942 c -0.36233,3.79943 -0.36233,3.79943 3.83309,4.04697 l 4.19542,0.24755 -0.38152,-4.00061 c -0.38152,-4.00062 -0.38152,-4.00062 3.64049,-4.29697 l 4.022,-0.29636 0.29346,-7.82751 0.29346,-7.82751 -8.04581,0.32751 c -4.42519,0.18013 -8.07637,0.10251 -8.11372,-0.17249 -0.0374,-0.275 -0.14625,-2.49583 -0.24199,-4.93518 -0.17409,-4.43518 -0.17409,-4.43518 3.82026,-4.5 3.88595,-0.0631 3.99434,-0.1598 3.99434,-3.56482 0,-3.22222 -0.2381,-3.5 -3,-3.5 -1.65,0 -3.33061,0.45 -3.73469,1 -0.79258,1.0788 -1.07131,-1.09228 -0.79498,-6.19228 0.16947,-3.12785 0.0769,-3.1985 -4.58863,-3.5 -4.7616,-0.30772 -4.7616,-0.30772 -4.82165,-4.30772 -0.0565,-3.76443 -0.23673,-4 -3.06005,-4 -2.81451,0 -3.01901,0.26278 -3.3075,4.25 l -0.3075,4.25 h -4.9425 -4.9425 v -4.57662 c 0,-4.53319 -0.0308,-4.57493 -3.25,-4.39868 -5.15593,0.28228 -5.25571,0.19933 -5.14094,-4.27394 0.10872,-4.23722 0.12208,-4.25173 4.19518,-4.55558 4.02758,-0.30045 4.09049,-0.36492 4.39094,-4.5 l 0.30482,-4.19518 7,0.28613 c 9.27964,0.37931 9.66361,0.0335 9.29935,-8.37565 l -0.29935,-6.91048 h -7.5 -7.5 l -0.30643,4.22821 c -0.23581,3.25364 -0.69679,4.19671 -2,4.09156 -5.49347,-0.44327 -6.19357,0.0354 -6.19357,4.23502 v 4.05479 l -4.68995,-0.30479 c -4.68995,-0.30479 -4.68995,-0.30479 -4.75,-4.30479 -0.0599,-3.98999 -0.0701,-4 -4.06005,-4 -3.99098,0 -4.00069,-0.01 -4.3075,-4.25 l -0.3075,-4.25 h -7.9425 -7.9425 v 8.5 8.5 h -4.5 c -4.30556,0 -4.5054,-0.12963 -4.625,-3 -0.0688,-1.65 -0.18125,-3.5625 -0.25,-4.25 -0.092,-0.92029 -3.15833,-1.25 -11.625,-1.25 h -11.5 l -0.12282,8 -0.12283,8 -4.37717,0.5 c -3.94431,0.45055 -4.40982,0.78595 -4.70726,3.39149 -0.18154,1.59032 0.10616,3.16532 0.63934,3.5 0.57766,0.36261 0.40797,1.12958 -0.41992,1.89794 -0.91897,0.85287 -1.38934,0.91157 -1.38934,0.17338 0,-0.68071 -1.46277,-0.98939 -3.75,-0.79136 l -3.75,0.32469 -0.5,-16.49807 -0.5,-16.49807 -4,-0.5 c -3.93192,-0.49149 -3.9945,-0.56318 -3.67661,-4.21253 0.38285,-4.39513 -1.11797,-5.09359 -9.87684,-4.59655 -5.44655,0.30908 -5.44655,0.30908 -5.76356,4.17051 -0.31701,3.86142 -0.31701,3.86142 3.75,3.47357 2.33982,-0.22314 4.09808,0.0481 4.14018,0.63857 0.0402,0.56454 0.0113,4.2731 -0.0643,8.24125 -0.14731,7.73324 0.64724,8.71522 6.4911,8.02232 1.71372,-0.2032 2.04328,0.43418 2.30234,4.4528 l 0.30234,4.68995 -4.30234,0.31005 c -4.1912,0.30205 -4.30231,0.40045 -4.30231,3.81006 0,3.40672 0.1066,3.50159 4,3.55966 3.97519,0.0593 4.00192,0.0858 4.309,4.28065 0.30899,4.22099 0.30899,4.22099 4.25,3.74596 l 3.941,-0.47503 v 4.94438 4.94438 h -4.06037 c -4.06036,0 -4.06036,0 -3.75,3.75 l 0.31037,3.75 8,0.12963 8,0.12964 v 3.87036 c 0,3.83847 0.035,3.8729 4.25,4.17787 4.22934,0.306 4.25,0.32666 4.25,4.25 0,3.82651 0.10128,3.9425 3.4425,3.9425 3.31755,0 3.45367,-0.14979 3.75,-4.12687 l 0.3075,-4.12688 8,-0.12312 8,-0.12313 v -3.5 c 0,-3.33333 -0.16667,-3.5 -3.5,-3.5 -3.32744,0 -3.52639,-0.19721 -4.03534,-4 -0.71127,-5.31445 -0.55627,-5.5 4.59436,-5.5 h 4.44098 v 4.5 c 0,4.5 0,4.5 4,4.5 h 4 v -17 -17 h 4.5 4.5 v 4.5 c 0,4.47619 0.0185,4.5 3.5,4.5 3.46961,0 3.5,-0.0382 3.5,-4.39931 0,-4.3993 0,-4.3993 4.5,-4.7572 l 4.5,-0.3579 0.0153,7.5072 c 0.0185,9.05045 0.66133,10.33586 4.83982,9.67732 4.03902,-0.63656 4.35442,0.005 4.51273,9.1751 l 0.13215,7.65479 3.33148,0.31944 c 3.33148,0.31943 3.33148,0.31943 3.01541,-4 l -0.31608,-4.31944 5.2346,-0.30226 5.23459,-0.30226 v 8.62888 8.62888 l 3.75,-0.32309 3.75,-0.32308 v 4.88228 4.88227 l -4.20549,0.11419 c -4.20549,0.11419 -4.20549,0.11419 -4.5,-3.88581 l -0.29451,-4 h -7.5 -7.5 l -0.15398,12 -0.15397,12 -4.59603,0.30479 c -4.59602,0.30479 -4.59602,0.30479 -4.59602,4.25 0,3.93608 -0.009,3.94521 -4,3.94521 h -4 v 8 8 h 4 c 4,0 4,0 4,-4 z M 340.59917,331.7673 c -0.14834,-0.44641 -0.10481,-2.54075 0.0967,-4.65411 0.34994,-3.66942 0.54432,-3.85943 4.31624,-4.21914 2.17238,-0.20717 4.26673,-0.13782 4.6541,0.15411 0.79278,0.59744 0.98136,8.99646 0.20432,9.09997 -3.56975,0.47552 -9.06179,0.24993 -9.27139,-0.38083 z m 16.27139,-16.52169 c 0,-4.85834 0.19327,-9.0266 0.42948,-9.26282 0.23622,-0.23621 2.48622,-0.2659 5,-0.066 4.57052,0.36354 4.57052,0.36354 4.57052,4.76284 0,4.39931 0,4.39931 4,4.39931 4,0 4,0 4,4.5 v 4.5 h -9 -9 z m -117,70.83333 c 0,-3.90476 -0.0833,-4 -3.5,-4 -3.41667,0 -3.5,0.0952 -3.5,4 0,3.90476 0.0833,4 3.5,4 3.41667,0 3.5,-0.0952 3.5,-4 z m 34,-4 v -8 h -4 c -4,0 -4,0 -4,4 0,4 0,4 -4,4 -4,0 -4,0 -4,4 v 4 h 8 8 z m 109,4 c 0,-4 0,-4 -4,-4 -4,0 -4,0 -4,4 0,4 0,4 4,4 4,0 4,0 4,-4 z m -126,-8 c 0,-4 0,-4 -4,-4 -4,0 -4,0 -4,4 0,4 0,4 4,4 4,0 4,0 4,-4 z m 116.78078,-8.25 -0.28078,-12.25 h -7.5 -7.5 v 7.5 7.5 l 4.25,0.3075 c 4.25,0.3075 4.25,0.3075 4.25,4.75 0,4.41785 0.0196,4.4425 3.53078,4.4425 h 3.53078 z m 25.21922,7.8075 c 0,-4.4425 0,-4.4425 4.25,-4.75 l 4.25,-0.3075 0.2932,-7.81294 0.29319,-7.81294 -3.79319,0.31294 c -3.69044,0.30446 -3.80153,0.42808 -4.1007,4.56294 -0.306,4.22934 -0.32666,4.25 -4.25,4.25 h -3.9425 v 8 8 h 3.5 c 3.47477,0 3.5,-0.032 3.5,-4.4425 z m 42,0.4425 c 0,-3.90476 -0.0833,-4 -3.5,-4 -3.41667,0 -3.5,0.0952 -3.5,4 0,3.90476 0.0833,4 3.5,4 3.41667,0 3.5,-0.0952 3.5,-4 z m -360.000001,-8.5 c 0,-3.41667 -0.0952,-3.5 -4,-3.5 -3.75238,0 -4,0.18056 -4,2.91667 0,3.14307 0.96807,3.88146 5.25,4.00438 2.49123,0.0715 2.75,-0.2504 2.75,-3.42105 z m 134.000001,0 c 0,-3.41667 -0.0952,-3.5 -4,-3.5 -3.90476,0 -4,0.0833 -4,3.5 0,3.41667 0.0952,3.5 4,3.5 3.90476,0 4,-0.0833 4,-3.5 z m 16.81336,-0.25 c 0.30708,-3.18486 0.23191,-3.25 -3.75,-3.25 -3.79506,0 -4.06336,0.18708 -4.06336,2.83333 0,3.65413 0.75787,4.32711 4.46406,3.96406 2.61972,-0.25662 3.0789,-0.74295 3.3493,-3.54739 z m 33.18664,0.25 c 0,-3.33333 -0.16667,-3.5 -3.5,-3.5 -3.17647,0 -3.5,0.2619 -3.5,2.83333 0,1.55834 0.3,3.13334 0.66667,3.5 0.36666,0.36667 1.94166,0.66667 3.5,0.66667 2.57143,0 2.83333,-0.32353 2.83333,-3.5 z m 217.82861,-0.5 c -0.37808,-3.96458 -0.35024,-4.00105 3.14496,-4.11842 1.93954,-0.0651 3.86393,-0.0651 4.27643,0 0.4125,0.0651 0.75,-1.70051 0.75,-3.92364 v -4.04207 l -7.75,0.29207 -7.75,0.29206 -0.3075,4.25 c -0.306,4.22934 -0.32666,4.25 -4.25,4.25 -3.83905,0 -3.9425,0.0918 -3.9425,3.5 v 3.5 h 8.10504 8.10503 z m -410.328611,-8 v -3.5 l -7.75,-0.29206 -7.75,-0.29207 v 4.08413 4.08413 l 7.75,-0.29207 7.75,-0.29206 z m 184.270711,-16.75 0.2707,-20.25 h -3.5207 c -2.11242,0 -3.54882,0.5 -3.591,1.25 -0.0386,0.6875 -0.43227,0.35 -0.8747,-0.75 -0.44242,-1.1 -0.58056,-3.44006 -0.30696,-5.20014 0.50481,-3.24749 -1.68758,-4.8388 -5.8637,-4.25607 -2.9933,0.41769 -3.42654,-0.15564 -3.05574,-4.04379 0.38019,-3.98666 0.36963,-4 -3.16608,-4 -3.45867,0 -3.55524,0.10646 -3.85503,4.25 -0.3074,4.24861 -0.30871,4.24989 -4.02003,3.92661 -3.27393,-0.28518 -3.78876,-0.0196 -4.35785,2.24776 -1.25049,4.98238 -0.1539,5.72737 8.07672,5.48704 8.60736,-0.25132 9.03923,-0.0224 8.6426,4.58124 -0.28431,3.30003 -0.18858,3.39322 3.79734,3.69637 2.24896,0.17104 4.08108,0.64848 4.07137,1.06098 -0.01,0.4125 -0.0173,4.4625 -0.017,9 l 6.5e-4,8.25 h -3.75065 c -3.48573,0 -3.77248,0.2253 -4.05952,3.18963 -0.30022,3.10047 -0.18841,3.1983 4,3.5 4.24659,0.30588 4.30395,0.35929 3.96927,3.69598 -0.38406,3.82892 1.0438,5.26676 4.83959,4.87344 2.50001,-0.25905 2.50001,-0.25905 2.77072,-20.50905 z m 16.06888,19.8703 c 0.81697,-0.51782 1.20711,-2.16993 1,-4.23469 -0.33468,-3.33669 -0.27732,-3.3901 3.96927,-3.69598 4.18841,-0.3017 4.30022,-0.39953 4,-3.5 -0.28704,-2.96433 -0.57379,-3.18963 -4.05952,-3.18963 -3.64345,0 -4.19653,-0.49347 -3.79313,-3.38435 0.517,-3.70511 -1.00771,-6.11565 -3.86827,-6.11565 -3.75306,0 -4.08794,1.1058 -4.08794,13.49845 0,7.33223 0.36317,10.48143 1.25,10.83927 1.96226,0.79179 4.13041,0.70745 5.58959,-0.21742 z m 118.16041,-3.6203 c 0,-4.5 0,-4.5 3.96922,-4.5 h 3.96922 l 0.28078,-12.25 0.28078,-12.25 4.25,-0.3075 c 4.11741,-0.2979 4.25,-0.4149 4.25,-3.75 v -3.4425 h -8 -8 v 12.5 12.5 h -4.5 -4.5 v 8 8 h 4 c 4,0 4,0 4,-4.5 z M 38.870559,352.51558 c 0,-3.41781 -0.13275,-3.55056 -3.25,-3.25 -2.85772,0.27554 -3.28782,0.70564 -3.56336,3.56336 -0.30056,3.11725 -0.16781,3.25 3.25,3.25 3.41781,0 3.56336,-0.14555 3.56336,-3.56336 z m 17,0.003 c 0,-3.5027 -0.0607,-3.55533 -3.75,-3.25 -3.42358,0.28335 -3.77727,0.59327 -4.06336,3.56037 -0.30707,3.18486 -0.23191,3.25 3.75,3.25 3.9903,-1e-5 4.06336,-0.064 4.06336,-3.56038 z m 24.81336,0.31036 c -0.28783,-2.98527 -0.59734,-3.25 -3.79966,-3.25 -2.56814,0 -3.57803,0.47627 -3.83458,1.80841 -0.64113,3.32915 0.62293,4.69159 4.35286,4.69159 3.45321,0 3.5824,-0.12795 3.28138,-3.25 z m 25.042951,-0.19636 c -0.1633,-1.8955 0.004,-3.74709 0.37136,-4.11465 0.36756,-0.36755 6.0917,-0.59347 12.72031,-0.50203 l 12.05202,0.16625 v -8.09367 -8.09367 l -7.75,0.29207 -7.75,0.29206 -0.0365,4.20315 c -0.0201,2.31173 -0.35757,4.52423 -0.75,4.91667 -0.39244,0.39243 -0.71352,0.18851 -0.71352,-0.45315 0,-0.79467 -2.63058,-1.16646 -8.25,-1.16601 l -8.250001,6.5e-4 v -3.75065 c 0,-3.61995 -0.12198,-3.75063 -3.5,-3.7499 -3.39532,7.4e-4 -3.50198,0.11839 -3.56639,3.9336 -0.0656,3.8877 -0.11156,3.93361 -4,3.99924 -3.81622,0.0644 -3.93359,0.17083 -3.93359,3.5664 v 3.5 l 8.25,0.29044 8.25,0.29044 v 3.95956 c 0,3.8747 0.0767,3.95956 3.576621,3.95956 3.46773,0 3.56758,-0.10492 3.27969,-3.44636 z m 109.14369,-0.0536 v -3.5 h -8 -8 v 3.5 3.5 h 8 8 z m 17,-0.0604 c 0,-3.5027 -0.0607,-3.55533 -3.75,-3.25 -3.42358,0.28335 -3.77728,0.59327 -4.06336,3.56037 -0.30708,3.18486 -0.23191,3.25 3.75,3.25 3.9903,0 4.06336,-0.064 4.06336,-3.56037 z m -167.807501,-8.56647 0.3075,-4.12688 8,-0.12312 8,-0.12313 v -3.5 c 0,-3.20849 -0.24987,-3.50515 -3,-3.56181 -1.65,-0.034 -3.33061,0.416 -3.73469,1 -0.78964,1.14124 -0.93901,0.43082 -1.14341,-5.43819 l -0.1219,-3.5 -12.31569,-0.28131 -12.3157,-0.2813 0.3157,3.2813 c 0.28951,3.00915 0.64746,3.32278 4.31569,3.78131 l 4,0.5 0.29044,8.25 0.29045,8.25 h 3.40206 c 3.27016,0 3.41398,-0.16 3.70955,-4.12687 z m 158.807501,0.0635 c 0,-3.98191 -0.0651,-4.05708 -3.25,-3.75 -5.49039,0.52937 -5.28659,7.81336 0.21862,7.81336 2.87782,0 3.03138,-0.20583 3.03138,-4.06336 z m 16.5,-3.93664 v -7.5 l -3.25,-0.31336 -3.25,-0.31336 v 8.12672 8.12672 l 3.25,-0.31336 3.25,-0.31336 z m 50.5,3.56023 c 0.48653,-3.83366 0.60774,-3.9414 4.5,-4 3.98996,-0.0601 4,-0.0703 4,-4.06023 0,-3.99098 0.01,-4.00069 4.25,-4.3075 4.11741,-0.2979 4.25,-0.4149 4.25,-3.75 v -3.4425 h -12.07662 -12.07662 l 0.28125,3.2644 c 0.36262,4.20895 -0.62498,5.71764 -3.39377,5.18442 -4.12504,-0.79441 -5.87617,0.43385 -5.54122,3.88665 0.27686,2.85405 0.65037,3.18061 3.80698,3.32838 1.925,0.0901 4.0001,0.20262 4.61133,0.25 0.63364,0.0491 0.90728,1.15356 0.63661,2.56947 -0.75479,3.94845 0.38765,5.69123 3.49637,5.33365 2.38421,-0.27424 2.82309,-0.84807 3.25569,-4.25674 z m 183.83008,3.56595 c 0.75546,-0.47892 1.18747,-2.09236 1,-3.73469 -0.47254,-4.13947 -6.41205,-4.90524 -7.40362,-0.95453 -1.20241,4.79082 2.25252,7.32078 6.40362,4.68922 z M 164.43022,335.57894 c 0.0592,-3.97038 0.0907,-4.00228 4.25,-4.3075 4.03462,-0.29607 4.19034,-0.43329 4.19034,-3.6925 0,-3.25921 -0.15572,-3.39643 -4.19034,-3.6925 -4.15931,-0.30522 -4.19078,-0.33712 -4.25,-4.3075 l -0.0597,-4 h -7.5 -7.5 v 3.5 c 0,3.40258 0.10438,3.49612 3.75,3.3605 l 3.75,-0.1395 v 8.22283 c 0,9.27322 0.23601,9.76773 4.46406,9.35356 2.81395,-0.27564 3.0403,-0.58987 3.0956,-4.29739 z m 50.44034,0 c 0,-4.5 0,-4.5 4,-4.5 3.90476,0 4,-0.0833 4,-3.5 0,-3.41667 -0.0952,-3.5 -4,-3.5 h -4 v -8.5 -8.5 h -4 -4 v 8.5 8.5 h -4 -4 v 8 8 h 8 8 z m -126.000001,-8 c 0,-3.33333 -0.16667,-3.5 -3.5,-3.5 -3.33333,0 -3.5,0.16667 -3.5,3.5 0,3.33333 0.16667,3.5 3.5,3.5 3.33333,0 3.5,-0.16667 3.5,-3.5 z m 50.629051,-4.93198 0.12904,-7.93198 3.87096,-0.068 c 3.82679,-0.0672 3.87446,-0.1165 4.17845,-4.31802 0.306,-4.22934 0.32666,-4.25 4.25,-4.25 3.82651,0 3.9425,-0.10128 3.9425,-3.4425 0,-3.31755 -0.14979,-3.45367 -4.12687,-3.75 l -4.12688,-0.3075 -0.12312,-8 -0.12313,-8 h -7.5 -7.5 l -0.17921,16.33747 -0.17921,16.33747 -12.32079,0.16253 -12.32079,0.16251 v 3.5 3.5 h 12.25072 c 7.42716,0 12.29402,0.39374 12.36069,1 0.0605,0.55 0.0289,2.00496 -0.0701,3.23325 -0.27201,3.37372 0.82349,4.41081 4.30253,4.07311 3.15616,-0.30636 3.15616,-0.30636 3.28521,-8.23834 z m 134.18911,4.61755 c 0.31441,-3.27527 0.27306,-3.31071 -3.5,-3 -3.51654,0.28959 -3.84329,0.57626 -4.13632,3.62886 -0.31441,3.27527 -0.27306,3.31071 3.5,3 3.51654,-0.28959 3.84329,-0.57626 4.13632,-3.62886 z m 49.68184,0.31443 c 0,-2.74482 -0.31897,-3.0264 -3.75,-3.31037 -3.70001,-0.30622 -3.75,-0.26209 -3.75,3.31037 0,3.57246 0.05,3.61659 3.75,3.31037 3.43103,-0.28397 3.75,-0.56555 3.75,-3.31037 z M 80.684429,319.32206 c 0.35467,-3.68016 -1.26607,-4.84841 -5.3161,-3.83191 -1.9235,0.48276 -2.49777,1.27394 -2.49777,3.44118 0,3.63446 0.76178,4.30767 4.46406,3.945 2.62122,-0.25676 3.07882,-0.74229 3.34981,-3.55427 z m 184.186131,-0.30648 c 0,-3.98191 -0.0651,-4.05708 -3.25,-3.75 -5.49039,0.52937 -5.28659,7.81336 0.21862,7.81336 2.87782,0 3.03138,-0.20583 3.03138,-4.06336 z m 16.62829,-4.43664 0.12828,-8 h 4.87172 c 4.87171,0 4.87171,0 4.87171,4 0,3.90476 0.0833,4 3.5,4 h 3.5 l 0.0519,-7.71855 c 0.0587,-8.73498 0.26699,-9.1417 4.72276,-9.22277 l 3.22534,-0.0587 v -7.5 c 0,-7.5 0,-7.5 -3.18963,-7.80886 -3.09454,-0.29964 -3.19888,-0.18196 -3.5,3.94766 l -0.31037,4.25652 -8,0.0523 -8,0.0523 -0.0623,4 -0.0623,4 -8.74808,0.28981 -8.74809,0.28982 0.31039,3.21018 c 0.28889,2.98781 0.5702,3.21019 4.06105,3.21019 2.06286,0 3.7845,0.45 3.82587,1 0.0414,0.55 0.0111,4.03191 -0.0673,7.73758 -0.17159,8.1092 0.26093,8.96421 4.33467,8.56878 3.15609,-0.30628 3.15609,-0.30628 3.28438,-8.30628 z m 176.07762,-3.5 c 0.11326,-6.325 0.22576,-12.04904 0.25,-12.7201 0.0281,-0.77632 1.40805,-1.14004 3.79409,-1 3.73675,0.21932 3.75109,0.20509 4.0575,-4.0299 0.3075,-4.25 0.3075,-4.25 4.81354,-4.25 h 4.50604 l -0.21631,-8.1828 -0.2163,-8.18281 3.90277,-0.0672 c 3.78083,-0.0651 3.90276,-0.17654 3.90276,-3.56719 0,-3.43144 -0.0877,-3.50624 -4.47749,-3.81861 -2.46262,-0.17524 -5.98867,-0.0351 -7.83568,0.31138 l -3.35818,0.63 0.32456,7.68862 0.32456,7.68861 -8.48888,0.5 -8.48889,0.5 -0.0523,8 -0.0523,8 -4.25652,0.31037 c -4.12962,0.30112 -4.2473,0.40546 -3.94766,3.5 0.28704,2.96433 0.57379,3.18963 4.05952,3.18963 2.06286,0 3.7845,0.45 3.82587,1 0.0414,0.55 0.0111,4.03191 -0.0673,7.73758 -0.17159,8.1092 0.26093,8.96421 4.33467,8.56878 l 3.15602,-0.30636 z m -385.042051,0 c 0.0901,-1.925 0.20238,-3.95 0.24947,-4.5 0.0541,-0.63179 7.72621,-1 20.83615,-1 h 20.750521 l 0.31039,-3.21019 0.31039,-3.21018 -8.74809,-0.28982 -8.748081,-0.28981 -0.0623,-4 c -0.0621,-3.98962 -0.0727,-4 -4.0623,-4 -3.99567,0 -4.00034,-0.005 -4.30903,-4.28122 l -0.30902,-4.28123 -11.69097,0.28123 -11.69098,0.28122 v 3 c 0,3 0,3 8.4076,3.5 l 8.4076,0.5 v 4.5 4.5 l -8.4076,0.5 -8.4076,0.5 -0.30907,5.44655 c -0.4805,8.46728 0.25322,10.2354 4.09338,9.86425 2.91177,-0.28143 3.23118,-0.64159 3.37955,-3.8108 z m 99.924931,1.50224 c 0.9513,-3.79025 -0.15557,-5.50224 -3.55741,-5.50224 -2.7689,0 -3.03138,0.28863 -3.03138,3.33333 0,3.94666 0.56279,4.66667 3.64761,4.66667 1.63403,0 2.49856,-0.73419 2.94118,-2.49776 z m 16.80422,0.91597 c 0.33385,-0.86998 0.60699,-3.01937 0.60699,-4.77642 0,-3.12909 0.0829,-3.18674 4.03865,-2.80949 4.03865,0.38514 4.03865,0.38514 3.79561,-3.22358 l -0.24303,-3.60872 h -7.79562 -7.79561 v 7.33333 c 0,4.03334 0.3,7.63334 0.66667,8 1.31098,1.31099 6.12334,0.65627 6.72634,-0.91512 z m 67.26325,-11.41821 0.15626,-12.5 4.09374,-0.3075 c 3.94961,-0.29667 4.09374,-0.43018 4.09374,-3.79206 v -3.48457 l -7.75,0.29207 c -7.75,0.29206 -7.75,0.29206 -7.90811,3.29206 -0.087,1.65 -0.19946,3.55719 -0.25,4.23821 -0.0505,0.68102 -0.87939,1.17222 -1.84189,1.09156 -5.46169,-0.45771 -6.38694,0.0642 -6.06336,3.42023 0.29495,3.0591 0.53363,3.24277 4.06336,3.12688 2.14178,-0.0703 3.78254,0.35853 3.82588,1 0.0417,0.61771 0.0117,4.15503 -0.0667,7.8607 -0.17159,8.1092 0.26093,8.96421 4.33467,8.56878 l 3.15615,-0.30636 z m 218.13694,4.68706 0.29319,-7.81294 -3.79319,0.31294 -3.7932,0.31294 -0.30147,6.39467 c -0.39434,8.36447 0.0326,9.30585 4.04459,8.9192 3.25688,-0.31387 3.25688,-0.31387 3.55008,-8.12681 z M 122.70499,292.17154 c 0.54395,-8.53593 -0.27081,-10.37721 -4.37962,-9.89753 -1.99073,0.23241 -3.46722,-0.0413 -3.4841,-0.64587 -0.0161,-0.57706 -0.12862,-10.0492 -0.25,-21.0492 l -0.22071,-20 -3.73814,-0.0715 c -4.95766,-0.0948 -4.9807,-0.13579 -5.13131,-9.13131 l -0.13055,-7.79719 -4,-0.29345 -4.000001,-0.29345 0.30715,-12.45655 0.30716,-12.45655 h -4.09936 -4.09935 l 0.13862,16.75 0.13863,16.75 -8.34642,0.5 c -8.34643,0.5 -8.34643,0.5 -8.34643,3.5 v 3 l 12.5,0.15911 12.5,0.15911 0.29005,8.66708 0.29004,8.66707 3.380571,-0.45557 c 1.85931,-0.25057 3.75379,-0.084 4.20995,0.37019 0.45617,0.45418 0.69117,6.4749 0.52224,13.37939 l -0.30716,12.55362 h -3.94284 c -3.830671,0 -3.942851,0.0984 -3.942851,3.45956 v 3.45956 l 8.250001,0.29044 8.25,0.29044 -0.32299,3.22738 c -0.4382,4.37848 0.43445,5.42809 4.15928,5.00273 3.05314,-0.34865 3.17347,-0.54256 3.49814,-5.63751 z m 58.72121,3.54175 c 0.32655,-1.30111 0.44763,-3.21361 0.26905,-4.25 -0.26962,-1.56473 0.39619,-1.93651 3.92531,-2.19185 l 4.25,-0.3075 -0.0153,-6.6925 c -0.0183,-8.00558 -0.75888,-9.46028 -4.5932,-9.02258 -2.53677,0.28959 -2.91159,0.75946 -3.05534,3.83008 -0.0901,1.925 -0.20233,3.95 -0.24935,4.5 -0.047,0.55 -1.77328,1 -3.83614,1 h -3.75066 l -0.30147,6.39467 c -0.38075,8.07629 0.0432,9.10533 3.75103,9.10533 2.33355,0 3.14613,-0.53307 3.60608,-2.36565 z m 50.00402,-2.13435 c 0.0592,-3.97038 0.0907,-4.00228 4.25,-4.3075 l 4.19034,-0.3075 v -15.9425 -15.9425 h -3.5 -3.5 v 12.33333 c 0,6.78334 -0.18546,12.52084 -0.41214,12.75 -0.22667,0.22917 -4.27667,0.27111 -9,0.0932 l -8.58786,-0.32348 v -4.42652 c 0,-4.42653 0,-4.42653 -4,-4.42653 -4,0 -4,0 -4,-4.5 v -4.5 h 4.5 c 4.30531,0 4.5,0.12626 4.5,2.91821 0,4.6616 0.95905,6.08179 4.10699,6.08179 2.89301,0 2.89301,0 2.89301,-8 v -8 h -4 c -4,0 -4,0 -4,-4.5 0,-4.5 0,-4.5 -4,-4.5 -4,0 -4,0 -4,4.52988 v 4.52987 l -12.64194,-0.27987 -12.64194,-0.27988 -0.102,-4.41785 -0.102,-4.41785 7.39052,0.2397 c 8.18653,0.26551 9.05671,-0.27621 9.08205,-5.654 0.015,-3.18292 0.10819,-3.25 4.51531,-3.25 4.46256,0 4.5,-0.0287 4.5,-3.44521 0,-3.37325 -0.0943,-3.45157 -4.51513,-3.75 -2.48332,-0.16763 -4.50832,-0.64229 -4.5,-1.05479 0.008,-0.4125 0.0151,-6.15 0.0151,-12.75 v -12 h 4.5 4.5 v 8 8 h 4 c 4,0 4,0 4,-4 0,-4 0,-4 4,-4 h 4 v -8 -8 h -3.5 c -3.41667,0 -3.5,0.0952 -3.5,4 0,4 0,4 -4.5,4 h -4.5 v -8 -8 h -4 c -4,0 -4,0 -4,4 0,4 0,4 -4,4 -4,0 -4,0 -4,4 0,4 0,4 -4.5,4 -4.5,0 -4.5,0 -4.5,4 0,4 0,4 4.5,4 h 4.5 v 4.4425 c 0,4.4425 0,4.4425 -4.25,4.75 -4.22892,0.30597 -4.2503,0.32734 -4.30966,4.3075 -0.0592,3.97038 -0.0907,4.00228 -4.25,4.3075 -4.15988,0.30526 -4.19034,0.33615 -4.19034,4.25 0,3.9425 0,3.9425 -4.44098,3.9425 -5.15063,0 -5.30563,-0.18555 -4.59436,-5.5 0.50895,-3.80279 0.7079,-4 4.03534,-4 h 3.5 l 0.27477,-16.25 0.27477,-16.25 h -3.52477 c -3.44557,0 -3.52477,0.0899 -3.52477,4 0,4 0,4 -4.5,4 -4.5,0 -4.5,0 -4.5,4 0,4 0,4 4.5,4 h 4.5 v 4.5 c 0,4.5 0,4.5 -4,4.5 -2.2,0 -4.3375,0.0149 -4.75,0.0331 -0.4125,0.0182 -0.975,-1.66929 -1.25,-3.75 -0.45276,-3.42569 -0.78344,-3.78312 -3.5,-3.78312 -2.80009,0 -3,0.24993 -3,3.75066 0,2.06286 -0.45,3.7845 -1,3.82587 -0.55,0.0414 -3.925,0.0326 -7.5,-0.0195 -7.72907,-0.11268 -9.27174,0.6825 -8.83008,4.55152 l 0.33008,2.89147 h 12 12 l 0.5,8.5 0.5,8.5 3.5,0.16385 c 1.925,0.0901 3.95324,0.20262 4.50721,0.25 0.57255,0.049 0.85275,2.02807 0.6493,4.58615 -0.3579,4.5 -0.3579,4.5 -4.7572,4.5 -4.36112,0 -4.39931,0.0304 -4.39931,3.5 0,3.46961 0.0382,3.5 4.39931,3.5 4.3993,0 4.3993,0 4.7572,4.5 0.20432,2.56899 -0.0743,4.52491 -0.6493,4.55806 -0.55397,0.0319 -4.38221,0.14443 -8.50721,0.25 l -7.5,0.19194 v 3.5 c 0,3.33333 0.19048,3.52381 4,4 3.9399,0.49249 3.99509,0.55634 3.67338,4.25 -0.32662,3.75 -0.32662,3.75 3.82662,3.75 4.15324,0 4.15324,0 3.82662,-3.75 -0.32171,-3.69366 -0.26652,-3.75751 3.67338,-4.25 3.86681,-0.48335 4,-0.62489 4,-4.25066 0,-2.06286 0.45,-3.78912 1,-3.83614 0.55,-0.047 2.575,-0.15923 4.5,-0.24935 3.3776,-0.15812 3.50226,-0.30373 3.56467,-4.16385 0.0647,-4 0.0647,-4 4.5,-4 4.43533,0 4.43533,0 4.74283,4.25 l 0.3075,4.25 h 7.9425 7.9425 v 12.53078 12.53078 l 12.25,-0.28078 12.25,-0.28078 0.0597,-4 z m 50.2537,-7.75 c -0.26475,-2.74579 -0.7589,-3.30091 -3.18518,-3.57818 -3.65337,-0.41749 -5.0552,0.99065 -4.23591,4.25496 0.54182,2.1588 1.21664,2.57322 4.19014,2.57322 3.39632,0 3.53122,-0.1357 3.23095,-3.25 z m 67,0 c -0.28809,-2.98793 -0.59559,-3.25 -3.81336,-3.25 -3.21777,0 -3.52527,0.26207 -3.81336,3.25 -0.30779,3.19226 -0.24004,3.25 3.81336,3.25 4.0534,0 4.12115,-0.0577 3.81336,-3.25 z m 67.01326,-0.5 c -0.32171,-3.69366 -0.26652,-3.75751 3.67338,-4.25 3.80952,-0.47619 4,-0.66667 4,-4 0,-3.18709 -0.26821,-3.51414 -3,-3.65811 -1.65,-0.087 -3.45,-0.19911 -4,-0.24924 -0.55,-0.0501 -0.95092,-2.00397 -0.89094,-4.34189 0.10907,-4.25076 0.10907,-4.25076 4.28902,-4.56016 l 4.17994,-0.30941 -0.28901,-20.43068 c -0.31608,-22.34425 -0.55744,-21.45051 5.79278,-21.45051 3.10325,0 3.41821,-0.26656 3.41821,-2.89301 0,-3.14794 -1.42019,-4.10699 -6.08179,-4.10699 -2.79195,0 -2.91821,-0.19469 -2.91821,-4.5 0,-4.48835 -0.009,-4.5 -3.55038,-4.5 h -3.55037 l 0.16987,12.75 0.16988,12.75 -4.3695,0.5 c -4.07722,0.46655 -4.3695,0.70067 -4.3695,3.5 0,2.79705 0.29434,3.03383 4.3509,3.5 l 4.3509,0.5 -0.002,8.5 -0.002,8.5 -8.34904,0.5 c -8.34905,0.5 -8.34905,0.5 -8.65791,3.68963 -0.29921,3.09006 -0.17719,3.19931 3.90893,3.5 4.21779,0.31037 4.21779,0.31037 4.21271,4.79855 -0.005,4.48818 -0.005,4.48818 -3.62146,4.17661 -3.16674,-0.27283 -3.69661,0.008 -4.2617,2.25958 -1.07174,4.27017 0.12295,5.84668 4.08052,5.38465 3.42077,-0.39935 3.48986,-0.3355 3.48986,3.22511 0,4.48183 0.46234,4.96587 4.74328,4.96587 3.33179,0 3.40247,-0.086 3.08334,-3.75 z m -284.82662,-8.20956 v -3.95956 l 8.25,-0.29044 8.25,-0.29044 v -3.5 c 0,-3.38757 -0.12046,-3.49823 -3.75,-3.44491 -2.0625,0.0303 -3.79135,-0.41969 -3.84189,-1 -0.0505,-0.5803 -0.16304,-2.40509 -0.25,-4.05509 -0.1431,-2.71518 -0.53786,-3.04747 -4.15811,-3.5 -3.80952,-0.47619 -4.02381,-0.69048 -4.5,-4.5 -0.45833,-3.66667 -0.75,-4 -3.5,-4 h -3 l -0.27477,16.25 -0.27477,16.25 h 3.52477 c 3.43956,0 3.52477,-0.0957 3.52477,-3.95956 z m 167.5,-0.0404 c 0,-3.33333 0.19048,-3.52381 4,-4 l 4,-0.5 0.29284,-7.79284 0.29283,-7.79283 -7.79283,0.29283 -7.79284,0.29284 -0.15346,11 c -0.17726,12.7064 -0.17563,12.71141 3.99731,12.30636 2.88201,-0.27975 3.15615,-0.61037 3.15615,-3.80636 z m 42.29381,-3.75 c 0.18246,-4.5024 -0.10177,-7.29737 -0.75,-7.375 -0.5741,-0.0688 -1.94381,-0.2375 -3.04381,-0.375 -1.1,-0.1375 -2.69966,-0.30625 -3.55479,-0.375 -1.21542,-0.0977 -1.48826,-1.14871 -1.25,-4.81495 0.30479,-4.68995 0.30479,-4.68995 4.30479,-4.75 4,-0.06 4,-0.06 4.10784,-4.33456 0.0931,-3.68889 1.39216,-7.71593 1.39216,-4.31554 0,0.77251 1.23062,1.17591 3.25,1.06535 1.7875,-0.0979 3.7,-0.13268 4.25,-0.0774 0.62152,0.0625 1,6.2512 1,16.35132 v 16.25075 l 3.18963,0.30886 c 3.10047,0.30022 3.1983,0.18841 3.5,-4 0.30588,-4.24659 0.35929,-4.30395 3.69598,-3.96927 3.9133,0.39252 5.0769,-0.88302 5.09908,-5.58959 0.0148,-3.13251 0.16263,-3.25 4.09068,-3.25 3.99792,0 4.06918,-0.0618 3.75,-3.25 -0.29738,-2.97038 -0.66951,-3.29302 -4.32537,-3.75 -2.2,-0.275 -3.8875,-0.8375 -3.75,-1.25 0.1375,-0.4125 0.2497,-4.4625 0.24934,-9 l -6.5e-4,-8.25 h 3.75065 3.75066 l 0.29206,-7.75 0.29207,-7.75 h -3.48457 c -3.38459,0 -3.49339,0.12194 -3.79206,4.25 -0.30689,4.24151 -0.31614,4.25062 -4.62886,4.56098 -4.32137,0.31099 -4.32137,0.31099 -4.00117,4 l 0.32019,3.68902 -12.49883,0.5 -12.49883,0.5 v 3.75066 c 0,3.75065 0,3.75065 -5,3.75065 -5,0 -5,0 -5,-3.75065 0,-3.6198 -0.12211,-3.75066 -3.5,-3.75066 -3.40685,0 -3.5,0.10469 -3.5,3.93381 0,3.91174 -0.0224,3.93417 -4,4 -3.89215,0.0644 -4,0.16056 -4,3.56619 0,3.20849 0.24987,3.50515 3,3.56181 1.65,0.034 3.33061,-0.416 3.73469,-1 0.80183,-1.15885 1.07507,0.98147 0.79001,6.18819 -0.17625,3.21917 -0.13451,3.25 4.39868,3.25 h 4.57662 v 4.57662 c 0,4.53319 0.0308,4.57493 3.25,4.39868 4.55374,-0.24931 7.48782,0.0866 6,0.68698 -1.33274,0.53777 -1.73049,5.5239 -0.53594,6.71845 0.39273,0.39273 2.08023,0.58023 3.75,0.41666 3.03594,-0.29736 3.03594,-0.29736 3.32975,-7.54736 z m 42.20619,-0.25 v -8 h -4 -4 v 8 8 h 4 4 z M 88.870559,260.54724 v -12.53173 l -11.75,0.28173 -11.75,0.28174 -0.28571,10.93573 c -0.15715,6.01466 -0.0588,11.52716 0.21861,12.25 0.37627,0.98055 3.43237,1.31427 12.03572,1.31427 h 11.53138 z m -16.09883,4.63709 c -0.51711,-3.16718 -0.35006,-9.37208 0.27898,-10.36259 0.5432,-0.85535 0.794,-0.88415 0.80454,-0.0924 0.009,0.68203 1.33847,1.04506 3.26531,0.89168 4.57556,-0.36423 5.48462,0.70718 4.82073,5.68159 -0.56768,4.25348 -0.59345,4.2769 -4.82073,4.38169 -2.3375,0.0579 -4.29447,-0.16706 -4.34883,-0.5 z m 200.598831,-4.60535 v -12 h -12 -12 l -0.15584,11.49785 c -0.0857,6.32382 0.062,11.85029 0.32821,12.28106 0.26623,0.43076 5.73636,0.65673 12.15584,0.50215 l 11.67179,-0.28106 z m -16.5,0.3304 c 0,-4.33859 0.22908,-4.83179 2.25,-4.84405 1.2375,-0.008 3.21402,-0.27232 4.39227,-0.58846 1.93228,-0.51847 2.17862,-0.11776 2.51311,4.08792 0.46125,5.79939 0.30296,5.99606 -4.90538,6.09459 l -4.25,0.0804 v -4.83039 z m 142,8.1696 c 0,-3.85968 -0.11592,-4 -3.30449,-4 -3.14924,0 -3.31558,0.18793 -3.54051,4 -0.23354,3.95792 -0.19877,4 3.30449,4 3.46393,0 3.54051,-0.0865 3.54051,-4 z m 58.5,-8.5 v -12 h -11.5 -11.5 l -0.28572,10.93573 c -0.15714,6.01466 -0.0531,11.54198 0.23125,12.28293 0.40036,1.0433 3.05894,1.28337 11.78572,1.06427 l 11.26875,-0.28293 z m -16.00269,4.10262 c -0.8456,-2.85301 -1.29809,-8.61466 -0.68444,-8.71518 3.08034,-0.50462 9.20352,-0.27974 9.27046,0.34046 0.0458,0.42466 0.0833,2.3471 0.0833,4.2721 0,1.925 -0.0375,3.83944 -0.0833,4.2543 -0.13342,1.2077 -8.22548,1.06474 -8.58602,-0.15168 z m -50.49731,-4.60262 c 0,-4 0,-4 4,-4 h 4 v -12 -12 h -3.57662 c -3.52417,0 -3.57184,0.055 -3.25116,3.75 l 0.32545,3.75 -8.74884,0.28893 -8.74883,0.28894 v 3.96106 c 0,3.95458 0.007,3.96107 4,3.96107 h 4 v 8 8 h 4 c 4,0 4,0 4,-4 z m -159.5,-8 c 0,-3.33333 -0.16667,-3.5 -3.5,-3.5 -2.90098,0 -3.55632,0.39753 -3.82908,2.32273 -0.53033,3.74318 0.42261,4.88412 3.99013,4.77727 3.13023,-0.0937 3.33895,-0.31879 3.33895,-3.6 z m 58.31037,0.25 c -0.28397,-3.43103 -0.56555,-3.75 -3.31037,-3.75 -2.37782,0 -3.06825,0.48172 -3.32908,2.32273 -0.53077,3.7463 0.53557,5.17727 3.85806,5.17727 2.9612,0 3.07865,-0.15835 2.78139,-3.75 z M 55.666039,243.05689 c 0.29549,-4.52209 0.29549,-4.52209 4.29404,-4.14076 l 3.99854,0.38132 -0.29403,-7.85924 -0.29403,-7.85923 -5.44655,-0.30908 c -9.80974,-0.55667 -10.2033,-0.23952 -10.04455,8.09426 0.0756,3.96815 0.10556,7.66482 0.0666,8.21482 -0.0427,0.60303 -3.04948,0.86938 -7.57422,0.67096 -8.21602,-0.36029 -9.33258,0.38074 -8.08191,5.36377 0.63505,2.53026 0.63505,2.53026 11.85784,2.24777 l 11.22279,-0.2825 z m 83.793311,2.52433 c 0.95437,-3.80249 -0.15429,-5.50224 -3.58879,-5.50224 -3.4345,0 -4.54316,1.69975 -3.58879,5.50224 0.90599,3.60977 6.27159,3.60977 7.17758,0 z m 83.41121,-5.50224 v -8 h -3.5 -3.5 v 7.33333 c 0,8.24257 0.20389,8.66667 4.16667,8.66667 2.83333,0 2.83333,0 2.83333,-8 z m 83.5,4 c 0,-3.33333 -0.19048,-3.52381 -4,-4 -3.9399,-0.49249 -3.99509,-0.55634 -3.67338,-4.25 0.32662,-3.75 0.32662,-3.75 -3.75,-3.75 h -4.07662 v 6.41821 c 0,9.66194 0.046,9.71349 8.37285,9.37312 l 7.12715,-0.29133 z M 122.66274,231.40971 c 0.26391,-6.47558 0.0946,-7.23193 -1.75,-7.81738 -4.72927,-1.50101 -6.04218,0.10419 -6.04218,7.38733 0,7.74776 0.314,8.3032 4.46406,7.89667 3.03594,-0.29739 3.03594,-0.29739 3.32812,-7.46662 z m 117.04077,3.71471 c -0.37713,-3.95451 -0.37713,-3.95451 4.14496,-4.25 l 4.52209,-0.29548 v -7.5 -7.5 l -4.25,-0.3075 c -4.25,-0.3075 -4.25,-0.3075 -4.25,-4.75 0,-4.41048 -0.0252,-4.4425 -3.5,-4.4425 h -3.5 v 16.5 16.5 h 3.60504 c 3.59587,0 3.60407,-0.0101 3.22791,-3.95452 z m 33.94879,-8.29548 0.28173,-11.75 -2.78173,0.0153 c -4.23929,0.0233 -5.60453,1.33199 -5.08469,4.8739 0.26542,1.80847 0.006,3.15166 -0.62024,3.20841 -0.59225,0.0537 -2.53931,0.11203 -4.32681,0.12964 l -3.25,0.032 v 7.91242 7.91242 l 7.75,-0.29207 7.75,-0.29206 0.28174,-11.75 z m 41.71826,8.75 c 0,-2.74482 -0.31897,-3.0264 -3.75,-3.31037 -3.54089,-0.29305 -3.75,-0.149 -3.75,2.58334 0,3.71643 0.74567,4.38867 4.46406,4.02442 2.64051,-0.25865 3.03594,-0.68814 3.03594,-3.29739 z m 16.70956,-4.75 0.29044,-8.25 4.18984,-0.30456 c 4.18983,-0.30456 4.18983,-0.30456 4.5,4 0.30218,4.19375 0.40026,4.30456 3.81016,4.30456 h 3.5 v -7.5 -7.5 l -12.50498,-0.27805 -12.50497,-0.27804 0.35567,-4.47196 0.35567,-4.47195 h 12.3993 12.39931 v -4 c 0,-3.99319 -0.007,-4 -3.95956,-4 h -3.95956 l -0.29044,-8.25 -0.29044,-8.25 -7.75,-0.29206 -7.75,-0.29207 v 8.54207 8.54206 h -4.5 c -4.5,0 -4.5,0 -4.5,4 0,4 0,4 -4,4 -4,0 -4,0 -4,4.45956 v 4.45956 l -8.25,0.29044 c -8.25,0.29044 -8.25,0.29044 -8.55886,3.48007 -0.30022,3.10047 -0.18841,3.1983 4,3.5 4.30831,0.31033 4.3089,0.31092 4.61923,4.61923 0.3017,4.18841 0.39953,4.30022 3.5,4 2.98024,-0.28858 3.20982,-0.58786 3.49713,-4.55886 0.3075,-4.25 0.3075,-4.25 4.6925,-4.25 4.385,0 4.385,0 4.6925,4.25 0.30597,4.22892 0.32734,4.2503 4.3075,4.30966 3.97038,0.0592 4.00228,0.0907 4.3075,4.25 0.29639,4.03906 0.43032,4.19034 3.70956,4.19034 h 3.40206 z m 108.58365,0.5299 c 0.28275,-6.96268 0.20455,-7.24236 -2.19317,-7.84415 -3.94622,-0.99043 -4.60004,0.17317 -4.60004,8.18663 v 7.50434 l 3.25,-0.31336 c 3.25,-0.31336 3.25,-0.31336 3.54321,-7.53346 z m -33.29321,-4.2799 c 0,-3.33333 -0.16667,-3.5 -3.5,-3.5 -2.90098,0 -3.55632,0.39753 -3.82908,2.32273 -0.56628,3.9969 0.52391,5.3331 4.0722,4.99114 2.9957,-0.2887 3.25688,-0.59455 3.25688,-3.81387 z M 80.870559,219.04756 c 0,-3.40184 -1.71199,-4.50871 -5.50223,-3.55741 -1.96488,0.49315 -2.49777,1.26287 -2.49777,3.60784 0,2.81111 0.2279,2.98095 4,2.98095 3.78698,0 4,-0.16144 4,-3.03138 z m 284.813361,-0.21862 c -0.28809,-2.98793 -0.59559,-3.25 -3.81336,-3.25 -3.21777,0 -3.52527,0.26207 -3.81336,3.25 -0.30779,3.19226 -0.24004,3.25 3.81336,3.25 4.0534,0 4.12115,-0.0577 3.81336,-3.25 z m 33.18664,-17.1925 v -20.4425 l 4.25,-0.3075 4.25,-0.3075 v -12 -12 l -4,-0.0597 c -3.97038,-0.0592 -4.00228,-0.0907 -4.3075,-4.25 -0.30526,-4.15984 -0.33615,-4.1903 -4.25,-4.1903 -3.9425,0 -3.9425,0 -3.9425,-4.5 0,-4.5 0,-4.5 -4,-4.5 h -4 v 8.5 8.5 h -4 c -4,0 -4,0 -4,4.07347 v 4.07348 l 8.50259,-0.32348 c 9.31172,-0.35425 9.20254,-0.42027 8.66292,5.23817 l -0.37558,3.93836 h -12.39497 -12.39496 v 4.07537 c 0,3.82314 0.17019,4.06414 2.75,3.89403 4.98004,-0.32837 5.25,-0.12111 5.25,4.0306 0,4 0,4 4,4 3.98278,0 4,-0.0168 4,-3.89931 0,-3.8993 0,-3.8993 4.57052,-4.26281 2.51378,-0.19993 4.65128,-0.28478 4.75,-0.18856 0.0987,0.0962 0.0339,4.03949 -0.14399,8.76282 l -0.32348,8.58786 h -4.42652 c -4.42653,0 -4.42653,0 -4.42653,4 0,4 0,4 -4.5,4 h -4.5 v -8 -8 h -8 -8 v 8 8 h 4.5 c 4.5,0 4.5,0 4.5,4 v 4 h 8 8 v -4 c 0,-4 0,-4 4.5,-4 h 4.5 v 8 8 h 3.5 3.5 z m -326.000001,8.4425 c 0,-4 0,-4 4,-4 4,0 4,0 4,-4 v -4 h -8 -8 v 4 c 0,4 0,4 -4,4 -4,0 -4,0 -4,4 v 4 h 8 8 z m 66.950141,-12.68123 -0.13426,-16.68123 3.84206,-0.0688 c 3.71116,-0.0664 3.84206,-0.18799 3.84206,-3.56874 v -3.5 l -8,-0.12313 -8,-0.12312 -0.3075,-4.12688 c -0.29525,-3.96249 -0.44232,-4.12687 -3.6925,-4.12687 -3.25921,0 -3.39643,0.15572 -3.6925,4.19034 -0.30522,4.15931 -0.33712,4.19078 -4.3075,4.25 -3.90406,0.0582 -4.01199,0.1556 -4.5,4.05966 -0.47619,3.80952 -0.66667,4 -4,4 -3.33333,0 -3.5,0.16667 -3.5,3.5 0,3.36799 0.151,3.51114 4.00359,3.79546 4.00359,0.29546 4.00359,0.29546 3.64931,4.75 -0.35397,4.45055 -0.35778,4.45454 -4.25359,4.45454 -3.88253,0 -3.89931,0.0172 -3.89931,4 v 4 h 8.10069 8.1007 l -0.3579,-4.5 -0.3579,-4.5 h 4.7572 4.75721 v 8.5 8.5 h 4.0422 4.0422 z m -17.10022,-11.7379 c -0.35147,-4.41913 -0.35147,-4.41913 3.88185,-4.75582 5.77941,-0.45965 5.82967,-0.41631 5.42456,4.67729 -0.35772,4.49766 -0.35772,4.49766 -4.65633,4.49766 -4.29861,0 -4.29861,0 -4.65008,-4.41913 z m 142.15008,20.41913 v -8 h -3.5 c -3.41667,0 -3.5,0.0952 -3.5,4 0,4 0,4 -4.5,4 h -4.5 v -7.94521 -7.94521 l -4.65921,-0.30479 -4.65922,-0.30479 0.22276,-8.25 0.22275,-8.25 h -3.50604 c -3.40134,0 -3.51523,0.12514 -3.81354,4.19034 -0.30522,4.15931 -0.33712,4.19078 -4.3075,4.25 l -4,0.0597 -0.29323,7.81468 -0.29323,7.81468 8.29323,-0.22389 8.29323,-0.2239 0.30479,4.65922 c 0.30479,4.65917 0.30479,4.65917 4.25,4.65917 3.93608,0 3.94521,0.009 3.94521,4 v 4 h 8 8 z m 25,4 v -4 h -8 -8 v 4 4 h 8 8 z m 67,0 c 0,-3.90476 -0.0833,-4 -3.5,-4 -3.41667,0 -3.5,0.0952 -3.5,4 0,3.90476 0.0833,4 3.5,4 3.41667,0 3.5,-0.0952 3.5,-4 z m -201,-8 c 0,-3.90476 -0.0833,-4 -3.5,-4 -3.41667,0 -3.5,0.0952 -3.5,4 0,3.90476 0.0833,4 3.5,4 3.41667,0 3.5,-0.0952 3.5,-4 z m 151,-4 v -8 h -3.9425 c -3.92334,0 -3.944,-0.0207 -4.25,-4.25 -0.29896,-4.13191 -0.40475,-4.25 -3.8075,-4.25 -3.40275,0 -3.50854,0.11809 -3.8075,4.25 -0.306,4.22934 -0.32666,4.25 -4.25,4.25 -3.69562,0 -3.9425,0.18402 -3.9425,2.93873 0,2.69081 0.35863,2.9925 4.25114,3.57622 4.25115,0.6375 4.25115,0.6375 3.89931,5.06128 l -0.35184,4.42377 h 8.1007 8.10069 z m 126,0 v -8 h -8.06336 -8.06336 l 0.31336,3.25 c 0.27306,2.83205 0.69916,3.27033 3.31336,3.40811 1.65,0.087 3.45324,0.19946 4.00721,0.25 0.57206,0.0522 0.85258,2.03603 0.6493,4.59189 l -0.3579,4.5 h 4.1007 4.10069 z m 25,4 c 0,-4 0,-4 -4,-4 -4,0 -4,0 -4,4 0,4 0,4 4,4 4,0 4,0 4,-4 z m 33,-4 v -8 h -3.5 c -3.41667,0 -3.5,0.0952 -3.5,4 0,4 0,4 -4.5,4 -4.5,0 -4.5,0 -4.5,4 v 4 h 8 8 z M 88.870559,189.0154 v -8.06354 l -8.1828,0.21631 -8.1828,0.2163 -0.0672,-3.90277 -0.0672,-3.90276 -7.75,-0.29206 -7.75,-0.29207 v 8.09367 8.09367 l 11.75,-0.10684 c 6.4625,-0.0588 12.21189,-0.082 12.77643,-0.0516 0.5892,0.0317 0.86393,1.7591 0.64496,4.05523 -0.38122,3.9975 -0.37921,4 3.22358,4 h 3.60503 z m 17.000001,4.56354 c 0,-3.33333 -0.16667,-3.5 -3.5,-3.5 -3.333331,0 -3.500001,0.16667 -3.500001,3.5 0,3.33333 0.16667,3.5 3.500001,3.5 3.33333,0 3.5,-0.16667 3.5,-3.5 z m 83.99637,-8.25 c -0.0588,-6.4625 -0.082,-12.20324 -0.0516,-12.75721 0.0315,-0.57524 1.98514,-0.85371 4.55523,-0.6493 4.5,0.3579 4.5,0.3579 4.5,4.7572 0,4.39931 0,4.39931 4,4.39931 4,0 4,0 4,4 0,4 0,4 4,4 4,0 4,0 4,-4 0,-4 0,-4 -4,-4 -4,0 -4,0 -4,-4.5 0,-4.5 0,-4.5 4,-4.5 4,0 4,0 4,-4 0,-4 0,-4 4,-4 4,0 4,0 4,-4 v -4 h -8 -8 v 4.5 4.5 h -8.42653 -8.42652 l -0.32348,-8.60364 c -0.37523,-9.9804 -0.4107,-9.89636 4.17653,-9.89636 3.37206,0 3.50118,-0.13708 3.53219,-3.75 l 0.0322,-3.75 h -15.78219 -15.78219 v 4.07615 4.07614 l 8.00235,-0.32614 c 4.40129,-0.17938 8.03291,-0.10115 8.07026,0.17385 0.0374,0.275 0.14558,2.46724 0.2405,4.87163 l 0.1726,4.37164 -7.99285,0.12836 -7.99287,0.12837 -0.5,4 c -0.47619,3.80952 -0.69048,4.02381 -4.5,4.5 -3.66667,0.45833 -4,0.75 -4,3.5 0,3 0,3 8.19443,3.28954 l 8.19444,0.28955 0.30556,4.21045 c 0.30211,4.16279 0.34977,4.21122 4.20942,4.27763 3.90384,0.0672 3.90384,0.0672 3.90893,4.5 0.005,4.43283 0.005,4.43283 -4.15385,4.74033 -3.80588,0.28139 -4.15893,0.54313 -4.15893,3.08333 0,3.90162 0.44036,4.10917 8.71827,4.10917 h 7.38494 z m -17.49637,-0.25 c 0,-3.21777 -0.26207,-3.52527 -3.25,-3.81336 -3.09029,-0.29796 -3.25,-0.14644 -3.25,3.08333 0,4.13427 0.67826,4.90895 3.96258,4.52594 2.17688,-0.25386 2.53742,-0.79322 2.53742,-3.79591 z m 83.29935,3.14517 c 0.91235,-0.57872 1.21019,-2.88243 1,-7.73469 l -0.29935,-6.91048 h -3.5 -3.5 l -0.29935,6.91048 c -0.30431,7.02506 0.37657,8.55889 3.79935,8.55889 0.825,0 2.08471,-0.37089 2.79935,-0.8242 z m 201.03073,-0.019 c 0.75546,-0.47892 1.18747,-2.09236 1,-3.73469 -0.29395,-2.57501 -0.71315,-2.89148 -3.83008,-2.89148 -3.32744,0 -3.52639,-0.19721 -4.03534,-4 -0.71047,-5.30847 -0.55248,-5.5 4.53686,-5.5 4.38348,0 4.38348,0 4.69098,4.25 0.30328,4.19174 0.36294,4.25408 4.35116,4.54742 3.96562,0.29167 4.03599,0.36318 3.64587,3.70481 -0.47395,4.05973 1.21597,4.79759 9.86392,4.30685 5.44655,-0.30908 5.44655,-0.30908 5.44655,-3.80908 0,-3.33333 -0.16667,-3.5 -3.5,-3.5 -3.33333,0 -3.52381,-0.19048 -4,-4 -0.488,-3.90398 -0.59602,-4.00144 -4.5,-4.06005 -4,-0.0601 -4,-0.0601 -4.30234,-4.68995 l -0.30234,-4.62989 4.30234,-0.31005 c 4.19123,-0.30205 4.30234,-0.40045 4.30234,-3.81006 0,-3.40672 -0.1066,-3.50159 -4,-3.55966 -3.9768,-0.0593 -4.00179,-0.0842 -4.3095,-4.29099 l -0.3095,-4.23134 -7.6905,0.291 c -7.6905,0.29099 -7.6905,0.29099 -7.84861,3.29099 -0.087,1.65 -0.19946,3.45412 -0.25,4.00917 -0.0564,0.61998 -3.17705,0.87084 -8.09189,0.65048 l -8,-0.35869 v 8.07669 8.07668 l 3.75,-0.22717 c 3.75,-0.22716 3.75,-0.22716 4.29597,4.52284 0.58122,5.05674 0.56946,5.06845 -4.79597,4.7747 -3.06606,-0.16786 -3.25,0.0151 -3.25,3.23202 0,1.87547 0.3,3.70995 0.66667,4.07661 0.97118,0.97118 20.59399,0.78777 22.16341,-0.20715 z m -359.269131,-11.62617 0.0609,-4 8.439051,-0.5 c 8.43906,-0.5 8.43906,-0.5 8.74945,-3.71019 l 0.31039,-3.21018 -8.74809,-0.28982 -8.748081,-0.28981 -0.0623,-4 c -0.0569,-3.65096 -0.31462,-4.0288 -2.9538,-4.33008 -4.08329,-0.46612 -4.57587,0.92765 -4.59319,12.99675 -0.0163,11.32771 0.22822,11.89304 4.98468,11.52616 2.20638,-0.17018 2.50716,-0.66262 2.56095,-4.19283 z m 125.439051,0.43664 c 0,-3.98191 -0.0651,-4.05708 -3.25,-3.75 -5.49039,0.52937 -5.28659,7.81336 0.21862,7.81336 2.87782,0 3.03138,-0.20583 3.03138,-4.06336 z m 66.8075,-0.68664 0.3075,-4.25 h 4.885 4.885 l 0.3075,4.25 0.3075,4.25 9.5,0.29317 c 12.82884,0.39591 14.20392,-0.0101 13.8108,-4.07748 -0.3108,-3.21569 -0.3108,-3.21569 -8.10802,-3.34624 -4.28847,-0.0718 -8.04382,-0.37716 -8.34524,-0.67857 -0.30141,-0.30141 -0.55056,-4.29267 -0.55368,-8.86945 l -0.006,-8.32143 4.3509,-0.5 c 4.05656,-0.46617 4.3509,-0.70295 4.3509,-3.5 0,-2.80994 -0.26674,-3.01936 -4.21046,-3.30557 l -4.21045,-0.30556 -0.28955,-8.19444 -0.2892,-8.19443 -7.25,-0.32878 c -5.48484,-0.24873 -7.27896,-0.005 -7.36894,1 -0.56877,6.35442 -0.58516,6.32548 3.61894,6.39345 4,0.0647 4,0.0647 4,4.90385 v 4.83917 l -4.5,0.005 -4.5,0.005 -0.3072,-4.71761 c -0.30275,-4.64916 -0.35353,-4.71312 -3.5,-4.40851 -2.97064,0.28758 -3.21387,0.59809 -3.49558,4.46259 -0.30196,4.1422 -0.31489,4.15447 -4.75,4.50721 -2.44597,0.19454 -4.47884,0.12546 -4.51748,-0.1535 -0.0386,-0.27897 -0.1486,-2.50304 -0.24434,-4.94239 -0.17409,-4.43518 -0.17409,-4.43518 3.82026,-4.5 3.87132,-0.0628 4.00382,-0.17891 4.302,-3.76941 0.30766,-3.7046 0.30766,-3.7046 -4,-3.5 l -4.30766,0.20393 0.33599,-4.25 c 0.33599,-4.25 0.33599,-4.25 -3.82662,-4.25 -4.06611,0 -4.15848,0.0753 -3.98467,3.25 0.31305,5.71793 0.21927,5.85565 -3.7747,5.54328 -3.67693,-0.28757 -3.75974,-0.21651 -4.25,3.64649 -0.48653,3.83366 -0.60774,3.9414 -4.5,4 l -4,0.0602 v 12 12 l 4.25,0.3075 c 4.22934,0.306 4.25,0.32666 4.25,4.25 0,3.83905 0.0918,3.9425 3.5,3.9425 h 3.5 v -8 -8 h -3.89496 c -3.80373,0 -3.90377,-0.0923 -4.27055,-3.93836 -0.52794,-5.53591 -0.35724,-5.71445 4.88154,-5.10597 4.57363,0.53122 4.68765,0.62861 4.73522,4.04433 l 0.0487,3.5 8.34905,0.5 8.34904,0.5 -0.004,8.32143 c -0.004,9.55658 0.0186,9.51199 -4.95614,9.6071 -3.35952,0.0642 -3.77157,0.36434 -4.06822,2.96296 -0.44435,3.8926 1.13145,4.67182 8.83008,4.36639 l 6.5,-0.25788 0.3075,-4.25 z m 67.38771,0.06 c 0.30479,-4.68995 0.30479,-4.68995 4.30479,-4.75 3.76729,-0.0566 4.01823,-0.24913 4.31336,-3.31005 0.31164,-3.23217 0.28864,-3.25 -4.1925,-3.25 -4.50586,0 -4.50586,0 -4.81336,-4.25 -0.28849,-3.98722 -0.49299,-4.25 -3.3075,-4.25 h -3 l -0.28572,10.93573 c -0.33805,12.93922 -0.16756,13.56432 3.69954,13.56432 2.83569,0 2.99103,-0.22202 3.28139,-4.68995 z m 66.61922,0.37179 c 0.31071,-3.77306 0.27527,-3.81441 -3,-3.5 -2.72126,0.26122 -3.3482,0.76557 -3.50311,2.81816 -0.30745,4.07361 0.46559,5.15829 3.43299,4.81697 2.40416,-0.27653 2.7958,-0.80404 3.07012,-4.13513 z M 47.688729,168.26451 c 0.3143,-3.27422 0.27194,-3.31061 -3.49169,-3 -2.72954,0.22527 -3.90707,0.82722 -4.15274,2.12284 -0.64812,3.41822 0.63301,4.83663 4.06939,4.50546 2.88008,-0.27756 3.29368,-0.69732 3.57504,-3.6283 z m 32.99519,0.0644 c 0.30708,-3.18486 0.23191,-3.25 -3.75,-3.25 -3.79506,3e-5 -4.06336,0.18711 -4.06336,2.83336 0,3.61364 0.46118,4.02153 4.32665,3.82665 2.80952,-0.14164 3.20928,-0.5326 3.48671,-3.40998 z m 151.004801,-0.0644 c 0.31431,-3.27422 0.27195,-3.31061 -3.49168,-3 -2.72954,0.22527 -3.90708,0.82722 -4.15274,2.12284 -0.64812,3.41822 0.63301,4.83663 4.06938,4.50546 2.88009,-0.27756 3.29369,-0.69732 3.57504,-3.6283 z m 16.9952,0.0644 c 0.30708,-3.18486 0.23191,-3.25 -3.75,-3.25 -3.79506,0 -4.06336,0.18708 -4.06336,2.83333 0,3.65413 0.75787,4.32711 4.46406,3.96406 2.61972,-0.25662 3.0789,-0.74295 3.3493,-3.54739 z m 83.18664,0.15003 c 0,-3.21905 -0.18627,-3.4 -3.5,-3.4 -3.31373,0 -3.5,0.18095 -3.5,3.4 0,3.21905 0.18627,3.4 3.5,3.4 3.31373,0 3.5,-0.18095 3.5,-3.4 z M 72.430219,159.50898 c 0.0592,-3.89725 0.0951,-3.93263 4.30886,-4.24041 4.1214,-0.30104 4.2399,-0.4063 3.94034,-3.5 l -0.30886,-3.18963 -11.75,-0.28174 -11.75,-0.28173 v 3.47424 c 0,3.37243 0.12453,3.48324 4.25,3.78173 4.13638,0.29928 4.24137,0.39378 3.92701,3.53488 -0.43831,4.3796 0.43497,5.42881 4.16019,4.99825 2.93951,-0.33974 3.16701,-0.64301 3.22246,-4.29559 z m 49.940341,0.56996 c 0,-3.33333 -0.16667,-3.5 -3.5,-3.5 -2.90098,0 -3.55632,0.39753 -3.82908,2.32273 -0.56628,3.9969 0.52391,5.3331 4.0722,4.99114 2.9957,-0.2887 3.25688,-0.59455 3.25688,-3.81387 z m 33.31443,-0.31816 c 0.31071,-3.77306 0.27527,-3.81441 -3,-3.5 -2.82143,0.27083 -3.36353,0.74825 -3.64451,3.20965 -0.36285,3.17864 1.20937,4.76326 4.33008,4.36424 1.53937,-0.19683 2.07242,-1.13511 2.31443,-4.07389 z m 83.68557,0.31816 c 0,-3.22222 -0.2381,-3.5 -3,-3.5 -2.75462,0 -3.02572,0.3123 -3.31443,3.81816 -0.31071,3.77306 -0.27527,3.81441 3,3.5 3.06065,-0.2938 3.31443,-0.58615 3.31443,-3.81816 z m 100.81336,3.09919 c 0.44735,-0.0546 0.67235,-1.56169 0.5,-3.34919 -0.28809,-2.98793 -0.59559,-3.25 -3.81336,-3.25 -2.90098,0 -3.55632,0.39753 -3.82908,2.32273 -0.64243,4.53438 0.31705,5.10886 7.14244,4.27646 z m 83.45735,-19.86981 0.2707,-20.22938 h -3.59685 -3.59685 l 0.32614,8.00235 c 0.19788,4.85523 -0.0671,8.0302 -0.67385,8.07317 -0.55,0.0389 -4.24667,0.009 -8.21482,-0.0666 -6.95689,-0.13252 -7.2378,-0.0458 -7.85784,2.4246 -1.20072,4.78403 -0.18183,5.4607 8.69607,5.7753 l 8.21781,0.2912 -0.2373,7.23758 c -0.27741,8.46088 0.0298,9.20896 3.66707,8.93027 l 2.72901,-0.2091 0.27071,-20.22937 z m -284.1126,8.27062 c 0.087,-1.65 0.19916,-3.45 0.24934,-4 0.0502,-0.55 1.77903,-1 3.84189,-1 h 3.75066 v -7.5 -7.5 h -3.5 c -3.40685,0 -3.5,0.10469 -3.5,3.93381 0,3.91174 -0.0224,3.93417 -4,4 l -4,0.0662 -0.2932,7.81294 -0.29319,7.81294 3.79319,-0.31294 c 3.43627,-0.28349 3.80808,-0.59523 3.95131,-3.31294 z m 67.34189,0 c 0,-3.41667 -0.0952,-3.5 -4,-3.5 -3.90476,0 -4,0.0833 -4,3.5 0,3.41667 0.0952,3.5 4,3.5 3.90476,0 4,-0.0833 4,-3.5 z m 24.81336,0.25 c -0.28783,-2.98527 -0.59734,-3.25 -3.79966,-3.25 -2.56814,0 -3.57803,0.47627 -3.83458,1.80841 -0.64113,3.32915 0.62293,4.69159 4.35285,4.69159 3.45322,0 3.58241,-0.12795 3.28139,-3.25 z m 100.18664,-0.25 c 0,-3.33333 -0.16667,-3.5 -3.5,-3.5 -3.33333,0 -3.5,0.16667 -3.5,3.5 0,3.33333 0.16667,3.5 3.5,3.5 3.33333,0 3.5,-0.16667 3.5,-3.5 z m 16.82662,-0.25 c -0.32651,-3.74879 -0.32527,-3.7501 3.86856,-4.05482 4.1387,-0.30071 4.19929,-0.36008 4.5,-4.40963 l 0.30482,-4.1048 8.25,0.22316 8.25,0.22317 v -8.82075 -8.82074 l 4.5,0.3579 4.5,0.3579 v -8.04591 -8.0459 l -4.75,-0.30479 c -4.75,-0.30479 -4.75,-0.30479 -4.61945,-4.05479 0.12921,-3.711524 0.0907,-3.750004 -3.75,-3.750004 -3.61728,0 -3.88903,-0.20353 -4.00555,-3 -0.0688,-1.65 -0.18249,-3.5625 -0.25275,-4.25 -0.0787,-0.77022 -1.662,-1.25 -4.125,-1.25 h -3.99725 v -8.91796 -8.91796 l 4,-0.082 c 3.88914,-0.0798 4,-0.17905 4,-3.58204 0,-3.40672 -0.1066,-3.50159 -4,-3.55966 -3.97038,-0.0592 -4.00228,-0.0907 -4.3075,-4.25 -0.29905,-4.07521 -0.40497,-4.19034 -3.85503,-4.19034 -3.53571,0 -3.54627,0.0133 -3.16608,4 l 0.38146,4 h -7.19464 c -10.83615,0 -10.35821,-0.5799 -10.35821,12.56805 v 11.35408 l 8.56558,0.28893 8.56557,0.28894 0.18443,12.714874 0.18442,12.71488 -8.5,0.28512 -8.5,0.28513 v 3.5 3.5 h 8 8 l 0.5,8.75213 c 0.31279,5.47514 0.12558,8.78359 -0.5,8.83615 -0.55,0.0462 -2.575,0.15775 -4.5,0.24787 -3.5,0.16385 -3.5,0.16385 -3.80147,6.55852 -0.39172,8.30893 -0.0115,9.10533 4.3467,9.10533 3.56065,0 3.60372,-0.0492 3.28139,-3.75 z m 8.48588,-37.87802 c -0.24517,-0.63891 -0.30328,-2.85568 -0.12913,-4.92614 0.31526,-3.74818 0.33613,-3.76448 4.81663,-3.76368 4.5,8.1e-4 4.5,8.1e-4 4.80051,4.55461 l 0.30052,4.55381 -4.67138,0.37153 c -2.93877,0.23373 -4.83672,-0.0593 -5.11715,-0.79013 z M 340.7027,76.769616 c -0.18268,-2.68567 -0.002,-5.40225 0.40255,-6.03686 0.5241,-0.82311 0.73907,-0.77358 0.75,0.1728 0.01,0.86396 1.14875,1.26456 3.26531,1.14868 5.15601,-0.28229 5.2558,-0.1993 5.13923,4.27394 -0.11078,4.25076 -0.11078,4.25076 -4.66787,4.78761 l -4.55708,0.53685 z m 33.15255,76.059324 c -0.0288,-4.23405 -1.22321,-4.86778 -8.57421,-4.54935 -6.91048,0.29935 -6.91048,0.29935 -7.22384,3.54935 l -0.31336,3.25 h 8.06336 c 7.69987,0 8.06267,-0.10143 8.04805,-2.25 z M 88.870559,143.01558 c 0,-3.98191 -0.0651,-4.05708 -3.25,-3.75 -5.49039,0.52937 -5.28659,7.81336 0.21862,7.81336 2.87782,0 3.03138,-0.20583 3.03138,-4.06336 z m 33.500001,-3.93664 v -7.5 h -3.5 c -3.5,0 -3.5,0 -3.80147,6.39467 -0.39434,8.36447 0.0326,9.30585 4.04459,8.9192 l 3.25688,-0.31387 z m 117.31037,4.25 c -0.28335,-3.42358 -0.59327,-3.77728 -3.56037,-4.06336 -3.18486,-0.30708 -3.25,-0.23191 -3.25,3.75 0,3.9903 0.064,4.06336 3.56037,4.06336 3.5027,0 3.55533,-0.0607 3.25,-3.75 z m 83.75144,0.25 c 0.0693,-3.36232 -0.99592,-4.46222 -4.34319,-4.48469 -2.6816,-0.018 -3.68746,1.98055 -2.79216,5.54773 0.54605,2.1756 1.12349,2.51204 3.85785,2.24776 2.8206,-0.27261 3.22328,-0.67939 3.2775,-3.3108 z m 126.02698,1.00224 c 1.00334,-3.99762 -0.17391,-5.67832 -3.83687,-5.47771 -5.19836,0.28471 -5.37251,0.16552 -4.95712,-3.39253 0.34446,-2.95059 0.066,-3.45012 -2.24679,-4.03059 -4.02394,-1.00995 -4.54801,-0.093 -4.54801,7.95761 v 7.44098 h 7.48095 c 7.1439,0 7.50919,-0.11253 8.10784,-2.49776 z m 41.22564,-1.8204 c 0.31071,-3.77306 0.27527,-3.81441 -3,-3.5 -3.0526,0.29303 -3.33927,0.61978 -3.62886,4.13632 -0.31071,3.77306 -0.27527,3.81441 3,3.5 3.0526,-0.29303 3.33927,-0.61978 3.62886,-4.13632 z m -275.81443,-8.18184 v -4.5 h 8.5 8.5 v -3.5 c 0,-3.48148 -0.0238,-3.5 -4.5,-3.5 h -4.5 v -12.5 -12.500004 h -12.5 -12.5 l -0.11842,-3.75 c -0.0651,-2.0625 -0.0588,-4.10655 0.0141,-4.54232 0.0729,-0.43578 -3.36133,-0.66078 -7.63158,-0.5 l -7.7641,0.29232 -0.20719,12.000004 c -0.28456,16.4806 -0.17727,15.23061 -1.17251,13.66041 -0.46699,-0.73678 -2.1476,-1.25159 -3.73469,-1.14404 -1.58708,0.10756 -3.33561,0.14758 -3.88561,0.0889 -0.60644,-0.0647 -1,-4.92748 -1,-12.35596 V 89.578896 h -3 -3 v 16.000004 16 h 7.75087 7.75086 l -8.6e-4,4.25 -8.7e-4,4.25004 h 8.5 8.5 v 4.5 4.5 h 8 8 z m -8,-15.89931 c 0,-4.3993 0,-4.3993 4.5,-4.7572 l 4.5,-0.3579 v 4.7572 4.75721 h -4.5 -4.5 z m -17,-9.10069 v -5.01441 l 4.5,0.3579 c 4.5,0.3579 4.5,0.3579 4.5,4.65651 0,4.29861 0,4.29861 -4.5,4.65651 l -4.5,0.3579 z m 141.79099,21.3095 0.291,-7.6905 -4.291,-0.3095 c -3.56866,-0.2574 -4.23633,-0.6267 -3.9663,-2.19385 0.97342,-5.64931 -0.3836,-6.7224 -8.10459,-6.40886 l -7.2201,0.29321 v 3.5 c 0,3.39806 0.10923,3.49668 3.75,3.38594 2.10981,-0.0642 3.79019,0.37321 3.84189,1 0.0505,0.61273 0.16304,2.46406 0.25,4.11406 0.14678,2.78508 0.46259,3.02203 4.40811,3.3075 4.19532,0.30354 4.25,0.35607 4.25,4.08333 0,4.52125 0.62456,5.29435 3.96258,4.90508 2.44157,-0.28473 2.54841,-0.58642 2.82841,-7.98641 z m 67.20901,4.1905 c 0,-3.90476 -0.0833,-4 -3.5,-4 -3.41667,0 -3.5,0.0952 -3.5,4 0,3.90476 0.0833,4 3.5,4 3.41667,0 3.5,-0.0952 3.5,-4 z M 139.40569,129.0221 c 0.35923,-0.58125 0.37722,-2.15625 0.04,-3.5 -0.58195,-2.31851 -0.9949,-2.44316 -8.09418,-2.44316 h -7.48095 v 3.5 3.5 h 7.44098 c 4.14875,0 7.72997,-0.46759 8.09415,-1.05684 z m 16.25693,-6.69316 c -0.29206,-7.75 -0.29206,-7.75 -3.29206,-7.75 -3,0 -3,0 -3.29206,7.75 l -0.29207,7.75 h 3.58413 3.58413 z m 100.03802,-1.12382 c 0.75546,-0.47892 1.18747,-2.09236 1,-3.73469 -0.32994,-2.89029 -0.33362,-2.8917 -8.83008,-3.39149 l -8.5,-0.5 v -3.5 c 0,-3.21777 -0.26207,-3.52527 -3.25,-3.81336 l -3.25,-0.31336 v 8.06336 8.06336 l 10.75,-0.0153 c 5.9125,-0.008 11.34853,-0.39475 12.08008,-0.85851 z m 25.66992,-3.12618 c 0,-3.33333 -0.16667,-3.5 -3.5,-3.5 -2.90098,0 -3.55632,0.39753 -3.82908,2.32273 -0.56628,3.9969 0.52391,5.3331 4.0722,4.99114 2.9957,-0.2887 3.25688,-0.59455 3.25688,-3.81387 z m 117.5,0 c 0,-4.30681 -0.33126,-4.15591 8.75,-3.98597 0.4125,0.008 0.75,1.69522 0.75,3.75 0,3.60301 0.12456,3.73597 3.5,3.73597 3.37789,0 3.5,-0.13086 3.5,-3.75066 0,-3.74597 0.005,-3.75065 4.25,-3.75 l 4.25,6.6e-4 v -7.95956 -7.959564 l -8.07397,-0.29044 -8.07398,-0.29044 -0.17602,-16.5 -0.17603,-16.5 -12.25,-0.28078 -12.25,-0.28078 v -4.41207 -4.41207 l 12.50182,-0.30715 c 7.83216,-0.19243 12.53546,0.0664 12.59189,0.69285 0.0495,0.55 0.16122,2.35 0.24818,4 0.14323,2.71771 0.51504,3.02944 3.95131,3.31294 l 3.79319,0.31294 -0.29319,-7.81294 -0.2932,-7.81294 -16.25,-0.27477 -16.25,-0.27478 v -3.97522 c 0,-3.9711 -0.004,-3.97523 -4,-3.97523 h -4 v 16.5 16.5 h 4 4 v 12.5 12.5 h 4 c 4,0 4,0 4,-4.5 v -4.5 h 4.5 4.5 v 5 5 h -3.92498 -3.92498 l -0.0122,12.000004 -0.0122,12 h 3.43716 c 3.34339,0 3.4372,-0.10917 3.4372,-4 z m -3.75,-36.807504 c -4.25,-0.3075 -4.25,-0.3075 -4.25,-4.64931 0,-4.34181 0,-4.34181 4.41913,-4.69327 l 4.41913,-0.35147 0.34398,4.32505 c 0.43628,5.48549 0.20204,5.74048 -4.93224,5.369 z m -130.25,24.807504 v -8.000004 h -3.5 -3.5 v 7.333334 c 0,8.24257 0.20389,8.66667 4.16667,8.66667 2.83333,0 2.83333,0 2.83333,-8 z m -16.5,-4.5 c 0,-2.744824 -0.31897,-3.026404 -3.75,-3.310374 -3.54089,-0.29306 -3.75,-0.149 -3.75,2.583344 0,3.71643 0.74567,4.38867 4.46406,4.02442 2.64051,-0.25865 3.03594,-0.68814 3.03594,-3.29739 z m 83.29206,-4.250004 c -0.29206,-7.75 -0.29206,-7.75 -3.54206,-8.06336 l -3.25,-0.31336 v 8.06336 8.063364 h 3.54206 3.54207 z m -92.29206,-16.81558 v -15.93442 l -3,-0.15811 c -1.65,-0.087 -3.45,-0.19874 -4,-0.24841 -0.57858,-0.0522 -1,-3.56769 -1,-8.34189 v -8.25159 h -3.5 -3.5 v 12 12 l 4,0.0807 4,0.0807 0.28027,12.72143 0.28026,12.72144 3.21974,-0.36767 3.21973,-0.36768 v -15.93442 z m -16.5,-0.43442 c 0,-8 0,-8 -2.98095,-8 -3.12154,0 -4.55774,2.47191 -3.84374,6.61565 0.27471,1.59427 -0.40652,1.93127 -4.42531,2.18914 l -4.75,0.30479 v -4.55479 c 0,-4.55479 0,-4.55479 4,-4.55479 4,0 4,0 4,-4 0,-4 0,-4 -4,-4 -4,0 -4,0 -4,4 0,4 0,4 -4,4 h -4 v 8 8 h 12 12 z m 51,-3.42055 v -11.42054 l -3.0113,-0.66139 c -3.0936,-0.67947 -18.50348,-0.46086 -20.7387,0.2942 -1.33912,0.45236 -1.87727,21.24768 -0.58333,22.54161 0.36666,0.36667 5.99166,0.66667 12.5,0.66667 h 11.83333 z m -17.07692,4.21652 c -0.0423,-0.43779 -0.11154,-2.66026 -0.15385,-4.93883 l -0.0769,-4.14286 h 4.80769 4.80769 l 0.003,4.39286 c 0.003,4.39286 0.003,4.39286 -4.65384,4.93883 -2.56138,0.30028 -4.69167,0.18778 -4.73397,-0.25 z m -134.14134,-13.04597 0.28173,-11.75 h -4.03173 -4.03174 v 11.33333 c 0,12.53642 0.12627,12.88898 4.46406,12.46406 l 3.03594,-0.29739 z m 16.61127,10.66821 c 1.09151,-2.84442 0.67039,-13.23041 -0.55299,-13.63821 -0.63799,-0.21266 -2.43799,-0.19908 -4,0.0302 -2.79692,0.4105 -2.84002,0.51881 -2.84002,7.13666 0,3.69591 0.3,7.01983 0.66667,7.3865 1.31098,1.31099 6.12334,0.65627 6.72634,-0.91512 z m 234.10699,-0.41821 c 1.12126,-3.53278 -0.34567,-6 -3.56739,-6 -2.75471,0 -2.93261,0.24265 -2.93261,4 0,3.75735 0.1779,4 2.93261,4 2.05436,0 3.12272,-0.59896 3.56739,-2 z m -166.5,-18.5 c 0,-3.41667 -0.0952,-3.5 -4,-3.5 -3.90476,0 -4,0.0833 -4,3.5 0,3.41666 0.0952,3.5 4,3.5 3.90476,0 4,-0.0833 4,-3.5 z m -76.18963,-8.25 c -0.28397,-3.43103 -0.56555,-3.75 -3.31037,-3.75 -2.74482,0 -3.0264,0.31897 -3.31037,3.75 -0.30622,3.70001 -0.26209,3.75 3.31037,3.75 3.57246,0 3.61659,-0.05 3.31037,-3.75 z m 125.68963,-0.25 v -3.5 h -7.5 c -7.08624,0 -7.51815,0.12814 -7.82908,2.32272 -0.66779,4.7134 0.26308,5.28722 8.06462,4.97138 l 7.26446,-0.2941 z m 25,0 c 0,-3.5 0,-3.5 -5.44655,-3.80908 -8.01735,-0.45496 -10.05345,0.28659 -10.05345,3.66146 0,3.99127 0.57966,4.26116 8.45631,3.93726 l 7.04369,-0.28964 z m 67,0 v -3.5 h -7.40035 c -7.09417,0 -7.41589,0.10183 -7.77595,2.46117 -0.70977,4.65083 0.10571,5.14896 7.91184,4.83293 l 7.26446,-0.2941 z m 17,0 c 0,-3.33334 -0.16667,-3.5 -3.5,-3.5 -2.90098,0 -3.55632,0.39753 -3.82908,2.32272 -0.56628,3.9969 0.52391,5.3331 4.0722,4.99115 2.9957,-0.2887 3.25688,-0.59455 3.25688,-3.81387 z m -250.66992,-7.3915 c 0.37457,-3.28129 -1.05158,-4.57076 -5.08008,-4.59319 -2.45306,-0.0137 -2.75,0.34461 -2.75,3.31802 0,4.17102 0.66517,4.83619 4.46406,4.46406 2.51952,-0.24681 3.09209,-0.78924 3.36602,-3.18889 z m 32.66992,-0.6085 v -3.5 l -7.75,-0.29207 -7.75,-0.29206 v 3.3754 c 0,4.60803 0.41543,4.82902 8.45631,4.49837 l 7.04369,-0.28964 z m 59.5,0 c 0,-4 0,-4 -4,-4 -4,0 -4,0 -4,4 0,4 0,4 4,4 4,0 4,0 4,-4 z m 16,0 c 0,-3.90476 -0.0833,-4 -3.5,-4 -3.3,0 -3.5,0.19047 -3.5,3.33333 0,4.06392 0.53817,4.66667 4.16667,4.66667 2.63889,0 2.83333,-0.27451 2.83333,-4 z m 16.5,0 c 0,-3.22222 -0.2381,-3.5 -3,-3.5 -2.75462,0 -3.02572,0.3123 -3.31443,3.81816 -0.31071,3.77305 -0.27527,3.81441 3,3.5 3.06065,-0.2938 3.31443,-0.58615 3.31443,-3.81816 z m 25.5,-0.0634 c 0,-3.98192 -0.0651,-4.05708 -3.25,-3.75 -2.9671,0.28608 -3.27702,0.63978 -3.56037,4.06336 -0.30533,3.68927 -0.2527,3.75 3.25,3.75 3.49635,0 3.56037,-0.0731 3.56037,-4.06336 z m -8,-7.82966 c 0,-3.05299 -1.43248,-4.10698 -5.58179,-4.10698 -2.097,0 -2.41821,0.4649 -2.41821,3.5 0,3.41666 0.0952,3.5 4,3.5 3.74491,0 4,-0.1845 4,-2.89301 z m 84,-0.60698 c 0,-3.0351 -0.32121,-3.5 -2.41821,-3.5 -4.14931,0 -5.58179,1.05399 -5.58179,4.10699 0,2.70851 0.25509,2.89301 4,2.89301 3.90476,0 4,-0.0833 4,-3.5 z m 74.81336,0.25 c -0.28608,-2.9671 -0.63978,-3.27702 -4.06336,-3.56037 -3.68927,-0.30534 -3.75,-0.25271 -3.75,3.25 0,3.49635 0.0731,3.56037 4.06336,3.56037 3.98191,0 4.05708,-0.0651 3.75,-3.25 z M 310.93026,500.1005 c -4.41417,-0.51849 -4.44066,-0.5451 -4.5,-4.52156 -0.0595,-3.98298 -0.0757,-3.99912 -3.8097,-3.79234 -2.0625,0.11422 -3.78514,-0.11078 -3.82809,-0.5 -0.043,-0.38921 -0.15545,-2.50766 -0.25,-4.70766 l -0.17191,-4 8.75213,-0.5 c 4.81367,-0.275 8.77074,-0.275 8.79349,0 0.26425,3.19468 0.13717,18.11452 -0.15585,18.29846 -0.21437,0.13456 -2.38791,0.01 -4.83007,-0.2769 z M 21.870559,470.07894 v -30 h 29.97089 29.9709 l 0.2791,29.58448 c 0.15351,16.27147 0.0916,29.77147 -0.13756,30 -0.22916,0.22854 -13.84166,0.41552 -30.25,0.41552 h -29.83333 z m 50.5,-0.5 v -20 l -20.28387,-0.27081 -20.28388,-0.27082 0.10864,20.54128 0.10863,20.54128 20.17524,-0.27046 20.17524,-0.27047 z m -33.5,0.58618 v -12.97187 l 12.75,-0.30716 c 7.0125,-0.16893 12.89,-0.24215 13.0611,-0.16272 0.17111,0.0794 0.31673,5.92944 0.32361,13 l 0.0125,12.85557 -13.07361,0.27903 -13.07361,0.27902 z m 50,24.96861 v -5.05479 h 5.05479 5.05479 l -0.30479,4.75 -0.30479,4.75 -4.75,0.30479 -4.75,0.30479 z m 294.000001,-4.05479 v -9 h 4.5 4.5 v 9 9 h -4.5 -4.5 z m 108.66667,8.33333 c -0.36667,-0.36666 -0.66667,-2.61666 -0.66667,-5 v -4.33333 h 5 5 v 5 5 h -4.33333 c -2.38334,0 -4.63334,-0.3 -5,-0.66667 z M 197.87056,478.32173 v -4.7572 l 4.5,0.3579 c 4.5,0.3579 4.5,0.3579 4.5,4.7572 v 4.39931 h -4.5 -4.5 z m 285.13398,-146.508 c -0.42042,-0.42086 -0.51005,-2.59419 -0.19919,-4.82962 l 0.56521,-4.06441 8.5,-0.0826 8.5,-0.0826 v 4.79492 4.79492 l -8.30081,0.11733 c -4.56545,0.0645 -8.64479,-0.22702 -9.06521,-0.64789 z M 21.870559,289.82894 v -25.75 h 5 5 v 25.75 25.75 h -5 -5 z m 17,4.25 v -5.10958 l 4.65852,0.30479 4.65851,0.30479 v 4.5 4.5 l -4.65851,0.30479 -4.65852,0.30479 z m 452.000001,0 v -5 h 5 5 v 5 5 h -5 -5 z m -469.000001,-184.25 v -4.75 h 4.5 c 4.47619,0 4.5,-0.0185 4.5,-3.5 0,-3.481484 -0.0238,-3.500004 -4.5,-3.500004 h -4.5 v -5 -5 h 4.9425 4.94251 l 0.30749,4.25 c 0.28863,3.98914 0.50698,4.26923 3.5575,4.56336 3.24274,0.31265 3.25,0.30304 3.25,-4.3048 v -4.61814 l 4.55383,0.30479 4.55383,0.30479 0.0614,12.500004 c 0.0338,6.875 -0.21546,12.6125 -0.55383,12.75 -0.33836,0.1375 -2.41521,0.25 -4.61521,0.25 -4,0 -4,0 -4,-4 0,-3.90476 -0.0833,-4 -3.5,-4 -3.45098,0 -3.5,0.0595 -3.5,4.25 v 4.25 h -5 -5 z m 75.92308,-12.195214 c -0.0423,-0.30514 -0.11154,-2.46729 -0.15385,-4.80479 l -0.0769,-4.25 h 4.807691 4.80769 l 0.005,4.5 0.005,4.5 -4.65851,0.30479 c -2.562191,0.16763 -4.693131,0.0551 -4.735441,-0.25 z m 393.272131,-4.30479 0.30479,-4.75 4.75,-0.30479 4.75,-0.30479 v 5.05479 5.05479 h -5.05479 -5.05479 z m -468.960061,-41.75 0.26485,-30 30,-0.26485 30,-0.26485 -0.27861,29.98624 -0.2786,29.98624 -29.98625,0.27861 -29.98624,0.27861 z m 50.53532,-0.17524 0.27047,-20.17524 -20.52047,-0.10853 -20.52047,-0.10852 v 18.95197 c 0,10.42359 0.27673,19.67313 0.61496,20.55453 0.54023,1.40781 3.00081,1.56964 20.25,1.33178 l 19.63504,-0.27075 z m -21.02047,12.92803 -12.75,-0.31255 v -12.97012 -12.97012 h 13 13 v 13.5 c 0,7.425 -0.1125,13.4022 -0.25,13.28267 -0.1375,-0.11954 -5.9875,-0.35798 -13,-0.52988 z m 259.500001,16.93971 -4.25,-0.3075 v -7.9425 c 0,-4.36838 -0.1125,-8.28 -0.25,-8.6925 -0.1375,-0.4125 1.8875,-0.99569 4.5,-1.29597 2.97373,-0.3418 4.76871,-0.15483 4.80002,0.5 0.20956,4.38167 0.0456,17.75043 -0.21924,17.88185 -0.18193,0.0903 -2.24328,0.0257 -4.58078,-0.14338 z m 130.16663,-0.10917 c -0.22915,-0.22917 -0.41663,-13.84167 -0.41663,-30.25 v -29.83333 h 30.01466 30.01467 l -0.26467,30.03119 -0.26466,30.03119 -29.33337,0.21881 c -16.13336,0.12034 -29.52086,0.0313 -29.75,-0.19786 z m 49.58337,-29.56459 v -20.48126 l -20.5,0.0931 -20.5,0.0932 v 18.80633 c 0,10.34348 0.27314,19.51813 0.60699,20.38811 0.52535,1.36903 3.28267,1.58179 20.5,1.58179 h 19.89301 z m -20.75,12.70048 -12.25,-0.28078 v -12.96922 -12.96922 h 13 13 v 12.94098 c 0,7.11754 -0.3375,13.08004 -0.75,13.25 -0.4125,0.16996 -6.2625,0.18267 -13,0.0282 z"
       id="path837" />
  </g>
</svg>
